SplineFontDB: 3.0
FontName: Oswald-Extra-LightItalic
FullName: Oswald-Extra-LightItalic
FamilyName: Oswald
Weight: Extra-Light
Copyright: Copyright (c) 2010-13 by Vernon Adams
Version: 3.0
ItalicAngle: -6
UnderlinePosition: -67
UnderlineWidth: 21
Ascent: 1658
Descent: 390
sfntRevision: 0x00040000
LayerCount: 2
Layer: 0 1 "Back"  1
Layer: 1 1 "Fore"  0
XUID: [1021 904 2114768213 13901525]
FSType: 0
OS2Version: 4
OS2_WeightWidthSlopeOnly: 0
OS2_UseTypoMetrics: 1
CreationTime: 1372450351
ModificationTime: 1372608383
PfmFamily: 17
TTFWeight: 200
TTFWidth: 5
LineGap: 0
VLineGap: 0
Panose: 2 0 3 3 0 0 0 0 0 0
OS2TypoAscent: 1658
OS2TypoAOffset: 0
OS2TypoDescent: -390
OS2TypoDOffset: 0
OS2TypoLinegap: 0
OS2WinAscent: 1658
OS2WinAOffset: 0
OS2WinDescent: 390
OS2WinDOffset: 0
HheadAscent: 1658
HheadAOffset: 0
HheadDescent: -390
HheadDOffset: 0
OS2SubXSize: 1331
OS2SubYSize: 1433
OS2SubXOff: 29
OS2SubYOff: 286
OS2SupXSize: 1331
OS2SupYSize: 1433
OS2SupXOff: -102
OS2SupYOff: 983
OS2StrikeYSize: 102
OS2StrikeYPos: 530
OS2Vendor: 'newt'
OS2CodePages: 20000097.00000000
OS2UnicodeRanges: a00002ef.4000204b.00000000.00000000
Lookup: 258 0 0 "'kern' Horizontal Kerning lookup 0"  {"'kern' Horizontal Kerning lookup 0 per glyph data 0"  "'kern' Horizontal Kerning lookup 0 kerning class 1"  } ['kern' ('DFLT' <'dflt' > 'cyrl' <'dflt' > 'latn' <'dflt' > ) ]
Lookup: 260 0 0 "'mark' Mark Positioning lookup 1"  {"'mark' Mark Positioning lookup 1 subtable"  } ['mark' ('DFLT' <'dflt' > 'cyrl' <'dflt' > 'grek' <'dflt' > 'latn' <'dflt' > ) ]
MarkAttachClasses: 1
DEI: 91125
KernClass2: 40 56 "'kern' Horizontal Kerning lookup 0 kerning class 1" 
 89 A Agrave Aacute Acircumflex Atilde Adieresis Aring Abreve Amacron Aogonek uni0200 uni0202
 16 D Dcaron uni1E0A
 94 E Egrave Eacute Ecircumflex Edieresis Ebreve Ecaron Edotaccent Emacron Eogonek uni0204 uni0206
 9 F uni1E1E
 52 G Gbreve Gcircumflex Gcommaaccent Gdotaccent uni01F4
 14 K Kcommaaccent
 28 L Lacute Lcaron Lcommaaccent
 9 P uni1E56

StartChar: .notdef
Encoding: 65536 -1 0
Width: 748
Flags: W
LayerCount: 2
UndoRedoHistory
Layer: 1
Undoes
EndUndoes
Redoes
EndRedoes
EndUndoRedoHistory
Fore
SplineSet
136 68 m 1,0,-1
 544 68 l 1,1,-1
 544 1297 l 1,2,-1
 136 1297 l 1,3,-1
 136 68 l 1,0,-1
68 0 m 1,4,-1
 68 1365 l 1,5,-1
 612 1365 l 1,6,-1
 612 0 l 1,7,-1
 68 0 l 1,4,-1
EndSplineSet
Validated: 1
EndChar

StartChar: exclam
Encoding: 33 33 4
Width: 404
GlyphClass: 2
Flags: W
LayerCount: 2
UndoRedoHistory
Layer: 1
Undoes
EndUndoes
Redoes
EndRedoes
EndUndoRedoHistory
Fore
SplineSet
96 0 m 1,0,-1
 112 151 l 1,1,-1
 236 151 l 1,2,-1
 220 0 l 1,3,-1
 96 0 l 1,0,-1
178 356 m 1,4,-1
 273 1658 l 1,5,-1
 397 1658 l 1,6,-1
 216 356 l 1,7,-1
 178 356 l 1,4,-1
EndSplineSet
Validated: 1
EndChar

StartChar: quotedbl
Encoding: 34 34 5
Width: 699
GlyphClass: 2
Flags: W
LayerCount: 2
UndoRedoHistory
Layer: 1
Undoes
EndUndoes
Redoes
EndRedoes
EndUndoRedoHistory
Fore
SplineSet
245 1188 m 1,0,-1
 294 1658 l 1,1,-1
 405 1658 l 1,2,-1
 304 1188 l 1,3,-1
 245 1188 l 1,0,-1
514 1188 m 1,4,-1
 563 1658 l 1,5,-1
 675 1658 l 1,6,-1
 574 1188 l 1,7,-1
 514 1188 l 1,4,-1
EndSplineSet
Validated: 1
EndChar

StartChar: numbersign
Encoding: 35 35 6
Width: 928
GlyphClass: 2
Flags: W
LayerCount: 2
UndoRedoHistory
Layer: 1
Undoes
EndUndoes
Redoes
EndRedoes
EndUndoRedoHistory
Fore
SplineSet
88 0 m 1,0,-1
 247 599 l 1,1,-1
 116 599 l 1,2,-1
 124 678 l 1,3,-1
 268 678 l 1,4,-1
 360 1022 l 1,5,-1
 198 1022 l 1,6,-1
 206 1101 l 1,7,-1
 381 1101 l 1,8,-1
 528 1658 l 1,9,-1
 631 1658 l 1,10,-1
 484 1101 l 1,11,-1
 698 1101 l 1,12,-1
 846 1658 l 1,13,-1
 948 1658 l 1,14,-1
 801 1101 l 1,15,-1
 918 1101 l 1,16,-1
 910 1022 l 1,17,-1
 780 1022 l 1,18,-1
 688 678 l 1,19,-1
 836 678 l 1,20,-1
 827 599 l 1,21,-1
 667 599 l 1,22,-1
 509 0 l 1,23,-1
 405 0 l 1,24,-1
 564 599 l 1,25,-1
 350 599 l 1,26,-1
 191 0 l 1,27,-1
 88 0 l 1,0,-1
371 678 m 1,28,-1
 585 678 l 1,29,-1
 677 1022 l 1,30,-1
 463 1022 l 1,31,-1
 371 678 l 1,28,-1
EndSplineSet
Validated: 1
EndChar

StartChar: dollar
Encoding: 36 36 7
Width: 923
GlyphClass: 2
Flags: W
LayerCount: 2
UndoRedoHistory
Layer: 1
Undoes
EndUndoes
Redoes
EndRedoes
EndUndoRedoHistory
Fore
SplineSet
413 -192 m 1,0,-1
 431 -21 l 1,1,2
 85 -15 85 -15 85 390 c 0,3,4
 85 399 85 399 85 409 c 1,5,-1
 187 440 l 1,6,7
 189 369 189 369 196 317 c 128,-1,8
 203 265 203 265 220.5 216.5 c 128,-1,9
 238 168 238 168 267 137.5 c 128,-1,10
 296 107 296 107 342.5 89 c 128,-1,11
 389 71 389 71 452 71 c 0,12,13
 718 71 718 71 746 338 c 0,14,15
 748 357 748 357 748 376 c 0,16,17
 748 455 748 455 714 523 c 0,18,19
 672 607 672 607 570 720 c 2,20,-1
 298 1022 l 2,21,22
 184 1149 184 1149 184 1298 c 0,23,24
 184 1318 184 1318 186 1337 c 1,25,26
 203 1493 203 1493 303.5 1580.5 c 128,-1,27
 404 1668 404 1668 560 1676 c 1,28,-1
 580 1870 l 1,29,-1
 641 1870 l 1,30,-1
 621 1676 l 1,31,32
 782 1668 782 1668 860 1572 c 0,33,34
 929 1486 929 1486 929 1304 c 0,35,36
 929 1283 929 1283 928 1261 c 1,37,-1
 831 1239 l 1,38,39
 831 1251 831 1251 831 1263 c 0,40,41
 831 1428 831 1428 779 1506 c 0,42,43
 725 1588 725 1588 590 1587 c 0,44,45
 585 1587 585 1587 580 1587 c 0,46,47
 458 1585 458 1585 380 1525.5 c 128,-1,48
 302 1466 302 1466 289 1345 c 0,49,50
 287 1330 287 1330 287 1316 c 0,51,52
 287 1203 287 1203 384 1094 c 1,53,-1
 653 799 l 2,54,55
 756 686 756 686 810 576 c 0,56,57
 854 487 854 487 853 388 c 0,58,59
 853 366 853 366 851 344 c 0,60,61
 834 178 834 178 737.5 86 c 128,-1,62
 641 -6 641 -6 491 -19 c 1,63,-1
 472 -192 l 1,64,-1
 413 -192 l 1,0,-1
EndSplineSet
Validated: 33
EndChar

StartChar: percent
Encoding: 37 37 8
Width: 1302
GlyphClass: 2
Flags: W
LayerCount: 2
UndoRedoHistory
Layer: 1
Undoes
EndUndoes
Redoes
EndRedoes
EndUndoRedoHistory
Fore
SplineSet
352 940 m 128,-1,1
 412 940 412 940 441.5 988 c 128,-1,2
 471 1036 471 1036 481 1128 c 2,3,-1
 513 1430 l 2,4,5
 516 1458 516 1458 516 1482 c 0,6,7
 516 1614 516 1614 422 1614 c 0,8,9
 312 1614 312 1614 294 1429 c 1,10,-1
 262 1128 l 2,11,12
 259 1097 259 1097 259 1072 c 0,13,14
 259 1020 259 1020 272 988 c 0,15,0
 292 940 292 940 352 940 c 128,-1,1
343 855 m 0,16,17
 160 855 160 855 160 1067 c 0,18,19
 160 1098 160 1098 164 1134 c 1,20,-1
 194 1425 l 2,21,22
 222 1699 222 1699 432 1699 c 0,23,24
 615 1699 615 1699 615 1488 c 0,25,26
 615 1460 615 1460 612 1428 c 2,27,-1
 581 1132 l 2,28,29
 552 855 552 855 343 855 c 0,16,17
972 72 m 0,30,31
 1031 72 1031 72 1061.5 120.5 c 128,-1,32
 1092 169 1092 169 1102 260 c 2,33,-1
 1133 562 l 1,34,35
 1136 590 1136 590 1136 614 c 0,36,37
 1136 746 1136 746 1043 746 c 0,38,39
 983 746 983 746 953.5 698 c 128,-1,40
 924 650 924 650 914 561 c 2,41,-1
 882 260 l 2,42,43
 879 229 879 229 879 204 c 0,44,45
 879 152 879 152 892 120 c 0,46,47
 912 72 912 72 972 72 c 0,30,31
963 -13 m 0,48,49
 780 -13 780 -13 780 204 c 0,50,51
 780 233 780 233 783 266 c 1,52,-1
 814 557 l 2,53,54
 844 831 844 831 1052 831 c 0,55,56
 1235 831 1235 831 1235 620 c 0,57,58
 1235 592 1235 592 1232 560 c 1,59,-1
 1200 264 l 1,60,61
 1173 -13 1173 -13 963 -13 c 0,48,49
277 0 m 1,62,-1
 1020 1680 l 1,63,-1
 1120 1680 l 1,64,-1
 378 0 l 1,65,-1
 277 0 l 1,62,-1
EndSplineSet
Validated: 1
EndChar

StartChar: ampersand
Encoding: 38 38 9
Width: 1232
GlyphClass: 2
Flags: W
LayerCount: 2
UndoRedoHistory
Layer: 1
Undoes
EndUndoes
Redoes
EndRedoes
EndUndoRedoHistory
Fore
SplineSet
466 -22 m 0,0,1
 369 -22 369 -22 295.5 8.5 c 128,-1,2
 222 39 222 39 180.5 92 c 0,3,4
 140 145 140 145 122 213 c 0,5,6
 110 260 110 260 109 311 c 0,7,8
 109 334 109 334 112 358 c 0,9,10
 124 475 124 475 198.5 592 c 128,-1,11
 273 709 273 709 443 861 c 1,12,13
 344 1054 344 1054 312 1146 c 0,14,15
 288 1215 288 1215 288 1287 c 0,16,17
 288 1312 288 1312 291 1337 c 0,18,19
 308 1499 308 1499 411 1588 c 128,-1,20
 514 1677 514 1677 675 1677 c 0,21,22
 832 1678 832 1678 912 1600 c 0,23,24
 981 1534 981 1534 980 1426 c 0,25,26
 980 1407 980 1407 978 1388 c 0,27,28
 965 1269 965 1269 858.5 1138.5 c 128,-1,29
 752 1008 752 1008 553 848 c 1,30,-1
 854 278 l 1,31,32
 928 361 928 361 987.5 493 c 128,-1,33
 1047 625 1047 625 1060 719 c 1,34,-1
 1160 719 l 1,35,36
 1148 607 1148 607 1077.5 459.5 c 128,-1,37
 1007 312 1007 312 906 208 c 1,38,39
 954 138 954 138 997 113.5 c 128,-1,40
 1040 89 1040 89 1098 89 c 1,41,-1
 1088 -12 l 1,42,43
 1064 -12 1064 -12 1044 -8 c 1,44,45
 919 8 919 8 835 141 c 1,46,47
 763 69 763 69 667.5 23.5 c 128,-1,48
 572 -22 572 -22 466 -22 c 0,0,1
478 70 m 0,49,50
 559 70 559 70 632.5 103.5 c 128,-1,51
 706 137 706 137 784 211 c 1,52,-1
 480 782 l 1,53,54
 348 656 348 656 290 557.5 c 128,-1,55
 232 459 232 459 221 357 c 0,56,57
 219 337 219 337 219 318 c 0,58,59
 220 297 220 297 222 276 c 0,60,61
 226 237 226 237 243.5 199 c 128,-1,62
 261 161 261 161 290 132.5 c 128,-1,63
 319 104 319 104 367.5 87 c 128,-1,64
 416 70 416 70 478 70 c 0,49,50
519 916 m 1,65,66
 674 1048 674 1048 767.5 1163.5 c 128,-1,67
 861 1279 861 1279 873 1392 c 0,68,69
 875 1406 875 1406 875 1419 c 0,70,71
 874 1494 874 1494 826 1536 c 0,72,73
 770 1586 770 1586 663 1586 c 0,74,75
 546 1586 546 1586 477.5 1517 c 128,-1,76
 409 1448 409 1448 397 1340 c 0,77,78
 395 1318 395 1318 395 1296 c 0,79,80
 396 1229 396 1229 416 1161 c 0,81,82
 444 1071 444 1071 519 916 c 1,65,66
EndSplineSet
Validated: 524321
EndChar

StartChar: quotesingle
Encoding: 39 39 10
Width: 487
GlyphClass: 2
Flags: W
LayerCount: 2
UndoRedoHistory
Layer: 1
Undoes
EndUndoes
Redoes
EndRedoes
EndUndoRedoHistory
Fore
SplineSet
245 1188 m 1,0,-1
 294 1658 l 1,1,-1
 405 1658 l 1,2,-1
 304 1188 l 1,3,-1
 245 1188 l 1,0,-1
EndSplineSet
Validated: 1
EndChar

StartChar: parenleft
Encoding: 40 40 11
Width: 545
GlyphClass: 2
Flags: W
LayerCount: 2
UndoRedoHistory
Layer: 1
Undoes
EndUndoes
Redoes
EndRedoes
EndUndoRedoHistory
Fore
SplineSet
407 -302 m 1,0,1
 351 -297 351 -297 308 -276 c 128,-1,2
 265 -255 265 -255 237 -211.5 c 128,-1,3
 209 -168 209 -168 190.5 -124 c 128,-1,4
 172 -80 172 -80 165.5 -2.5 c 0,5,6
 158 75 158 75 156 136 c 0,7,8
 155 151 155 151 156 169 c 0,9,10
 156 223 156 223 162 303 c 0,11,12
 170 409 170 409 176.5 482.5 c 128,-1,13
 183 556 183 556 196 683 c 0,14,15
 211 830 211 830 221 913.5 c 128,-1,16
 231 997 231 997 249.5 1115.5 c 128,-1,17
 268 1234 268 1234 287 1301 c 128,-1,18
 306 1368 306 1368 337 1446.5 c 128,-1,19
 368 1525 368 1525 405.5 1566 c 128,-1,20
 443 1607 443 1607 496 1636.5 c 128,-1,21
 549 1666 549 1666 614 1669 c 1,22,-1
 606 1590 l 1,23,24
 555 1583 555 1583 515 1552 c 128,-1,25
 475 1521 475 1521 445.5 1451.5 c 128,-1,26
 416 1382 416 1382 396.5 1322 c 128,-1,27
 377 1262 377 1262 359 1139 c 128,-1,28
 341 1016 341 1016 332 939 c 128,-1,29
 323 862 323 862 306 702 c 0,30,31
 305 689 305 689 304 683 c 0,32,33
 262 287 262 287 260 143 c 0,34,35
 260 137 260 137 260 131 c 0,36,37
 260 -123 260 -123 344 -193 c 0,38,39
 374 -218 374 -218 416 -224 c 1,40,-1
 407 -302 l 1,0,1
EndSplineSet
Validated: 524289
EndChar

StartChar: parenright
Encoding: 41 41 12
Width: 522
GlyphClass: 2
Flags: W
LayerCount: 2
UndoRedoHistory
Layer: 1
Undoes
EndUndoes
Redoes
EndRedoes
EndUndoRedoHistory
Fore
SplineSet
-12 -302 m 1,0,-1
 -3 -224 l 1,1,2
 120 -207 120 -207 185 -21 c 0,3,4
 238 128 238 128 279 493 c 0,5,6
 285 547 285 547 297 660 c 0,7,8
 299 676 299 676 300 684 c 0,9,10
 340 1078 340 1078 342 1215 c 0,11,12
 342 1227 342 1227 342 1239 c 0,13,14
 342 1484 342 1484 263 1556 c 0,15,16
 232 1584 232 1584 188 1590 c 1,17,-1
 196 1669 l 1,18,19
 253 1666 253 1666 296 1646.5 c 128,-1,20
 339 1627 339 1627 366.5 1584.5 c 128,-1,21
 394 1542 394 1542 413 1498.5 c 128,-1,22
 432 1455 432 1455 438.5 1376.5 c 128,-1,23
 445 1298 445 1298 447 1236 c 0,24,25
 447 1223 447 1223 447 1209 c 0,26,27
 448 1154 448 1154 442 1068 c 0,28,29
 434 960 434 960 427 886.5 c 128,-1,30
 420 813 420 813 407 684 c 0,31,32
 392 538 392 538 382 456 c 128,-1,33
 372 374 372 374 353.5 256 c 128,-1,34
 335 138 335 138 316 72 c 128,-1,35
 297 6 297 6 266 -72.5 c 128,-1,36
 235 -151 235 -151 197.5 -192.5 c 128,-1,37
 160 -234 160 -234 107 -265 c 128,-1,38
 54 -296 54 -296 -12 -302 c 1,0,-1
EndSplineSet
Validated: 33
EndChar

StartChar: asterisk
Encoding: 42 42 13
Width: 730
GlyphClass: 2
Flags: W
LayerCount: 2
UndoRedoHistory
Layer: 1
Undoes
EndUndoes
Redoes
EndRedoes
EndUndoRedoHistory
Fore
SplineSet
268 1008 m 1,0,-1
 204 1052 l 1,1,-1
 418 1298 l 1,2,-1
 165 1405 l 1,3,-1
 201 1476 l 1,4,-1
 444 1353 l 1,5,-1
 463 1657 l 1,6,-1
 550 1657 l 1,7,-1
 503 1353 l 1,8,-1
 769 1476 l 1,9,-1
 790 1405 l 1,10,-1
 516 1298 l 1,11,-1
 678 1049 l 1,12,-1
 604 1008 l 1,13,-1
 463 1269 l 1,14,-1
 268 1008 l 1,0,-1
EndSplineSet
Validated: 1
EndChar

StartChar: plus
Encoding: 43 43 14
Width: 745
GlyphClass: 2
Flags: W
LayerCount: 2
UndoRedoHistory
Layer: 1
Undoes
EndUndoes
Redoes
EndRedoes
EndUndoRedoHistory
Fore
SplineSet
338 492 m 1,0,-1
 371 810 l 1,1,-1
 89 810 l 1,2,-1
 97 892 l 1,3,-1
 380 892 l 1,4,-1
 413 1205 l 1,5,-1
 498 1205 l 1,6,-1
 465 892 l 1,7,-1
 751 892 l 1,8,-1
 742 810 l 1,9,-1
 456 810 l 1,10,-1
 423 492 l 1,11,-1
 338 492 l 1,0,-1
EndSplineSet
Validated: 1
EndChar

StartChar: comma
Encoding: 44 44 15
Width: 363
GlyphClass: 2
Flags: W
LayerCount: 2
UndoRedoHistory
Layer: 1
Undoes
EndUndoes
Redoes
EndRedoes
EndUndoRedoHistory
Fore
SplineSet
75 -220 m 1,0,-1
 52 -173 l 1,1,2
 107 -135 107 -135 128 -99 c 128,-1,3
 149 -63 149 -63 156 0 c 1,4,-1
 82 0 l 1,5,-1
 105 216 l 1,6,-1
 238 216 l 1,7,-1
 217 23 l 2,8,9
 207 -72 207 -72 176.5 -124.5 c 128,-1,10
 146 -177 146 -177 75 -220 c 1,0,-1
EndSplineSet
Validated: 1
EndChar

StartChar: hyphen
Encoding: 45 45 16
Width: 580
GlyphClass: 2
Flags: W
LayerCount: 2
UndoRedoHistory
Layer: 1
Undoes
EndUndoes
Redoes
EndRedoes
EndUndoRedoHistory
Fore
SplineSet
105 653 m 1,0,-1
 114 743 l 1,1,-1
 537 743 l 1,2,-1
 528 653 l 1,3,-1
 105 653 l 1,0,-1
EndSplineSet
Validated: 1
EndChar

StartChar: period
Encoding: 46 46 17
Width: 363
GlyphClass: 2
Flags: W
LayerCount: 2
UndoRedoHistory
Layer: 1
Undoes
EndUndoes
Redoes
EndRedoes
EndUndoRedoHistory
Fore
SplineSet
93 0 m 1,0,-1
 115 213 l 1,1,-1
 237 213 l 1,2,-1
 215 0 l 1,3,-1
 93 0 l 1,0,-1
EndSplineSet
Validated: 1
EndChar

StartChar: slash
Encoding: 47 47 18
Width: 674
GlyphClass: 2
Flags: W
LayerCount: 2
UndoRedoHistory
Layer: 1
Undoes
EndUndoes
Redoes
EndRedoes
EndUndoRedoHistory
Fore
SplineSet
1 0 m 1,0,-1
 663 1658 l 1,1,-1
 760 1658 l 1,2,-1
 100 0 l 1,3,-1
 1 0 l 1,0,-1
EndSplineSet
Validated: 1
EndChar

StartChar: zero
Encoding: 48 48 19
Width: 1009
GlyphClass: 2
Flags: W
LayerCount: 2
UndoRedoHistory
Layer: 1
Undoes
EndUndoes
Redoes
EndRedoes
EndUndoRedoHistory
Fore
SplineSet
468 62 m 0,0,1
 617 62 617 62 690.5 163.5 c 128,-1,2
 764 265 764 265 783 448 c 2,3,-1
 863 1209 l 1,4,5
 869 1258 869 1258 869 1302 c 0,6,7
 869 1334 869 1334 866 1364 c 0,8,9
 858 1434 858 1434 834 1485 c 128,-1,10
 810 1536 810 1536 758.5 1564.5 c 128,-1,11
 707 1593 707 1593 630 1593 c 0,12,13
 568 1593 568 1593 519 1574.5 c 128,-1,14
 470 1556 470 1556 435 1523 c 128,-1,15
 400 1490 400 1490 375 1441 c 128,-1,16
 350 1392 350 1392 335.5 1335.5 c 128,-1,17
 321 1279 321 1279 314 1209 c 2,18,-1
 234 448 l 1,19,20
 228 399 228 399 228 355 c 0,21,22
 228 323 228 323 231 293 c 0,23,24
 239 222 239 222 263.5 170.5 c 128,-1,25
 288 119 288 119 339.5 90.5 c 128,-1,26
 391 62 391 62 468 62 c 0,0,1
459 -22 m 0,27,28
 349 -22 349 -22 275 14.5 c 128,-1,29
 201 51 201 51 167 116 c 0,30,31
 133 180 133 180 122 270 c 0,32,33
 117 309 117 309 117 352 c 0,34,35
 117 406 117 406 125 466 c 1,36,-1
 200 1191 l 2,37,38
 212 1303 212 1303 240.5 1388.5 c 128,-1,39
 269 1474 269 1474 319.5 1540.5 c 128,-1,40
 370 1607 370 1607 450.5 1642 c 128,-1,41
 531 1677 531 1677 638 1677 c 128,-1,42
 745 1677 745 1677 818.5 1641.5 c 128,-1,43
 892 1606 892 1606 927.5 1541.5 c 0,44,45
 964 1478 964 1478 976 1388 c 0,46,47
 982 1346 982 1346 981 1299 c 0,48,49
 981 1247 981 1247 974 1191 c 1,50,-1
 898 466 l 2,51,52
 886 353 886 353 859 268.5 c 128,-1,53
 832 184 832 184 782.5 116.5 c 128,-1,54
 733 49 733 49 651.5 13.5 c 128,-1,55
 570 -22 570 -22 459 -22 c 0,27,28
EndSplineSet
Validated: 524321
EndChar

StartChar: one
Encoding: 49 49 20
Width: 825
GlyphClass: 2
Flags: W
LayerCount: 2
UndoRedoHistory
Layer: 1
Undoes
EndUndoes
Redoes
EndRedoes
EndUndoRedoHistory
Fore
SplineSet
385 0 m 1,0,-1
 543 1510 l 1,1,2
 505 1463 505 1463 427 1426 c 128,-1,3
 349 1389 349 1389 290 1372 c 1,4,-1
 301 1466 l 1,5,6
 361 1482 361 1482 440 1535.5 c 128,-1,7
 519 1589 519 1589 574 1658 c 1,8,-1
 667 1658 l 1,9,-1
 493 0 l 1,10,-1
 385 0 l 1,0,-1
EndSplineSet
Validated: 1
EndChar

StartChar: two
Encoding: 50 50 21
Width: 1001
GlyphClass: 2
Flags: W
LayerCount: 2
UndoRedoHistory
Layer: 1
Undoes
EndUndoes
Redoes
EndRedoes
EndUndoRedoHistory
Fore
SplineSet
68 0 m 1,0,-1
 77 82 l 1,1,-1
 611 783 l 1,2,3
 725 931 725 931 763 995 c 0,4,5
 845 1133 845 1133 861 1275 c 1,6,7
 864 1305 864 1305 864 1333 c 0,8,9
 864 1438 864 1438 818 1503 c 0,10,11
 760 1585 760 1585 640 1585 c 0,12,13
 554 1585 554 1585 493.5 1558.5 c 128,-1,14
 433 1532 433 1532 396.5 1480 c 128,-1,15
 360 1428 360 1428 340.5 1365 c 128,-1,16
 321 1302 321 1302 311 1215 c 0,17,18
 310 1213 310 1213 309 1201 c 128,-1,19
 308 1189 308 1189 308 1187 c 1,20,-1
 201 1187 l 1,21,-1
 205 1221 l 1,22,23
 229 1453 229 1453 335.5 1565 c 128,-1,24
 442 1677 442 1677 645 1677 c 0,25,26
 822 1678 822 1678 904 1568 c 0,27,28
 970 1480 970 1480 971 1334 c 0,29,30
 971 1299 971 1299 967 1260 c 0,31,32
 961 1203 961 1203 942 1144.5 c 128,-1,33
 923 1086 923 1086 902 1041 c 128,-1,34
 881 996 881 996 842.5 937 c 128,-1,35
 804 878 804 878 779 843.5 c 128,-1,36
 754 809 754 809 707 748 c 2,37,-1
 203 93 l 1,38,-1
 811 93 l 1,39,-1
 801 0 l 1,40,-1
 68 0 l 1,0,-1
EndSplineSet
Validated: 33
EndChar

StartChar: three
Encoding: 51 51 22
Width: 994
GlyphClass: 2
Flags: W
LayerCount: 2
UndoRedoHistory
Layer: 1
Undoes
EndUndoes
Redoes
EndRedoes
EndUndoRedoHistory
Fore
SplineSet
442 -22 m 0,0,1
 132 -22 132 -22 132 291 c 0,2,3
 132 327 132 327 136 368 c 1,4,-1
 139 399 l 1,5,-1
 242 399 l 1,6,7
 242 398 242 398 240.5 383 c 128,-1,8
 239 368 239 368 238 367 c 0,9,10
 235 333 235 333 235 303 c 0,11,12
 235 201 235 201 274 142 c 0,13,14
 325 66 325 66 452 66 c 0,15,16
 513 66 513 66 562 83.5 c 128,-1,17
 611 101 611 101 653.5 142 c 128,-1,18
 696 183 696 183 724.5 258 c 128,-1,19
 753 333 753 333 764 440 c 0,20,21
 769 488 769 488 769 530 c 0,22,23
 769 816 769 816 537 820 c 1,24,-1
 490 820 l 1,25,-1
 500 915 l 1,26,-1
 546 915 l 1,27,28
 691 916 691 916 761 999.5 c 128,-1,29
 831 1083 831 1083 852 1270 c 1,30,31
 856 1307 856 1307 856 1340 c 0,32,33
 856 1590 856 1590 635 1590 c 0,34,35
 498 1590 498 1590 425.5 1519.5 c 128,-1,36
 353 1449 353 1449 335 1288 c 0,37,38
 335 1286 335 1286 334 1276 c 128,-1,39
 333 1266 333 1266 333 1264 c 1,40,-1
 230 1264 l 1,41,-1
 232 1291 l 1,42,43
 251 1475 251 1475 348.5 1576 c 128,-1,44
 446 1677 446 1677 643 1677 c 0,45,46
 736 1677 736 1677 803.5 1646 c 128,-1,47
 871 1615 871 1615 908 1559 c 0,48,49
 944 1502 944 1502 958 1430 c 0,50,51
 966 1386 966 1386 967 1338 c 0,52,53
 967 1305 967 1305 963 1269 c 0,54,55
 944 1089 944 1089 868.5 987.5 c 128,-1,56
 793 886 793 886 684 865 c 1,57,58
 717 857 717 857 746.5 839 c 128,-1,59
 776 821 776 821 805 788 c 128,-1,60
 834 755 834 755 851.5 708 c 0,61,62
 869 660 869 660 878 594 c 0,63,64
 882 562 882 562 882 527 c 0,65,66
 882 487 882 487 877 443 c 0,67,68
 854 226 854 226 747.5 102 c 128,-1,69
 641 -22 641 -22 442 -22 c 0,0,1
EndSplineSet
Validated: 524289
EndChar

StartChar: four
Encoding: 52 52 23
Width: 1009
GlyphClass: 2
Flags: W
LayerCount: 2
UndoRedoHistory
Layer: 1
Undoes
EndUndoes
Redoes
EndRedoes
EndUndoRedoHistory
Fore
SplineSet
584 0 m 1,0,-1
 638 509 l 1,1,-1
 126 509 l 1,2,-1
 137 614 l 1,3,-1
 740 1658 l 1,4,-1
 867 1658 l 1,5,-1
 758 611 l 1,6,-1
 949 611 l 1,7,-1
 938 509 l 1,8,-1
 747 509 l 1,9,-1
 693 0 l 1,10,-1
 584 0 l 1,0,-1
251 611 m 1,11,-1
 649 611 l 1,12,-1
 742 1500 l 1,13,-1
 251 611 l 1,11,-1
EndSplineSet
Validated: 1
EndChar

StartChar: five
Encoding: 53 53 24
Width: 1000
GlyphClass: 2
Flags: W
LayerCount: 2
UndoRedoHistory
Layer: 1
Undoes
EndUndoes
Redoes
EndRedoes
EndUndoRedoHistory
Fore
SplineSet
470 -19 m 0,0,1
 288 -20 288 -20 215 86 c 0,2,3
 159 166 159 166 159 310 c 0,4,5
 159 355 159 355 165 406 c 1,6,-1
 272 406 l 1,7,8
 267 359 267 359 267 318 c 0,9,10
 268 207 268 207 304 148 c 0,11,12
 354 67 354 67 485 67 c 0,13,14
 628 67 628 67 695.5 169.5 c 128,-1,15
 763 272 763 272 787 507 c 1,16,17
 797 589 797 589 797 654 c 0,18,19
 796 672 796 672 796 688 c 0,20,21
 792 765 792 765 779.5 816 c 128,-1,22
 767 867 767 867 738 898 c 128,-1,23
 709 929 709 929 672 942 c 128,-1,24
 635 955 635 955 582 955 c 0,25,26
 441 955 441 955 334 816 c 1,27,-1
 245 816 l 1,28,-1
 333 1658 l 1,29,-1
 937 1658 l 1,30,-1
 924 1564 l 1,31,-1
 417 1564 l 1,32,-1
 345 920 l 1,33,34
 444 1040 444 1040 620 1040 c 0,35,36
 791 1040 791 1040 857 910 c 0,37,38
 903 818 903 818 903 662 c 0,39,40
 903 596 903 596 895 518 c 0,41,42
 866 241 866 241 763.5 111 c 128,-1,43
 661 -19 661 -19 470 -19 c 0,0,1
EndSplineSet
Validated: 33
EndChar

StartChar: six
Encoding: 54 54 25
Width: 1008
GlyphClass: 2
Flags: W
LayerCount: 2
UndoRedoHistory
Layer: 1
Undoes
EndUndoes
Redoes
EndRedoes
EndUndoRedoHistory
Fore
SplineSet
473 -22 m 0,0,1
 280 -22 280 -22 206 103 c 0,2,3
 151 195 151 195 151 357 c 0,4,5
 151 416 151 416 158 483 c 2,6,-1
 234 1207 l 2,7,8
 284 1677 284 1677 651 1677 c 0,9,10
 833 1677 833 1677 908 1586 c 0,11,12
 968 1513 968 1513 968 1374 c 0,13,14
 968 1341 968 1341 965 1304 c 0,15,16
 965 1303 965 1303 963 1285 c 128,-1,17
 961 1267 961 1267 961 1266 c 1,18,-1
 855 1266 l 1,19,20
 860 1317 860 1317 860 1359 c 0,21,22
 860 1465 860 1465 826 1516 c 0,23,24
 778 1587 778 1587 648 1587 c 0,25,26
 590 1587 590 1587 543 1570 c 128,-1,27
 496 1553 496 1553 454 1514 c 128,-1,28
 412 1475 412 1475 384 1403 c 128,-1,29
 356 1331 356 1331 345 1228 c 2,30,-1
 308 878 l 1,31,32
 364 912 364 912 442.5 939 c 128,-1,33
 521 966 521 966 600 966 c 0,34,35
 803 966 803 966 870 856 c 0,36,37
 916 781 916 781 916 624 c 0,38,39
 916 552 916 552 906 462 c 0,40,41
 881 224 881 224 777 101 c 128,-1,42
 673 -22 673 -22 473 -22 c 0,0,1
483 70 m 0,43,44
 551 70 551 70 600.5 87 c 128,-1,45
 650 104 650 104 690.5 146 c 128,-1,46
 731 188 731 188 756 262.5 c 128,-1,47
 781 337 781 337 792 448 c 1,48,49
 804 550 804 550 804 627 c 0,50,51
 804 667 804 667 801 700 c 0,52,53
 791 796 791 796 737.5 837.5 c 128,-1,54
 684 879 684 879 568 879 c 0,55,56
 501 879 501 879 423 851.5 c 128,-1,57
 345 824 345 824 300 795 c 1,58,-1
 267 485 l 2,59,60
 259 414 259 414 259 356 c 0,61,62
 259 284 259 284 271 233 c 0,63,64
 292 140 292 140 343 105 c 128,-1,65
 394 70 394 70 483 70 c 0,43,44
EndSplineSet
Validated: 1
EndChar

StartChar: seven
Encoding: 55 55 26
Width: 946
GlyphClass: 2
Flags: W
LayerCount: 2
UndoRedoHistory
Layer: 1
Undoes
EndUndoes
Redoes
EndRedoes
EndUndoRedoHistory
Fore
SplineSet
312 0 m 1,0,-1
 814 1568 l 1,1,-1
 277 1568 l 1,2,-1
 286 1658 l 1,3,-1
 936 1658 l 1,4,-1
 930 1604 l 1,5,-1
 419 0 l 1,6,-1
 312 0 l 1,0,-1
EndSplineSet
Validated: 1
EndChar

StartChar: eight
Encoding: 56 56 27
Width: 1001
GlyphClass: 2
Flags: W
LayerCount: 2
UndoRedoHistory
Layer: 1
Undoes
EndUndoes
Redoes
EndRedoes
EndUndoRedoHistory
Fore
SplineSet
456 -23 m 0,0,1
 120 -23 120 -23 120 335 c 0,2,3
 120 380 120 380 125 432 c 0,4,5
 132 500 132 500 147.5 557 c 128,-1,6
 163 614 163 614 180.5 654 c 128,-1,7
 198 694 198 694 225 728 c 128,-1,8
 252 762 252 762 273 781.5 c 128,-1,9
 294 801 294 801 327.5 820 c 128,-1,10
 361 839 361 839 379 847 c 128,-1,11
 397 855 397 855 429 868 c 1,12,13
 318 902 318 902 264 1002 c 0,14,15
 223 1078 223 1078 223 1192 c 0,16,17
 223 1228 223 1228 227 1267 c 0,18,19
 236 1357 236 1357 262.5 1428.5 c 128,-1,20
 289 1500 289 1500 336 1557.5 c 128,-1,21
 383 1615 383 1615 458.5 1646 c 128,-1,22
 534 1677 534 1677 634 1677 c 128,-1,23
 734 1677 734 1677 803 1645 c 128,-1,24
 872 1613 872 1613 907 1555 c 0,25,26
 942 1496 942 1496 954 1424 c 0,27,28
 960 1385 960 1385 960 1342 c 0,29,30
 960 1304 960 1304 955 1262 c 0,31,32
 938 1099 938 1099 863.5 1001 c 128,-1,33
 789 903 789 903 670 868 c 1,34,35
 690 859 690 859 701.5 853.5 c 128,-1,36
 713 848 713 848 733.5 837 c 128,-1,37
 754 826 754 826 766.5 816 c 128,-1,38
 779 806 779 806 797.5 790 c 128,-1,39
 816 774 816 774 826.5 756 c 128,-1,40
 837 738 837 738 850.5 714.5 c 128,-1,41
 864 691 864 691 870.5 662 c 0,42,43
 876 633 876 633 882 599 c 0,44,45
 887 568 887 568 888 530 c 0,46,47
 888 526 888 526 888 522 c 0,48,49
 888 480 888 480 882 432 c 0,50,51
 834 -23 834 -23 456 -23 c 0,0,1
465 66 m 128,-1,53
 596 66 596 66 674.5 151.5 c 128,-1,54
 753 237 753 237 773 434 c 1,55,56
 778 481 778 481 778 522 c 0,57,58
 778 638 778 638 739 708 c 0,59,60
 686 804 686 804 545 821 c 1,61,62
 399 804 399 804 325.5 707.5 c 128,-1,63
 252 611 252 611 233 434 c 0,64,65
 228 384 228 384 228 340 c 0,66,67
 228 216 228 216 273 152 c 0,68,52
 334 66 334 66 465 66 c 128,-1,53
555 916 m 1,69,70
 694 925 694 925 762.5 1013.5 c 128,-1,71
 831 1102 831 1102 848 1263 c 0,72,73
 852 1304 852 1304 852 1339 c 0,74,75
 852 1448 852 1448 810 1508 c 0,76,77
 754 1586 754 1586 625 1586 c 0,78,79
 494 1586 494 1586 422.5 1507.5 c 128,-1,80
 351 1429 351 1429 334 1263 c 0,81,82
 330 1222 330 1222 330 1186 c 0,83,84
 330 1079 330 1079 367 1013 c 0,85,86
 417 925 417 925 555 916 c 1,69,70
EndSplineSet
Validated: 524289
EndChar

StartChar: nine
Encoding: 57 57 28
Width: 1008
GlyphClass: 2
Flags: W
LayerCount: 2
UndoRedoHistory
Layer: 1
Undoes
EndUndoes
Redoes
EndRedoes
EndUndoRedoHistory
Fore
SplineSet
471 -22 m 0,0,1
 288 -22 288 -22 209 70 c 0,2,3
 145 144 145 144 145 282 c 0,4,5
 145 315 145 315 149 352 c 0,6,7
 149 353 149 353 151 371 c 2,8,-1
 153 389 l 1,9,-1
 258 389 l 1,10,11
 253 339 253 339 253 297 c 0,12,13
 252 188 252 188 288 138 c 0,14,15
 338 68 338 68 483 68 c 0,16,17
 543 68 543 68 587.5 84.5 c 128,-1,18
 632 101 632 101 670 141 c 128,-1,19
 708 181 708 181 732.5 252 c 128,-1,20
 757 323 757 323 768 427 c 2,21,-1
 805 776 l 1,22,23
 761 742 761 742 687 715.5 c 128,-1,24
 613 689 613 689 514 689 c 0,25,26
 311 689 311 689 244 799 c 0,27,28
 198 875 198 875 198 1034 c 0,29,30
 198 1105 198 1105 207 1193 c 0,31,32
 232 1431 232 1431 337 1554 c 128,-1,33
 442 1677 442 1677 643 1677 c 0,34,35
 834 1677 834 1677 908 1552 c 0,36,37
 962 1461 962 1461 962 1300 c 0,38,39
 962 1241 962 1241 955 1172 c 2,40,-1
 879 448 l 2,41,42
 855 219 855 219 757.5 98.5 c 128,-1,43
 660 -22 660 -22 471 -22 c 0,0,1
546 776 m 0,44,45
 698 776 698 776 814 860 c 1,46,-1
 846 1170 l 2,47,48
 854 1244 854 1244 854 1303 c 0,49,50
 854 1372 854 1372 843 1422 c 0,51,52
 823 1514 823 1514 772.5 1549.5 c 128,-1,53
 722 1585 722 1585 633 1585 c 0,54,55
 496 1585 496 1585 419.5 1499.5 c 128,-1,56
 343 1414 343 1414 321 1207 c 1,57,58
 309 1107 309 1107 309 1031 c 0,59,60
 308 989 308 989 312 955 c 0,61,62
 322 859 322 859 376 817.5 c 128,-1,63
 430 776 430 776 546 776 c 0,44,45
EndSplineSet
Validated: 33
EndChar

StartChar: colon
Encoding: 58 58 29
Width: 392
GlyphClass: 2
Flags: W
LayerCount: 2
UndoRedoHistory
Layer: 1
Undoes
EndUndoes
Redoes
EndRedoes
EndUndoRedoHistory
Fore
SplineSet
127 155 m 1,0,-1
 150 365 l 1,1,-1
 270 365 l 1,2,-1
 248 155 l 1,3,-1
 127 155 l 1,0,-1
203 877 m 1,4,-1
 226 1088 l 1,5,-1
 346 1088 l 1,6,-1
 324 877 l 1,7,-1
 203 877 l 1,4,-1
EndSplineSet
Validated: 1
EndChar

StartChar: semicolon
Encoding: 59 59 30
Width: 417
GlyphClass: 2
Flags: W
LayerCount: 2
UndoRedoHistory
Layer: 1
Undoes
EndUndoes
Redoes
EndRedoes
EndUndoRedoHistory
Fore
SplineSet
120 -34 m 1,0,-1
 97 13 l 1,1,2
 153 47 153 47 173 79.5 c 128,-1,3
 193 112 193 112 200 175 c 1,4,-1
 129 175 l 1,5,-1
 149 373 l 1,6,-1
 279 373 l 1,7,-1
 261 198 l 2,8,9
 251 101 251 101 221 50 c 128,-1,10
 191 -1 191 -1 120 -34 c 1,0,-1
204 896 m 1,11,-1
 227 1109 l 1,12,-1
 348 1109 l 1,13,-1
 325 896 l 1,14,-1
 204 896 l 1,11,-1
EndSplineSet
Validated: 1
EndChar

StartChar: less
Encoding: 60 60 31
Width: 732
GlyphClass: 2
Flags: W
LayerCount: 2
UndoRedoHistory
Layer: 1
Undoes
EndUndoes
Redoes
EndRedoes
EndUndoRedoHistory
Fore
SplineSet
589 157 m 1,0,-1
 77 577 l 1,1,-1
 88 683 l 1,2,-1
 690 1120 l 1,3,-1
 678 1003 l 1,4,-1
 168 630 l 1,5,-1
 601 272 l 1,6,-1
 589 157 l 1,0,-1
EndSplineSet
Validated: 1
EndChar

StartChar: equal
Encoding: 61 61 32
Width: 802
GlyphClass: 2
Flags: W
LayerCount: 2
UndoRedoHistory
Layer: 1
Undoes
EndUndoes
Redoes
EndRedoes
EndUndoRedoHistory
Fore
SplineSet
120 590 m 1,0,-1
 129 682 l 1,1,-1
 730 682 l 1,2,-1
 721 590 l 1,3,-1
 120 590 l 1,0,-1
154 923 m 1,4,-1
 164 1014 l 1,5,-1
 765 1014 l 1,6,-1
 755 923 l 1,7,-1
 154 923 l 1,4,-1
EndSplineSet
Validated: 1
EndChar

StartChar: greater
Encoding: 62 62 33
Width: 732
GlyphClass: 2
Flags: W
LayerCount: 2
UndoRedoHistory
Layer: 1
Undoes
EndUndoes
Redoes
EndRedoes
EndUndoRedoHistory
Fore
SplineSet
91 157 m 1,0,-1
 103 273 l 1,1,-1
 613 647 l 1,2,-1
 180 1005 l 1,3,-1
 193 1120 l 1,4,-1
 705 699 l 1,5,-1
 694 594 l 1,6,-1
 91 157 l 1,0,-1
EndSplineSet
Validated: 1
EndChar

StartChar: question
Encoding: 63 63 34
Width: 955
GlyphClass: 2
Flags: W
LayerCount: 2
UndoRedoHistory
Layer: 1
Undoes
EndUndoes
Redoes
EndRedoes
EndUndoRedoHistory
Fore
SplineSet
371 410 m 1,0,-1
 397 661 l 1,1,2
 614 796 614 796 715.5 934.5 c 128,-1,3
 817 1073 817 1073 835 1245 c 0,4,5
 838 1276 838 1276 838 1305 c 0,6,7
 838 1355 838 1355 828 1397 c 0,8,9
 812 1464 812 1464 777.5 1503.5 c 128,-1,10
 743 1543 743 1543 697 1563.5 c 128,-1,11
 651 1584 651 1584 596 1584 c 0,12,13
 466 1584 466 1584 389 1513 c 0,14,15
 325 1454 325 1454 325 1356 c 0,16,17
 325 1336 325 1336 328 1314 c 1,18,-1
 336 1241 l 1,19,-1
 237 1217 l 1,20,-1
 228 1292 l 1,21,22
 224 1323 224 1323 224 1353 c 0,23,24
 224 1410 224 1410 240 1460 c 0,25,26
 266 1536 266 1536 320.5 1582.5 c 128,-1,27
 375 1629 375 1629 448.5 1654 c 128,-1,28
 522 1679 522 1679 607 1679 c 0,29,30
 769 1679 769 1679 865 1567 c 0,31,32
 943 1476 943 1476 943 1319 c 0,33,34
 943 1283 943 1283 939 1244 c 0,35,36
 925 1112 925 1112 869 1003 c 128,-1,37
 813 894 813 894 722 807.5 c 128,-1,38
 631 721 631 721 489 630 c 1,39,-1
 466 410 l 1,40,-1
 371 410 l 1,0,-1
323 1 m 1,41,-1
 339 150 l 1,42,-1
 446 150 l 1,43,-1
 430 1 l 1,44,-1
 323 1 l 1,41,-1
EndSplineSet
Validated: 1
EndChar

StartChar: at
Encoding: 64 64 35
Width: 1649
GlyphClass: 2
Flags: W
LayerCount: 2
UndoRedoHistory
Layer: 1
Undoes
EndUndoes
Redoes
EndRedoes
EndUndoRedoHistory
Fore
SplineSet
843 -203 m 0,0,1
 139 -203 139 -203 139 505 c 0,2,3
 139 588 139 588 149 680 c 0,4,5
 174 923 174 923 255.5 1112.5 c 128,-1,6
 337 1302 337 1302 456 1418.5 c 128,-1,7
 575 1535 575 1535 718.5 1595 c 128,-1,8
 862 1655 862 1655 1022 1657 c 0,9,10
 1027 1657 1027 1657 1032 1657 c 0,11,12
 1385 1657 1385 1657 1528 1448 c 0,13,14
 1629 1300 1629 1300 1629 1048 c 0,15,16
 1629 939 1629 939 1610 810 c 0,17,18
 1590 679 1590 679 1548.5 578.5 c 128,-1,19
 1507 478 1507 478 1459 421 c 128,-1,20
 1411 364 1411 364 1353.5 327.5 c 128,-1,21
 1296 291 1296 291 1250.5 279.5 c 128,-1,22
 1205 268 1205 268 1163 268 c 0,23,24
 1094 268 1094 268 1048 318 c 0,25,26
 1014 355 1014 355 1013 413 c 0,27,28
 1013 434 1013 434 1018 458 c 1,29,30
 973 371 973 371 905 314.5 c 128,-1,31
 837 258 837 258 753 256 c 0,32,33
 748 256 748 256 743 256 c 0,34,35
 626 256 626 256 562 344 c 0,36,37
 511 417 511 417 511 539 c 0,38,39
 511 573 511 573 515 610 c 0,40,41
 530 747 530 747 583 867 c 128,-1,42
 636 987 636 987 710 1067 c 128,-1,43
 784 1147 784 1147 872.5 1193 c 128,-1,44
 961 1239 961 1239 1047 1239 c 0,45,46
 1130 1239 1130 1239 1192 1187 c 1,47,-1
 1213 1229 l 1,48,-1
 1295 1229 l 1,49,-1
 1129 543 l 1,50,51
 1118 492 1118 492 1114 461.5 c 128,-1,52
 1110 431 1110 431 1114 401.5 c 128,-1,53
 1118 372 1118 372 1137 358.5 c 128,-1,54
 1156 345 1156 345 1191 345 c 0,55,56
 1221 345 1221 345 1253.5 355.5 c 128,-1,57
 1286 366 1286 366 1327.5 397 c 128,-1,58
 1369 428 1369 428 1404 477 c 128,-1,59
 1439 526 1439 526 1470 611 c 128,-1,60
 1501 696 1501 696 1518 805 c 0,61,62
 1537 931 1537 931 1538 1035 c 0,63,64
 1538 1041 1538 1041 1538 1047 c 0,65,66
 1538 1143 1538 1143 1523 1218 c 0,67,68
 1507 1297 1507 1297 1474.5 1357.5 c 128,-1,69
 1442 1418 1442 1418 1397 1459 c 128,-1,70
 1352 1500 1352 1500 1291 1525.5 c 0,71,72
 1230 1552 1230 1552 1162 1562 c 0,73,74
 1099 1572 1099 1572 1025 1571 c 0,75,76
 1018 1571 1018 1571 1011 1571 c 0,77,78
 868 1569 868 1569 741 1509.5 c 128,-1,79
 614 1450 614 1450 512 1340 c 128,-1,80
 410 1230 410 1230 341.5 1061 c 128,-1,81
 273 892 273 892 251 681 c 0,82,83
 242 595 242 595 242 519 c 0,84,85
 242 417 242 417 258 332 c 0,86,87
 286 183 286 183 343 99 c 128,-1,88
 400 15 400 15 491.5 -36 c 128,-1,89
 583 -87 583 -87 668.5 -102.5 c 128,-1,90
 754 -118 754 -118 859 -118 c 0,91,92
 1039 -118 1039 -118 1243 -67 c 1,93,-1
 1263 -147 l 1,94,95
 1003 -203 1003 -203 843 -203 c 0,0,1
773 340 m 1,96,97
 847 342 847 342 915 404.5 c 128,-1,98
 983 467 983 467 1033 576 c 1,99,-1
 1166 1117 l 1,100,101
 1117 1154 1117 1154 1050 1154 c 128,-1,102
 983 1154 983 1154 913.5 1116 c 128,-1,103
 844 1078 844 1078 783.5 1010.5 c 128,-1,104
 723 943 723 943 679 837.5 c 128,-1,105
 635 732 635 732 622 608 c 0,106,107
 618 573 618 573 618 542 c 0,108,109
 618 506 618 506 624 476 c 0,110,111
 634 420 634 420 657 391 c 128,-1,112
 680 362 680 362 709 350 c 0,113,114
 734 340 734 340 763 340 c 0,115,116
 768 340 768 340 773 340 c 1,96,97
EndSplineSet
Validated: 524321
EndChar

StartChar: A
Encoding: 65 65 36
Width: 959
GlyphClass: 2
Flags: W
AnchorPoint: "Anchor-0" 831 0 basechar 0
LayerCount: 2
UndoRedoHistory
Layer: 1
Undoes
EndUndoes
Redoes
EndRedoes
EndUndoRedoHistory
Fore
SplineSet
23 0 m 1,0,-1
 546 1658 l 1,1,-1
 674 1658 l 1,2,-1
 850 0 l 1,3,-1
 738 0 l 1,4,-1
 701 458 l 1,5,-1
 270 458 l 1,6,-1
 133 0 l 1,7,-1
 23 0 l 1,0,-1
296 541 m 1,8,-1
 694 541 l 1,9,-1
 596 1523 l 1,10,-1
 296 541 l 1,8,-1
EndSplineSet
Validated: 1048577
EndChar

StartChar: B
Encoding: 66 66 37
Width: 1000
GlyphClass: 2
Flags: W
LayerCount: 2
UndoRedoHistory
Layer: 1
Undoes
EndUndoes
Redoes
EndRedoes
EndUndoRedoHistory
Fore
SplineSet
110 0 m 1,0,-1
 284 1658 l 1,1,-1
 626 1658 l 2,2,3
 715 1658 715 1658 781 1637 c 128,-1,4
 847 1616 847 1616 885 1578.5 c 128,-1,5
 923 1541 923 1541 945.5 1489.5 c 128,-1,6
 968 1438 968 1438 970 1376 c 0,7,8
 971 1358 971 1358 971 1341 c 0,9,10
 971 1295 971 1295 967 1245 c 1,11,12
 961 1189 961 1189 947.5 1138.5 c 128,-1,13
 934 1088 934 1088 908.5 1036 c 128,-1,14
 883 984 883 984 838.5 946 c 128,-1,15
 794 908 794 908 736 894 c 1,16,17
 790 878 790 878 829 843.5 c 128,-1,18
 868 809 868 809 887.5 767 c 128,-1,19
 907 725 907 725 918 675 c 0,20,21
 928 631 928 631 928 589 c 0,22,23
 928 583 928 583 928 577 c 0,24,25
 926 529 926 529 923 483 c 1,26,27
 914 400 914 400 900 336 c 128,-1,28
 886 272 886 272 855.5 206 c 128,-1,29
 825 140 825 140 781 97 c 128,-1,30
 737 54 737 54 666.5 27 c 128,-1,31
 596 0 596 0 503 0 c 2,32,-1
 110 0 l 1,0,-1
232 88 m 1,33,-1
 498 88 l 2,34,35
 580 88 580 88 636 111 c 128,-1,36
 692 134 692 134 728 185 c 128,-1,37
 764 236 764 236 783.5 306 c 128,-1,38
 803 376 803 376 814 482 c 0,39,40
 819 527 819 527 819 567 c 0,41,42
 819 843 819 843 592 843 c 2,43,-1
 311 843 l 1,44,-1
 232 88 l 1,33,-1
320 931 m 1,45,-1
 599 931 l 2,46,47
 666 931 666 931 715 955 c 128,-1,48
 764 979 764 979 794 1024.5 c 128,-1,49
 824 1070 824 1070 840 1123 c 128,-1,50
 856 1176 856 1176 864 1245 c 1,51,52
 870 1283 870 1283 870 1319 c 0,53,54
 870 1348 870 1348 866 1374 c 0,55,56
 858 1434 858 1434 832.5 1477 c 128,-1,57
 807 1520 807 1520 746.5 1544.5 c 128,-1,58
 686 1569 686 1569 592 1569 c 2,59,-1
 387 1569 l 1,60,-1
 320 931 l 1,45,-1
EndSplineSet
Validated: 1
EndChar

StartChar: C
Encoding: 67 67 38
Width: 1001
GlyphClass: 2
Flags: W
AnchorPoint: "Anchor-1" 480 0 basechar 0
LayerCount: 2
UndoRedoHistory
Layer: 1
Undoes
EndUndoes
Redoes
EndRedoes
EndUndoRedoHistory
Fore
SplineSet
477 -22 m 0,0,1
 381 -22 381 -22 311.5 3.5 c 128,-1,2
 242 29 242 29 203 74 c 128,-1,3
 164 119 164 119 142.5 182 c 0,4,5
 121 246 121 246 120 320 c 0,6,7
 120 329 120 329 120 338 c 0,8,9
 120 404 120 404 126 478 c 1,10,-1
 200 1181 l 2,11,12
 209 1271 209 1271 228 1343 c 128,-1,13
 247 1415 247 1415 282 1479 c 128,-1,14
 317 1543 317 1543 366.5 1585.5 c 128,-1,15
 416 1628 416 1628 489 1652.5 c 128,-1,16
 562 1677 562 1677 656 1677 c 0,17,18
 762 1677 762 1677 833.5 1643.5 c 128,-1,19
 905 1610 905 1610 940 1549 c 128,-1,20
 975 1488 975 1488 987 1402 c 0,21,22
 993 1361 993 1361 993 1315 c 0,23,24
 993 1265 993 1265 986 1210 c 1,25,-1
 977 1126 l 1,26,-1
 871 1126 l 1,27,-1
 880 1211 l 1,28,29
 887 1266 887 1266 887 1314 c 0,30,31
 886 1342 886 1342 884 1368 c 0,32,33
 878 1438 878 1438 854.5 1486.5 c 128,-1,34
 831 1535 831 1535 779.5 1560.5 c 128,-1,35
 728 1586 728 1586 648 1586 c 0,36,37
 560 1586 560 1586 498 1558.5 c 128,-1,38
 436 1531 436 1531 399 1476 c 128,-1,39
 362 1421 362 1421 343 1354.5 c 128,-1,40
 324 1288 324 1288 314 1194 c 2,41,-1
 237 460 l 1,42,43
 230 404 230 404 230 355 c 0,44,45
 230 324 230 324 233 296 c 0,46,47
 240 224 240 224 266 173.5 c 128,-1,48
 292 123 292 123 347.5 96.5 c 128,-1,49
 403 70 403 70 488 70 c 0,50,51
 568 70 568 70 625.5 96 c 128,-1,52
 683 122 683 122 717.5 174 c 128,-1,53
 752 226 752 226 770.5 290.5 c 128,-1,54
 789 355 789 355 799 446 c 2,55,-1
 809 546 l 1,56,-1
 915 546 l 1,57,-1
 907 464 l 2,58,59
 896 352 896 352 869.5 268 c 128,-1,60
 843 184 843 184 794 116 c 128,-1,61
 745 48 745 48 665.5 13 c 128,-1,62
 586 -22 586 -22 477 -22 c 0,0,1
EndSplineSet
Validated: 1572865
EndChar

StartChar: D
Encoding: 68 68 39
Width: 1059
GlyphClass: 2
Flags: W
LayerCount: 2
UndoRedoHistory
Layer: 1
Undoes
EndUndoes
Redoes
EndRedoes
EndUndoRedoHistory
Fore
SplineSet
232 88 m 1,0,-1
 488 88 l 2,1,2
 553 88 553 88 605 102.5 c 128,-1,3
 657 117 657 117 693 146.5 c 128,-1,4
 729 176 729 176 754.5 212 c 128,-1,5
 780 248 780 248 797 298 c 128,-1,6
 814 348 814 348 823 396 c 128,-1,7
 832 444 832 444 839 506 c 2,8,-1
 909 1173 l 1,9,10
 916 1229 916 1229 916 1278 c 0,11,12
 916 1310 916 1310 914 1338 c 0,13,14
 906 1412 906 1412 878.5 1463 c 128,-1,15
 851 1514 851 1514 791 1541.5 c 128,-1,16
 731 1569 731 1569 638 1569 c 2,17,-1
 387 1569 l 1,18,-1
 232 88 l 1,0,-1
110 0 m 1,19,-1
 284 1658 l 1,20,-1
 648 1658 l 2,21,22
 745 1658 745 1658 816.5 1634 c 128,-1,23
 888 1610 888 1610 930 1567 c 128,-1,24
 972 1524 972 1524 997.5 1464.5 c 0,25,26
 1023 1406 1023 1406 1026 1334 c 0,27,28
 1027 1313 1027 1313 1027 1290 c 0,29,30
 1027 1238 1027 1238 1022 1182 c 1,31,-1
 950 494 l 2,32,33
 938 381 938 381 909 295 c 128,-1,34
 880 209 880 209 826.5 140.5 c 128,-1,35
 773 72 773 72 687 36 c 128,-1,36
 601 0 601 0 484 0 c 2,37,-1
 110 0 l 1,19,-1
EndSplineSet
Validated: 524289
EndChar

StartChar: E
Encoding: 69 69 40
Width: 804
GlyphClass: 2
Flags: W
AnchorPoint: "Anchor-0" 511 0 basechar 0
LayerCount: 2
UndoRedoHistory
Layer: 1
Undoes
EndUndoes
Redoes
EndRedoes
EndUndoRedoHistory
Fore
SplineSet
109 0 m 1,0,-1
 283 1658 l 1,1,-1
 857 1658 l 1,2,-1
 848 1569 l 1,3,-1
 386 1569 l 1,4,-1
 316 904 l 1,5,-1
 695 904 l 1,6,-1
 687 817 l 1,7,-1
 308 817 l 1,8,-1
 231 88 l 1,9,-1
 698 88 l 1,10,-1
 688 0 l 1,11,-1
 109 0 l 1,0,-1
EndSplineSet
Validated: 1048577
EndChar

StartChar: F
Encoding: 70 70 41
Width: 784
GlyphClass: 2
Flags: W
LayerCount: 2
UndoRedoHistory
Layer: 1
Undoes
EndUndoes
Redoes
EndRedoes
EndUndoRedoHistory
Fore
SplineSet
110 0 m 1,0,-1
 284 1658 l 1,1,-1
 856 1658 l 1,2,-1
 847 1570 l 1,3,-1
 387 1570 l 1,4,-1
 317 904 l 1,5,-1
 714 904 l 1,6,-1
 705 817 l 1,7,-1
 309 817 l 1,8,-1
 222 0 l 1,9,-1
 110 0 l 1,0,-1
EndSplineSet
Validated: 1
EndChar

StartChar: G
Encoding: 71 71 42
Width: 1045
GlyphClass: 2
Flags: W
LayerCount: 2
UndoRedoHistory
Layer: 1
Undoes
EndUndoes
Redoes
EndRedoes
EndUndoRedoHistory
Fore
SplineSet
472 -23 m 0,0,1
 357 -23 357 -23 280.5 14.5 c 128,-1,2
 204 52 204 52 169 119.5 c 0,3,4
 134 188 134 188 122 280 c 0,5,6
 117 320 117 320 118 363 c 0,7,8
 118 419 118 419 126 481 c 1,9,-1
 200 1185 l 2,10,11
 212 1301 212 1301 240 1386 c 128,-1,12
 268 1471 268 1471 319.5 1539 c 128,-1,13
 371 1607 371 1607 455 1642 c 128,-1,14
 539 1677 539 1677 656 1677 c 0,15,16
 862 1677 862 1677 938 1556 c 0,17,18
 995 1465 995 1465 994 1312 c 0,19,20
 994 1261 994 1261 988 1204 c 1,21,-1
 982 1146 l 1,22,-1
 877 1146 l 1,23,-1
 884 1211 l 2,24,25
 890 1265 890 1265 890 1311 c 0,26,27
 890 1428 890 1428 853 1494 c 0,28,29
 802 1586 802 1586 648 1586 c 0,30,31
 576 1586 576 1586 521.5 1566.5 c 128,-1,32
 467 1547 467 1547 431.5 1514 c 128,-1,33
 396 1481 396 1481 371 1429 c 128,-1,34
 346 1377 346 1377 333.5 1320.5 c 128,-1,35
 321 1264 321 1264 313 1189 c 2,36,-1
 237 467 l 1,37,38
 229 410 229 410 229 359 c 0,39,40
 229 330 229 330 232 303 c 0,41,42
 239 230 239 230 264.5 178 c 128,-1,43
 290 126 290 126 346 98 c 128,-1,44
 402 70 402 70 489 70 c 0,45,46
 645 70 645 70 716.5 167.5 c 128,-1,47
 788 265 788 265 809 460 c 1,48,-1
 834 704 l 1,49,-1
 571 704 l 1,50,-1
 580 790 l 1,51,-1
 949 790 l 1,52,-1
 866 0 l 1,53,-1
 793 0 l 1,54,-1
 796 186 l 1,55,56
 709 -23 709 -23 472 -23 c 0,0,1
EndSplineSet
Validated: 524321
EndChar

StartChar: H
Encoding: 72 72 43
Width: 1109
GlyphClass: 2
Flags: W
LayerCount: 2
UndoRedoHistory
Layer: 1
Undoes
EndUndoes
Redoes
EndRedoes
EndUndoRedoHistory
Fore
SplineSet
109 0 m 1,0,-1
 283 1658 l 1,1,-1
 396 1658 l 1,2,-1
 317 911 l 1,3,-1
 898 911 l 1,4,-1
 976 1658 l 1,5,-1
 1088 1658 l 1,6,-1
 914 0 l 1,7,-1
 802 0 l 1,8,-1
 889 826 l 1,9,-1
 309 826 l 1,10,-1
 222 0 l 1,11,-1
 109 0 l 1,0,-1
EndSplineSet
Validated: 1
EndChar

StartChar: I
Encoding: 73 73 44
Width: 422
GlyphClass: 2
Flags: W
AnchorPoint: "Anchor-0" 220 0 basechar 0
LayerCount: 2
UndoRedoHistory
Layer: 1
Undoes
EndUndoes
Redoes
EndRedoes
EndUndoRedoHistory
Fore
SplineSet
113 0 m 1,0,-1
 287 1658 l 1,1,-1
 398 1658 l 1,2,-1
 224 0 l 1,3,-1
 113 0 l 1,0,-1
EndSplineSet
Validated: 1048577
EndChar

StartChar: J
Encoding: 74 74 45
Width: 543
GlyphClass: 2
Flags: W
AnchorPoint: "Anchor-2" 338 1658 basechar 0
LayerCount: 2
UndoRedoHistory
Layer: 1
Undoes
EndUndoes
Redoes
EndRedoes
EndUndoRedoHistory
Fore
SplineSet
-36 -92 m 1,0,-1
 -27 -5 l 1,1,2
 37 -5 37 -5 78 -1 c 128,-1,3
 119 3 119 3 151.5 18 c 128,-1,4
 184 33 184 33 201.5 51.5 c 128,-1,5
 219 70 219 70 233 110 c 128,-1,6
 247 150 247 150 253 192 c 128,-1,7
 259 234 259 234 267 308 c 2,8,-1
 409 1658 l 1,9,-1
 521 1658 l 1,10,-1
 379 294 l 2,11,12
 369 207 369 207 357 151 c 128,-1,13
 345 95 345 95 321 44.5 c 128,-1,14
 297 -6 297 -6 259.5 -33.5 c 128,-1,15
 222 -61 222 -61 163.5 -76.5 c 128,-1,16
 105 -92 105 -92 22 -92 c 2,17,-1
 -36 -92 l 1,0,-1
EndSplineSet
Validated: 1048577
EndChar

StartChar: K
Encoding: 75 75 46
Width: 942
GlyphClass: 2
Flags: W
LayerCount: 2
UndoRedoHistory
Layer: 1
Undoes
EndUndoes
Redoes
EndRedoes
EndUndoRedoHistory
Fore
SplineSet
109 0 m 1,0,-1
 283 1658 l 1,1,-1
 396 1658 l 1,2,-1
 298 728 l 1,3,-1
 877 1658 l 1,4,-1
 987 1658 l 1,5,-1
 563 957 l 1,6,-1
 898 0 l 1,7,-1
 786 0 l 1,8,-1
 476 889 l 1,9,-1
 284 594 l 1,10,-1
 222 0 l 1,11,-1
 109 0 l 1,0,-1
EndSplineSet
Validated: 1
EndChar

StartChar: L
Encoding: 76 76 47
Width: 764
GlyphClass: 2
Flags: W
LayerCount: 2
UndoRedoHistory
Layer: 1
Undoes
EndUndoes
Redoes
EndRedoes
EndUndoRedoHistory
Fore
SplineSet
110 0 m 1,0,-1
 284 1658 l 1,1,-1
 396 1658 l 1,2,-1
 232 88 l 1,3,-1
 732 88 l 1,4,-1
 723 0 l 1,5,-1
 110 0 l 1,0,-1
EndSplineSet
Validated: 1
EndChar

StartChar: M
Encoding: 77 77 48
Width: 1294
GlyphClass: 2
Flags: W
LayerCount: 2
UndoRedoHistory
Layer: 1
Undoes
EndUndoes
Redoes
EndRedoes
EndUndoRedoHistory
Fore
SplineSet
90 0 m 1,0,-1
 314 1658 l 1,1,-1
 423 1658 l 1,2,-1
 619 162 l 1,3,-1
 1130 1658 l 1,4,-1
 1246 1658 l 1,5,-1
 1119 0 l 1,6,-1
 1022 0 l 1,7,-1
 1128 1391 l 1,8,-1
 644 0 l 1,9,-1
 562 0 l 1,10,-1
 374 1388 l 1,11,-1
 187 0 l 1,12,-1
 90 0 l 1,0,-1
EndSplineSet
Validated: 1
EndChar

StartChar: N
Encoding: 78 78 49
Width: 1055
GlyphClass: 2
Flags: W
LayerCount: 2
UndoRedoHistory
Layer: 1
Undoes
EndUndoes
Redoes
EndRedoes
EndUndoRedoHistory
Fore
SplineSet
110 0 m 1,0,-1
 284 1658 l 1,1,-1
 374 1658 l 1,2,-1
 788 258 l 1,3,-1
 936 1658 l 1,4,-1
 1034 1658 l 1,5,-1
 860 0 l 1,6,-1
 772 0 l 1,7,-1
 357 1403 l 1,8,-1
 209 0 l 1,9,-1
 110 0 l 1,0,-1
EndSplineSet
Validated: 1
EndChar

StartChar: O
Encoding: 79 79 50
Width: 1058
GlyphClass: 2
Flags: W
AnchorPoint: "Anchor-0" 581 0 basechar 0
LayerCount: 2
UndoRedoHistory
Layer: 1
Undoes
EndUndoes
Redoes
EndRedoes
EndUndoRedoHistory
Fore
SplineSet
492 70 m 0,0,1
 562 70 562 70 616.5 88 c 128,-1,2
 671 106 671 106 707.5 137.5 c 128,-1,3
 744 169 744 169 769.5 217.5 c 128,-1,4
 795 266 795 266 808.5 321 c 128,-1,5
 822 376 822 376 829 447 c 2,6,-1
 909 1212 l 1,7,8
 916 1262 916 1262 916 1307 c 0,9,10
 916 1337 916 1337 912 1365 c 0,11,12
 904 1434 904 1434 879 1483 c 128,-1,13
 854 1532 854 1532 797 1559 c 128,-1,14
 740 1586 740 1586 652 1586 c 0,15,16
 582 1586 582 1586 528 1568.5 c 128,-1,17
 474 1551 474 1551 438 1520 c 128,-1,18
 402 1489 402 1489 376.5 1441 c 128,-1,19
 351 1393 351 1393 337.5 1338 c 128,-1,20
 324 1283 324 1283 316 1212 c 2,21,-1
 236 447 l 1,22,23
 229 397 229 397 229 352 c 0,24,25
 228 322 228 322 232 294 c 0,26,27
 240 224 240 224 266 174.5 c 128,-1,28
 292 125 292 125 348.5 97.5 c 128,-1,29
 405 70 405 70 492 70 c 0,0,1
483 -22 m 128,-1,31
 388 -22 388 -22 318.5 2 c 128,-1,32
 249 26 249 26 208.5 70 c 128,-1,33
 168 114 168 114 145 175.5 c 0,34,35
 122 238 122 238 120 312 c 0,36,37
 120 329 120 329 120 345 c 0,38,39
 120 405 120 405 125 472 c 1,40,-1
 202 1196 l 2,41,42
 211 1284 211 1284 230.5 1354.5 c 128,-1,43
 250 1425 250 1425 286 1486.5 c 128,-1,44
 322 1548 322 1548 372.5 1589 c 128,-1,45
 423 1630 423 1630 496 1653.5 c 128,-1,46
 569 1677 569 1677 661.5 1677 c 128,-1,47
 754 1677 754 1677 822.5 1654 c 128,-1,48
 891 1631 891 1631 932 1588.5 c 128,-1,49
 973 1546 973 1546 997.5 1486.5 c 128,-1,50
 1022 1427 1022 1427 1026 1354 c 0,51,52
 1027 1332 1027 1332 1027 1308 c 0,53,54
 1027 1255 1027 1255 1021 1196 c 2,55,-1
 944 469 l 2,56,57
 935 380 935 380 916 309 c 128,-1,58
 897 238 897 238 861.5 174.5 c 128,-1,59
 826 111 826 111 776 69 c 128,-1,60
 726 27 726 27 652 2.5 c 128,-1,30
 578 -22 578 -22 483 -22 c 128,-1,31
EndSplineSet
Validated: 1572865
EndChar

StartChar: P
Encoding: 80 80 51
Width: 994
GlyphClass: 2
Flags: W
LayerCount: 2
UndoRedoHistory
Layer: 1
Undoes
EndUndoes
Redoes
EndRedoes
EndUndoRedoHistory
Fore
SplineSet
110 0 m 1,0,-1
 284 1658 l 1,1,-1
 674 1658 l 2,2,3
 783 1658 783 1658 856.5 1626.5 c 128,-1,4
 930 1595 930 1595 966.5 1535.5 c 128,-1,5
 1003 1476 1003 1476 1014 1402 c 0,6,7
 1020 1363 1020 1363 1020 1317 c 0,8,9
 1020 1276 1020 1276 1015 1230 c 0,10,11
 1006 1142 1006 1142 979 1068 c 128,-1,12
 952 994 952 994 903 929.5 c 128,-1,13
 854 865 854 865 773 828.5 c 128,-1,14
 692 792 692 792 585 792 c 2,15,-1
 306 792 l 1,16,-1
 222 0 l 1,17,-1
 110 0 l 1,0,-1
315 879 m 1,18,-1
 570 879 l 2,19,20
 723 879 723 879 802 959.5 c 128,-1,21
 881 1040 881 1040 901 1230 c 0,22,23
 907 1283 907 1283 907 1327 c 0,24,25
 907 1446 907 1446 865 1500 c 0,26,27
 808 1572 808 1572 645 1572 c 2,28,-1
 388 1572 l 1,29,-1
 315 879 l 1,18,-1
EndSplineSet
Validated: 1
EndChar

StartChar: Q
Encoding: 81 81 52
Width: 1072
GlyphClass: 2
Flags: W
LayerCount: 2
UndoRedoHistory
Layer: 1
Undoes
EndUndoes
Redoes
EndRedoes
EndUndoRedoHistory
Fore
SplineSet
798 -318 m 1,0,1
 746 -275 746 -275 673.5 -188.5 c 128,-1,2
 601 -102 601 -102 550 -20 c 1,3,4
 512 -22 512 -22 490 -22 c 0,5,6
 395 -22 395 -22 325 2 c 128,-1,7
 255 26 255 26 213.5 70 c 128,-1,8
 172 114 172 114 148 175.5 c 0,9,10
 124 238 124 238 121 312 c 0,11,12
 120 334 120 334 120 357 c 0,13,14
 120 412 120 412 125 472 c 1,15,-1
 202 1196 l 2,16,17
 213 1306 213 1306 243.5 1391 c 128,-1,18
 274 1476 274 1476 328 1541.5 c 128,-1,19
 382 1607 382 1607 468 1642 c 128,-1,20
 554 1677 554 1677 669 1677 c 128,-1,21
 784 1677 784 1677 862.5 1642 c 128,-1,22
 941 1607 941 1607 981.5 1541 c 0,23,24
 1022 1474 1022 1474 1034 1390 c 0,25,26
 1041 1345 1041 1345 1041 1293 c 0,27,28
 1041 1247 1041 1247 1036 1196 c 2,29,-1
 959 469 l 2,30,31
 946 345 946 345 913 254 c 128,-1,32
 880 163 880 163 811 93 c 128,-1,33
 742 23 742 23 639 -3 c 1,34,35
 671 -53 671 -53 745 -136.5 c 128,-1,36
 819 -220 819 -220 862 -258 c 1,37,-1
 798 -318 l 1,0,1
500 70 m 128,-1,39
 587 70 587 70 650.5 96.5 c 128,-1,40
 714 123 714 123 753 175 c 128,-1,41
 792 227 792 227 813.5 292.5 c 128,-1,42
 835 358 835 358 844 447 c 2,43,-1
 924 1212 l 1,44,45
 930 1259 930 1259 930 1302 c 0,46,47
 930 1335 930 1335 926 1365 c 0,48,49
 918 1434 918 1434 890.5 1483 c 128,-1,50
 863 1532 863 1532 805 1559 c 128,-1,51
 747 1586 747 1586 660 1586 c 0,52,53
 491 1586 491 1586 413 1490.5 c 128,-1,54
 335 1395 335 1395 316 1212 c 2,55,-1
 236 447 l 1,56,57
 230 400 230 400 230 357 c 0,58,59
 230 324 230 324 234 294 c 0,60,61
 242 224 242 224 269 174.5 c 128,-1,62
 296 125 296 125 354.5 97.5 c 128,-1,38
 413 70 413 70 500 70 c 128,-1,39
EndSplineSet
Validated: 524289
EndChar

StartChar: R
Encoding: 82 82 53
Width: 1041
GlyphClass: 2
Flags: W
LayerCount: 2
UndoRedoHistory
Layer: 1
Undoes
EndUndoes
Redoes
EndRedoes
EndUndoRedoHistory
Fore
SplineSet
110 0 m 1,0,-1
 284 1658 l 1,1,-1
 687 1658 l 2,2,3
 773 1658 773 1658 835.5 1637.5 c 128,-1,4
 898 1617 898 1617 934 1580 c 128,-1,5
 970 1543 970 1543 990.5 1492 c 128,-1,6
 1011 1441 1011 1441 1013 1380 c 0,7,8
 1014 1365 1014 1365 1014 1349 c 0,9,10
 1014 1302 1014 1302 1009 1250 c 0,11,12
 1003 1190 1003 1190 991.5 1140 c 128,-1,13
 980 1090 980 1090 958 1040.5 c 128,-1,14
 936 991 936 991 905.5 955 c 128,-1,15
 875 919 875 919 828.5 892.5 c 128,-1,16
 782 866 782 866 722 857 c 1,17,-1
 900 0 l 1,18,-1
 789 0 l 1,19,-1
 618 836 l 1,20,-1
 310 836 l 1,21,-1
 222 0 l 1,22,-1
 110 0 l 1,0,-1
319 921 m 1,23,-1
 604 921 l 2,24,25
 682 921 682 921 736.5 943 c 128,-1,26
 791 965 791 965 824 1010 c 128,-1,27
 857 1055 857 1055 874 1111.5 c 128,-1,28
 891 1168 891 1168 900 1250 c 0,29,30
 904 1293 904 1293 904 1331 c 0,31,32
 904 1438 904 1438 868 1494 c 0,33,34
 820 1570 820 1570 671 1570 c 2,35,-1
 387 1570 l 1,36,-1
 319 921 l 1,23,-1
EndSplineSet
Validated: 1
EndChar

StartChar: S
Encoding: 83 83 54
Width: 926
GlyphClass: 2
Flags: W
AnchorPoint: "Anchor-1" 470 0 basechar 0
LayerCount: 2
UndoRedoHistory
Layer: 1
Undoes
EndUndoes
Redoes
EndRedoes
EndUndoRedoHistory
Fore
SplineSet
441 -21 m 0,0,1
 85 -21 85 -21 85 386 c 0,2,3
 85 397 85 397 85 409 c 1,4,-1
 187 440 l 1,5,6
 189 369 189 369 196 317 c 128,-1,7
 203 265 203 265 220.5 216.5 c 128,-1,8
 238 168 238 168 267 137.5 c 128,-1,9
 296 107 296 107 342.5 89 c 128,-1,10
 389 71 389 71 452 71 c 0,11,12
 718 71 718 71 746 338 c 0,13,14
 748 357 748 357 748 376 c 0,15,16
 748 455 748 455 714 523 c 0,17,18
 672 607 672 607 570 720 c 2,19,-1
 298 1022 l 2,20,21
 184 1149 184 1149 184 1298 c 0,22,23
 184 1318 184 1318 186 1337 c 1,24,25
 204 1499 204 1499 311.5 1587.5 c 128,-1,26
 419 1676 419 1676 585 1677 c 0,27,28
 587 1677 587 1677 589 1677 c 0,29,30
 766 1676 766 1676 851 1582 c 0,31,32
 929 1496 929 1496 929 1303 c 0,33,34
 929 1283 929 1283 928 1261 c 1,35,-1
 831 1239 l 1,36,37
 831 1251 831 1251 831 1263 c 0,38,39
 831 1428 831 1428 779 1506 c 0,40,41
 725 1588 725 1588 590 1587 c 0,42,43
 585 1587 585 1587 580 1587 c 0,44,45
 458 1585 458 1585 380 1525.5 c 128,-1,46
 302 1466 302 1466 289 1345 c 0,47,48
 287 1330 287 1330 287 1316 c 0,49,50
 287 1203 287 1203 384 1094 c 1,51,-1
 653 799 l 2,52,53
 756 686 756 686 810 576 c 0,54,55
 854 487 854 487 853 388 c 0,56,57
 853 366 853 366 851 344 c 0,58,59
 832 164 832 164 721.5 71.5 c 128,-1,60
 611 -21 611 -21 441 -21 c 0,0,1
EndSplineSet
Validated: 1048609
EndChar

StartChar: T
Encoding: 84 84 55
Width: 779
GlyphClass: 2
Flags: W
AnchorPoint: "Anchor-1" 380 0 basechar 0
LayerCount: 2
UndoRedoHistory
Layer: 1
Undoes
EndUndoes
Redoes
EndRedoes
EndUndoRedoHistory
Fore
SplineSet
294 0 m 1,0,-1
 459 1569 l 1,1,-1
 108 1569 l 1,2,-1
 118 1658 l 1,3,-1
 925 1658 l 1,4,-1
 915 1569 l 1,5,-1
 571 1569 l 1,6,-1
 407 0 l 1,7,-1
 294 0 l 1,0,-1
EndSplineSet
Validated: 1048577
EndChar

StartChar: U
Encoding: 85 85 56
Width: 1092
GlyphClass: 2
Flags: W
AnchorPoint: "Anchor-0" 581 0 basechar 0
LayerCount: 2
UndoRedoHistory
Layer: 1
Undoes
EndUndoes
Redoes
EndRedoes
EndUndoRedoHistory
Fore
SplineSet
501 -22 m 0,0,1
 406 -22 406 -22 336 -1.5 c 128,-1,2
 266 19 266 19 224.5 55.5 c 128,-1,3
 183 92 183 92 158.5 143 c 128,-1,4
 134 194 134 194 130 256 c 0,5,6
 129 279 129 279 129 303 c 0,7,8
 129 344 129 344 133 389 c 1,9,-1
 266 1658 l 1,10,-1
 375 1658 l 1,11,-1
 241 387 l 2,12,13
 238 350 238 350 238 317 c 0,14,15
 238 300 238 300 238 284 c 0,16,17
 240 236 240 236 258.5 196.5 c 128,-1,18
 277 157 277 157 307.5 129 c 128,-1,19
 338 101 338 101 389.5 85.5 c 128,-1,20
 441 70 441 70 511 70 c 0,21,22
 814 70 814 70 847 387 c 2,23,-1
 981 1658 l 1,24,-1
 1090 1658 l 1,25,-1
 957 389 l 2,26,27
 913 -22 913 -22 501 -22 c 0,0,1
EndSplineSet
Validated: 1048577
EndChar

StartChar: V
Encoding: 86 86 57
Width: 984
GlyphClass: 2
Flags: W
LayerCount: 2
UndoRedoHistory
Layer: 1
Undoes
EndUndoes
Redoes
EndRedoes
EndUndoRedoHistory
Fore
SplineSet
407 0 m 1,0,-1
 182 1658 l 1,1,-1
 291 1658 l 1,2,-1
 480 195 l 1,3,-1
 957 1658 l 1,4,-1
 1065 1658 l 1,5,-1
 513 0 l 1,6,-1
 407 0 l 1,0,-1
EndSplineSet
Validated: 1
EndChar

StartChar: W
Encoding: 87 87 58
Width: 1446
GlyphClass: 2
Flags: W
LayerCount: 2
UndoRedoHistory
Layer: 1
Undoes
EndUndoes
Redoes
EndRedoes
EndUndoRedoHistory
Fore
SplineSet
316 0 m 1,0,-1
 200 1657 l 1,1,-1
 299 1658 l 1,2,-1
 391 220 l 1,3,-1
 805 1621 l 1,4,-1
 913 1621 l 1,5,-1
 1038 219 l 1,6,-1
 1411 1658 l 1,7,-1
 1509 1658 l 1,8,-1
 1065 0 l 1,9,-1
 971 0 l 1,10,-1
 842 1453 l 1,11,-1
 412 0 l 1,12,-1
 316 0 l 1,0,-1
EndSplineSet
Validated: 1
EndChar

StartChar: X
Encoding: 88 88 59
Width: 926
GlyphClass: 2
Flags: W
LayerCount: 2
UndoRedoHistory
Layer: 1
Undoes
EndUndoes
Redoes
EndRedoes
EndUndoRedoHistory
Fore
SplineSet
-12 0 m 1,0,-1
 444 862 l 1,1,-1
 164 1659 l 1,2,-1
 267 1659 l 1,3,-1
 518 951 l 1,4,-1
 909 1659 l 1,5,-1
 1021 1659 l 1,6,-1
 556 843 l 1,7,-1
 853 0 l 1,8,-1
 746 0 l 1,9,-1
 483 746 l 1,10,-1
 99 0 l 1,11,-1
 -12 0 l 1,0,-1
EndSplineSet
Validated: 1
EndChar

StartChar: Y
Encoding: 89 89 60
AltUni2: 0004ae.ffffffff.0
Width: 946
GlyphClass: 2
Flags: W
LayerCount: 2
UndoRedoHistory
Layer: 1
Undoes
EndUndoes
Redoes
EndRedoes
EndUndoRedoHistory
Fore
SplineSet
381 0 m 1,0,-1
 436 530 l 1,1,-1
 173 1658 l 1,2,-1
 287 1658 l 1,3,-1
 508 663 l 1,4,-1
 922 1658 l 1,5,-1
 1036 1658 l 1,6,-1
 548 530 l 1,7,-1
 492 0 l 1,8,-1
 381 0 l 1,0,-1
EndSplineSet
Validated: 1
EndChar

StartChar: Z
Encoding: 90 90 61
Width: 822
GlyphClass: 2
Flags: W
LayerCount: 2
UndoRedoHistory
Layer: 1
Undoes
EndUndoes
Redoes
EndRedoes
EndUndoRedoHistory
Fore
SplineSet
21 0 m 1,0,-1
 31 88 l 1,1,-1
 783 1570 l 1,2,-1
 239 1570 l 1,3,-1
 249 1658 l 1,4,-1
 912 1658 l 1,5,-1
 905 1589 l 1,6,-1
 144 88 l 1,7,-1
 749 88 l 1,8,-1
 740 0 l 1,9,-1
 21 0 l 1,0,-1
EndSplineSet
Validated: 1
EndChar

StartChar: bracketleft
Encoding: 91 91 62
Width: 571
GlyphClass: 2
Flags: W
LayerCount: 2
UndoRedoHistory
Layer: 1
Undoes
EndUndoes
Redoes
EndRedoes
EndUndoRedoHistory
Fore
SplineSet
78 -297 m 1,0,-1
 283 1658 l 1,1,-1
 585 1658 l 1,2,-1
 578 1592 l 1,3,-1
 387 1592 l 1,4,-1
 195 -229 l 1,5,-1
 387 -229 l 1,6,-1
 380 -297 l 1,7,-1
 78 -297 l 1,0,-1
EndSplineSet
Validated: 1
EndChar

StartChar: backslash
Encoding: 92 92 63
Width: 674
GlyphClass: 2
Flags: W
LayerCount: 2
UndoRedoHistory
Layer: 1
Undoes
EndUndoes
Redoes
EndRedoes
EndUndoRedoHistory
Fore
SplineSet
488 0 m 1,0,-1
 175 1658 l 1,1,-1
 273 1658 l 1,2,-1
 586 0 l 1,3,-1
 488 0 l 1,0,-1
EndSplineSet
Validated: 1
EndChar

StartChar: bracketright
Encoding: 93 93 64
Width: 553
GlyphClass: 2
Flags: W
LayerCount: 2
UndoRedoHistory
Layer: 1
Undoes
EndUndoes
Redoes
EndRedoes
EndUndoRedoHistory
Fore
SplineSet
26 -295 m 1,0,-1
 33 -229 l 1,1,-1
 225 -229 l 1,2,-1
 415 1591 l 1,3,-1
 224 1591 l 1,4,-1
 231 1658 l 1,5,-1
 533 1658 l 1,6,-1
 327 -295 l 1,7,-1
 26 -295 l 1,0,-1
EndSplineSet
Validated: 1
EndChar

StartChar: asciicircum
Encoding: 94 94 65
Width: 748
GlyphClass: 2
Flags: W
LayerCount: 2
UndoRedoHistory
Layer: 1
Undoes
EndUndoes
Redoes
EndRedoes
EndUndoRedoHistory
Fore
SplineSet
123 1076 m 1,0,-1
 446 1658 l 1,1,-1
 565 1658 l 1,2,-1
 766 1076 l 1,3,-1
 673 1076 l 1,4,-1
 499 1589 l 1,5,-1
 215 1076 l 1,6,-1
 123 1076 l 1,0,-1
EndSplineSet
Validated: 1
EndChar

StartChar: underscore
Encoding: 95 95 66
Width: 666
GlyphClass: 2
Flags: W
LayerCount: 2
UndoRedoHistory
Layer: 1
Undoes
EndUndoes
Redoes
EndRedoes
EndUndoRedoHistory
Fore
SplineSet
-62 -184 m 1,0,-1
 -52 -95 l 1,1,-1
 613 -95 l 1,2,-1
 604 -184 l 1,3,-1
 -62 -184 l 1,0,-1
EndSplineSet
Validated: 1
EndChar

StartChar: grave
Encoding: 96 96 67
Width: 429
GlyphClass: 2
Flags: W
LayerCount: 2
UndoRedoHistory
Layer: 1
Undoes
EndUndoes
Redoes
EndRedoes
EndUndoRedoHistory
Fore
SplineSet
358 1261 m 1,0,-1
 235 1658 l 1,1,-1
 344 1658 l 1,2,-1
 415 1261 l 1,3,-1
 358 1261 l 1,0,-1
EndSplineSet
Validated: 1
EndChar

StartChar: a
Encoding: 97 97 68
Width: 777
GlyphClass: 2
Flags: W
AnchorPoint: "Anchor-0" 632 0 basechar 0
LayerCount: 2
UndoRedoHistory
Layer: 1
Undoes
EndUndoes
Redoes
EndRedoes
EndUndoRedoHistory
Fore
SplineSet
271 -19 m 0,0,1
 164 -19 164 -19 106 53 c 0,2,3
 58 113 58 113 58 204 c 0,4,5
 58 221 58 221 60 240 c 1,6,7
 69 319 69 319 92 371.5 c 128,-1,8
 115 424 115 424 177 478 c 128,-1,9
 239 532 239 532 332.5 582 c 128,-1,10
 426 632 426 632 593 706 c 1,11,-1
 602 791 l 1,12,13
 611 866 611 866 611 923 c 0,14,15
 611 962 611 962 607 991 c 0,16,17
 596 1064 596 1064 565 1092 c 128,-1,18
 534 1120 534 1120 472 1120 c 0,19,20
 433 1120 433 1120 401.5 1111 c 128,-1,21
 370 1102 370 1102 339 1079.5 c 128,-1,22
 308 1057 308 1057 287.5 1010.5 c 128,-1,23
 267 964 267 964 260 897 c 1,24,-1
 256 864 l 1,25,-1
 151 866 l 1,26,27
 151 868 151 868 152.5 882 c 128,-1,28
 154 896 154 896 154 898 c 0,29,30
 176 1060 176 1060 258 1131.5 c 128,-1,31
 340 1203 340 1203 485 1203 c 0,32,33
 634 1203 634 1203 684 1110 c 0,34,35
 719 1046 719 1046 718 925 c 0,36,37
 718 870 718 870 711 802 c 2,38,-1
 648 206 l 1,39,40
 632 31 632 31 633 0 c 1,41,-1
 540 0 l 1,42,43
 539 134 539 134 539 157 c 1,44,45
 501 80 501 80 429 30.5 c 128,-1,46
 357 -19 357 -19 271 -19 c 0,0,1
307 71 m 0,47,48
 378 71 378 71 439 118 c 128,-1,49
 500 165 500 165 543 237 c 1,50,-1
 584 627 l 1,51,52
 370 521 370 521 313 485 c 1,53,54
 223 426 223 426 194 356 c 0,55,56
 176 315 176 315 170 255 c 0,57,58
 168 236 168 236 168 219 c 0,59,60
 168 150 168 150 201 115 c 0,61,62
 242 71 242 71 307 71 c 0,47,48
EndSplineSet
Validated: 1048609
EndChar

StartChar: b
Encoding: 98 98 69
Width: 814
GlyphClass: 2
Flags: W
LayerCount: 2
UndoRedoHistory
Layer: 1
Undoes
EndUndoes
Redoes
EndRedoes
EndUndoRedoHistory
Fore
SplineSet
398 -19 m 0,0,1
 273 -19 273 -19 194 98 c 1,2,-1
 183 0 l 1,3,-1
 74 0 l 1,4,-1
 248 1658 l 1,5,-1
 357 1658 l 1,6,-1
 297 1084 l 1,7,8
 401 1203 401 1203 537 1203 c 0,9,10
 642 1203 642 1203 696.5 1142 c 0,11,12
 750 1080 750 1080 758 972 c 0,13,14
 761 934 761 934 761 892 c 0,15,16
 761 812 761 812 752 714 c 1,17,-1
 728 487 l 2,18,19
 701 227 701 227 626.5 104 c 128,-1,20
 552 -19 552 -19 398 -19 c 0,0,1
394 66 m 0,21,22
 500 66 500 66 548 161.5 c 128,-1,23
 596 257 596 257 620 484 c 1,24,-1
 643 715 l 1,25,26
 655 824 655 824 655 903 c 0,27,28
 654 924 654 924 654 944 c 0,29,30
 650 1034 650 1034 615 1076 c 128,-1,31
 580 1118 580 1118 505 1118 c 0,32,33
 401 1118 401 1118 289 1008 c 1,34,-1
 201 173 l 1,35,36
 278 66 278 66 394 66 c 0,21,22
EndSplineSet
Validated: 524289
EndChar

StartChar: c
Encoding: 99 99 70
Width: 768
GlyphClass: 2
Flags: W
AnchorPoint: "Anchor-1" 380 0 basechar 0
LayerCount: 2
UndoRedoHistory
Layer: 1
Undoes
EndUndoes
Redoes
EndRedoes
EndUndoRedoHistory
Fore
SplineSet
349 -19 m 0,0,1
 293 -19 293 -19 250 -6.5 c 128,-1,2
 207 6 207 6 178 27.5 c 128,-1,3
 149 49 149 49 130 83 c 128,-1,4
 111 117 111 117 101.5 153.5 c 128,-1,5
 92 190 92 190 90 240 c 0,6,7
 89 265 89 265 88.5 289.5 c 128,-1,8
 88 314 88 314 90 338 c 0,9,10
 92 384 92 384 98 445 c 2,11,-1
 128 723 l 1,12,13
 155 989 155 989 230.5 1096 c 128,-1,14
 306 1203 306 1203 477 1203 c 0,15,16
 566 1203 566 1203 622.5 1173.5 c 128,-1,17
 679 1144 679 1144 702 1092.5 c 128,-1,18
 725 1041 725 1041 731 971 c 0,19,20
 733 946 733 946 733 920 c 0,21,22
 733 872 733 872 726 820 c 1,23,-1
 721 772 l 1,24,-1
 618 772 l 1,25,-1
 623 819 l 1,26,27
 631 877 631 877 630.5 923.5 c 128,-1,28
 630 970 630 970 623 1004 c 0,29,30
 608 1072 608 1072 572.5 1096.5 c 128,-1,31
 537 1121 537 1121 469 1121 c 0,32,33
 420 1121 420 1121 385.5 1107 c 128,-1,34
 351 1093 351 1093 326.5 1066.5 c 128,-1,35
 302 1040 302 1040 285 991.5 c 128,-1,36
 268 943 268 943 257.5 884 c 128,-1,37
 247 825 247 825 238 736 c 2,38,-1
 205 429 l 2,39,40
 197 347 197 347 197 285 c 0,41,42
 197 193 197 193 215 145 c 0,43,44
 246 63 246 63 359 63 c 0,45,46
 473 63 473 63 516 136 c 128,-1,47
 559 209 559 209 579 397 c 1,48,-1
 583 443 l 1,49,-1
 686 443 l 1,50,-1
 682 399 l 2,51,52
 674 319 674 319 663 263.5 c 128,-1,53
 652 208 652 208 628.5 150.5 c 128,-1,54
 605 93 605 93 571 59 c 128,-1,55
 537 25 537 25 481 3 c 128,-1,56
 425 -19 425 -19 349 -19 c 0,0,1
EndSplineSet
Validated: 1048609
EndChar

StartChar: d
Encoding: 100 100 71
Width: 808
GlyphClass: 2
Flags: W
LayerCount: 2
UndoRedoHistory
Layer: 1
Undoes
EndUndoes
Redoes
EndRedoes
EndUndoRedoHistory
Fore
SplineSet
328 -19 m 0,0,1
 176 -18 176 -18 125 98 c 0,2,3
 92 172 92 172 92 309 c 0,4,5
 92 387 92 387 103 486 c 1,6,-1
 124 697 l 1,7,8
 152 961 152 961 223.5 1082 c 128,-1,9
 295 1203 295 1203 451 1203 c 1,10,11
 576 1202 576 1202 654 1093 c 1,12,-1
 714 1658 l 1,13,-1
 822 1658 l 1,14,-1
 648 0 l 1,15,-1
 540 0 l 1,16,-1
 549 90 l 1,17,18
 446 -19 446 -19 328 -19 c 0,0,1
353 66 m 0,19,20
 457 66 457 66 557 166 c 1,21,-1
 646 1014 l 1,22,23
 560 1118 560 1118 458 1118 c 0,24,25
 350 1118 350 1118 304.5 1030 c 128,-1,26
 259 942 259 942 236 723 c 2,27,-1
 210 477 l 2,28,29
 200 377 200 377 200 302 c 0,30,31
 200 210 200 210 216 159 c 0,32,33
 244 66 244 66 353 66 c 0,19,20
EndSplineSet
Validated: 1
EndChar

StartChar: e
Encoding: 101 101 72
Width: 777
GlyphClass: 2
Flags: W
AnchorPoint: "Anchor-0" 471 0 basechar 0
LayerCount: 2
UndoRedoHistory
Layer: 1
Undoes
EndUndoes
Redoes
EndRedoes
EndUndoRedoHistory
Fore
SplineSet
351 -19 m 0,0,1
 302 -19 302 -19 264.5 -10.5 c 128,-1,2
 227 -2 227 -2 193.5 18 c 128,-1,3
 160 38 160 38 139.5 72 c 128,-1,4
 119 106 119 106 104.5 157 c 128,-1,5
 90 208 90 208 90 277.5 c 128,-1,6
 90 347 90 347 97 438 c 1,7,-1
 130 754 l 2,8,9
 142 863 142 863 164.5 943 c 128,-1,10
 187 1023 187 1023 217 1072.5 c 128,-1,11
 247 1122 247 1122 289.5 1151.5 c 128,-1,12
 332 1181 332 1181 377 1192 c 128,-1,13
 422 1203 422 1203 482 1203 c 0,14,15
 646 1202 646 1202 698 1096 c 0,16,17
 733 1026 733 1026 732 890 c 0,18,19
 732 820 732 820 723 732 c 1,20,-1
 709 619 l 1,21,-1
 225 619 l 1,22,-1
 205 430 l 1,23,24
 196 353 196 353 196 294 c 0,25,26
 196 244 196 244 202 208 c 0,27,28
 216 126 216 126 252.5 94.5 c 128,-1,29
 289 63 289 63 359 63 c 0,30,31
 389 63 389 63 412 67 c 128,-1,32
 435 71 435 71 463.5 85.5 c 128,-1,33
 492 100 492 100 512 125.5 c 128,-1,34
 532 151 532 151 548.5 198.5 c 128,-1,35
 565 246 565 246 572 312 c 2,36,-1
 581 400 l 1,37,-1
 688 400 l 1,38,-1
 679 322 l 1,39,40
 662 158 662 158 586 69.5 c 128,-1,41
 510 -19 510 -19 351 -19 c 0,0,1
232 684 m 1,42,-1
 611 684 l 1,43,-1
 620 776 l 2,44,45
 629 869 629 869 629 939 c 0,46,47
 628 950 628 950 628 960 c 0,48,49
 626 1036 626 1036 589 1078.5 c 128,-1,50
 552 1121 552 1121 473 1121 c 0,51,52
 402 1121 402 1121 359 1093.5 c 128,-1,53
 316 1066 316 1066 286 989.5 c 128,-1,54
 256 913 256 913 241 774 c 1,55,-1
 232 684 l 1,42,-1
EndSplineSet
Validated: 1048609
EndChar

StartChar: f
Encoding: 102 102 73
Width: 525
GlyphClass: 2
Flags: W
LayerCount: 2
UndoRedoHistory
Layer: 1
Undoes
EndUndoes
Redoes
EndRedoes
EndUndoRedoHistory
Fore
SplineSet
152 0 m 1,0,-1
 268 1107 l 1,1,-1
 108 1107 l 1,2,-1
 116 1184 l 1,3,-1
 276 1184 l 1,4,-1
 293 1344 l 2,5,6
 299 1397 299 1397 305 1430.5 c 128,-1,7
 311 1464 311 1464 326 1502 c 128,-1,8
 341 1540 341 1540 363 1561.5 c 128,-1,9
 385 1583 385 1583 423.5 1597.5 c 128,-1,10
 462 1612 462 1612 514 1612 c 0,11,12
 571 1612 571 1612 621 1598 c 1,13,-1
 612 1515 l 1,14,15
 550 1527 550 1527 527 1527 c 0,16,17
 461 1527 461 1527 436.5 1488 c 128,-1,18
 412 1449 412 1449 402 1346 c 1,19,-1
 384 1184 l 1,20,-1
 582 1184 l 1,21,-1
 575 1107 l 1,22,-1
 377 1107 l 1,23,-1
 260 0 l 1,24,-1
 152 0 l 1,0,-1
EndSplineSet
Validated: 1
EndChar

StartChar: g
Encoding: 103 103 74
Width: 878
GlyphClass: 2
Flags: W
LayerCount: 2
UndoRedoHistory
Layer: 1
Undoes
EndUndoes
Redoes
EndRedoes
EndUndoRedoHistory
Fore
SplineSet
329 -401 m 0,0,1
 140 -401 140 -401 48 -349 c 0,2,3
 -34 -302 -34 -302 -34 -212 c 0,4,5
 -34 -202 -34 -202 -33 -192 c 0,6,7
 -25 -109 -25 -109 45.5 -35.5 c 128,-1,8
 116 38 116 38 208 83 c 1,9,10
 154 97 154 97 113 121 c 0,11,12
 75 143 75 143 75 169 c 0,13,14
 75 251 75 251 248 428 c 1,15,16
 127 520 127 520 127 715 c 0,17,18
 127 753 127 753 132 795 c 0,19,20
 140 871 140 871 166.5 941.5 c 128,-1,21
 193 1012 193 1012 237.5 1071.5 c 128,-1,22
 282 1131 282 1131 351 1167 c 128,-1,23
 420 1203 420 1203 504 1203 c 0,24,25
 681 1203 681 1203 749 1045 c 1,26,27
 775 1085 775 1085 823.5 1124 c 128,-1,28
 872 1163 872 1163 923 1183 c 2,29,-1
 953 1195 l 1,30,-1
 977 1113 l 1,31,32
 922 1100 922 1100 864.5 1066 c 128,-1,33
 807 1032 807 1032 773 993 c 1,34,35
 784 954 784 954 789 892 c 0,36,37
 791 861 791 861 791.5 836 c 128,-1,38
 792 811 792 811 789 792 c 1,39,40
 770 604 770 604 678 490 c 128,-1,41
 586 376 586 376 420 376 c 0,42,43
 346 376 346 376 297 398 c 1,44,45
 288 386 288 386 262 353 c 128,-1,46
 236 320 236 320 220 298.5 c 128,-1,47
 204 277 204 277 188.5 250 c 128,-1,48
 173 223 173 223 171 206 c 0,49,50
 170 195 170 195 195 184.5 c 128,-1,51
 220 174 220 174 265 165 c 1,52,53
 295 157 295 157 366.5 143 c 128,-1,54
 438 129 438 129 455 124 c 1,55,56
 605 90 605 90 676 30 c 0,57,58
 737 -22 737 -22 737 -111 c 0,59,60
 737 -125 737 -125 736 -139 c 0,61,62
 729 -206 729 -206 693 -258 c 128,-1,63
 657 -310 657 -310 600.5 -340.5 c 128,-1,64
 544 -371 544 -371 475.5 -386 c 128,-1,65
 407 -401 407 -401 329 -401 c 0,0,1
338 -313 m 0,66,67
 467 -313 467 -313 551.5 -270.5 c 128,-1,68
 636 -228 636 -228 645 -142 c 0,69,70
 646 -131 646 -131 646 -120 c 0,71,72
 646 -88 646 -88 634 -64 c 0,73,74
 618 -34 618 -34 563.5 -7 c 128,-1,75
 509 20 509 20 405 43 c 1,76,-1
 277 65 l 1,77,78
 77 -43 77 -43 65 -166 c 1,79,80
 64 -175 64 -175 64 -183 c 0,81,82
 64 -246 64 -246 126 -278 c 0,83,84
 196 -314 196 -314 338 -313 c 0,66,67
428 456 m 0,85,86
 655 456 655 456 691 795 c 1,87,88
 693 832 693 832 694 876 c 0,89,90
 694 879 694 879 694 883 c 0,91,92
 694 923 694 923 682 964 c 0,93,94
 670 1008 670 1008 650.5 1043.5 c 128,-1,95
 631 1079 631 1079 591 1101 c 128,-1,96
 551 1123 551 1123 497 1123 c 128,-1,97
 443 1123 443 1123 398 1099 c 128,-1,98
 353 1075 353 1075 325 1039.5 c 128,-1,99
 297 1004 297 1004 276 957.5 c 128,-1,100
 255 911 255 911 245.5 871.5 c 128,-1,101
 236 832 236 832 232 795 c 0,102,103
 228 759 228 759 228 725.5 c 128,-1,104
 228 692 228 692 232 651 c 128,-1,105
 236 610 236 610 249.5 577 c 128,-1,106
 263 544 263 544 284.5 516 c 128,-1,107
 306 488 306 488 342.5 472 c 128,-1,108
 379 456 379 456 428 456 c 0,85,86
EndSplineSet
Validated: 33
EndChar

StartChar: h
Encoding: 104 104 75
Width: 802
GlyphClass: 2
Flags: W
LayerCount: 2
UndoRedoHistory
Layer: 1
Undoes
EndUndoes
Redoes
EndRedoes
EndUndoRedoHistory
Fore
SplineSet
75 0 m 1,0,-1
 249 1658 l 1,1,-1
 358 1658 l 1,2,-1
 295 1058 l 1,3,4
 435 1203 435 1203 592 1203 c 0,5,6
 676 1202 676 1202 720 1140 c 0,7,8
 753 1093 753 1093 753 1005 c 0,9,10
 753 977 753 977 750 944 c 2,11,-1
 651 0 l 1,12,-1
 541 0 l 1,13,-1
 640 932 l 2,14,15
 643 960 643 960 643 983 c 0,16,17
 643 1046 643 1046 623 1076 c 0,18,19
 596 1118 596 1118 535 1118 c 0,20,21
 420 1118 420 1118 287 988 c 1,22,-1
 184 0 l 1,23,-1
 75 0 l 1,0,-1
EndSplineSet
Validated: 1
EndChar

StartChar: i
Encoding: 105 105 76
Width: 388
GlyphClass: 2
Flags: W
AnchorPoint: "Anchor-0" 196 0 basechar 0
LayerCount: 2
UndoRedoHistory
Layer: 1
Undoes
EndUndoes
Redoes
EndRedoes
EndUndoRedoHistory
Fore
SplineSet
92 0 m 1,0,-1
 216 1184 l 1,1,-1
 324 1184 l 1,2,-1
 200 0 l 1,3,-1
 92 0 l 1,0,-1
233 1339 m 1,4,-1
 252 1528 l 1,5,-1
 361 1528 l 1,6,-1
 342 1339 l 1,7,-1
 233 1339 l 1,4,-1
EndSplineSet
Validated: 1048577
EndChar

StartChar: j
Encoding: 106 106 77
Width: 414
GlyphClass: 2
Flags: W
LayerCount: 2
UndoRedoHistory
Layer: 1
Undoes
EndUndoes
Redoes
EndRedoes
EndUndoRedoHistory
Fore
SplineSet
-107 -313 m 1,0,-1
 -98 -226 l 1,1,2
 -90 -228 -90 -228 -51 -228 c 0,3,4
 0 -228 0 -228 33.5 -214 c 128,-1,5
 67 -200 67 -200 83.5 -171 c 128,-1,6
 100 -142 100 -142 106.5 -117 c 128,-1,7
 113 -92 113 -92 117 -51 c 2,8,-1
 247 1184 l 1,9,-1
 356 1184 l 1,10,-1
 225 -58 l 2,11,12
 211 -195 211 -195 142 -256 c 128,-1,13
 73 -317 73 -317 -47 -317 c 0,14,15
 -96 -317 -96 -317 -107 -313 c 1,0,-1
264 1339 m 1,16,-1
 283 1528 l 1,17,-1
 393 1528 l 1,18,-1
 373 1339 l 1,19,-1
 264 1339 l 1,16,-1
EndSplineSet
Validated: 1
EndChar

StartChar: k
Encoding: 107 107 78
Width: 785
GlyphClass: 2
Flags: W
LayerCount: 2
UndoRedoHistory
Layer: 1
Undoes
EndUndoes
Redoes
EndRedoes
EndUndoRedoHistory
Fore
SplineSet
74 1 m 1,0,-1
 249 1659 l 1,1,-1
 357 1659 l 1,2,-1
 243 566 l 1,3,-1
 747 1184 l 1,4,-1
 865 1184 l 1,5,-1
 506 731 l 1,6,-1
 723 0 l 1,7,-1
 613 0 l 1,8,-1
 418 666 l 1,9,-1
 230 444 l 1,10,-1
 183 1 l 1,11,-1
 74 1 l 1,0,-1
EndSplineSet
Validated: 1
EndChar

StartChar: l
Encoding: 108 108 79
Width: 380
GlyphClass: 2
Flags: W
LayerCount: 2
UndoRedoHistory
Layer: 1
Undoes
EndUndoes
Redoes
EndRedoes
EndUndoRedoHistory
Fore
SplineSet
95 0 m 1,0,-1
 269 1658 l 1,1,-1
 378 1658 l 1,2,-1
 204 0 l 1,3,-1
 95 0 l 1,0,-1
EndSplineSet
Validated: 1
EndChar

StartChar: m
Encoding: 109 109 80
Width: 1268
GlyphClass: 2
Flags: W
LayerCount: 2
UndoRedoHistory
Layer: 1
Undoes
EndUndoes
Redoes
EndRedoes
EndUndoRedoHistory
Fore
SplineSet
73 0 m 1,0,-1
 197 1184 l 1,1,-1
 306 1184 l 1,2,-1
 294 1058 l 1,3,4
 432 1203 432 1203 590 1203 c 0,5,6
 733 1203 733 1203 749 1046 c 1,7,8
 893 1203 893 1203 1057 1203 c 0,9,10
 1142 1202 1142 1202 1186 1140 c 0,11,12
 1219 1093 1219 1093 1219 1005 c 0,13,14
 1219 977 1219 977 1216 944 c 2,15,-1
 1116 0 l 1,16,-1
 1007 0 l 1,17,-1
 1105 932 l 2,18,19
 1108 960 1108 960 1108 983 c 0,20,21
 1108 1046 1108 1046 1088 1076 c 0,22,23
 1061 1118 1061 1118 1000 1118 c 0,24,25
 885 1118 885 1118 750 985 c 1,26,27
 750 970 750 970 748 938 c 1,28,-1
 649 0 l 1,29,-1
 540 0 l 1,30,-1
 638 932 l 2,31,32
 641 960 641 960 641 983 c 0,33,34
 641 1046 641 1046 621 1076 c 0,35,36
 594 1118 594 1118 533 1118 c 0,37,38
 419 1118 419 1118 286 987 c 1,39,-1
 182 0 l 1,40,-1
 73 0 l 1,0,-1
EndSplineSet
Validated: 1
EndChar

StartChar: n
Encoding: 110 110 81
Width: 800
GlyphClass: 2
Flags: W
LayerCount: 2
UndoRedoHistory
Layer: 1
Undoes
EndUndoes
Redoes
EndRedoes
EndUndoRedoHistory
Fore
SplineSet
73 0 m 1,0,-1
 197 1184 l 1,1,-1
 306 1184 l 1,2,-1
 293 1057 l 1,3,4
 336 1102 336 1102 383 1134 c 128,-1,5
 430 1166 430 1166 483.5 1184.5 c 128,-1,6
 537 1203 537 1203 590 1203 c 0,7,8
 675 1202 675 1202 719 1140 c 0,9,10
 752 1093 752 1093 752 1005 c 0,11,12
 752 977 752 977 749 944 c 2,13,-1
 650 0 l 1,14,-1
 540 0 l 1,15,-1
 638 932 l 2,16,17
 641 960 641 960 641 983 c 0,18,19
 641 1046 641 1046 621 1076 c 0,20,21
 594 1118 594 1118 534 1118 c 0,22,23
 476 1118 476 1118 411.5 1082.5 c 128,-1,24
 347 1047 347 1047 286 987 c 1,25,-1
 182 0 l 1,26,-1
 73 0 l 1,0,-1
EndSplineSet
Validated: 1
EndChar

StartChar: o
Encoding: 111 111 82
Width: 784
GlyphClass: 2
Flags: W
AnchorPoint: "Anchor-0" 421 0 basechar 0
LayerCount: 2
UndoRedoHistory
Layer: 1
Undoes
EndUndoes
Redoes
EndRedoes
EndUndoRedoHistory
Fore
SplineSet
356 63 m 0,0,1
 407 63 407 63 443.5 80 c 128,-1,2
 480 97 480 97 503.5 124.5 c 128,-1,3
 527 152 527 152 543 202 c 128,-1,4
 559 252 559 252 567.5 301.5 c 128,-1,5
 576 351 576 351 584 428 c 2,6,-1
 618 756 l 2,7,8
 628 856 628 856 628 931 c 0,9,10
 628 942 628 942 628 952 c 0,11,12
 626 1034 626 1034 588 1077.5 c 128,-1,13
 550 1121 550 1121 467 1121 c 0,14,15
 416 1121 416 1121 379.5 1104 c 128,-1,16
 343 1087 343 1087 319.5 1059 c 128,-1,17
 296 1031 296 1031 280 981.5 c 128,-1,18
 264 932 264 932 256 882 c 128,-1,19
 248 832 248 832 240 756 c 2,20,-1
 205 428 l 1,21,22
 195 327 195 327 195 252 c 0,23,24
 196 242 196 242 196 232 c 0,25,26
 198 151 198 151 235.5 107 c 128,-1,27
 273 63 273 63 356 63 c 0,0,1
347 -19 m 0,28,29
 231 -19 231 -19 170 32 c 128,-1,30
 109 83 109 83 95 183 c 0,31,32
 88 230 88 230 88 287 c 0,33,34
 88 353 88 353 97 432 c 2,35,-1
 131 752 l 2,36,37
 143 868 143 868 165 947.5 c 128,-1,38
 187 1027 187 1027 226.5 1087 c 128,-1,39
 266 1147 266 1147 327.5 1175 c 128,-1,40
 389 1203 389 1203 476 1203 c 0,41,42
 592 1203 592 1203 653 1152 c 0,43,44
 714 1100 714 1100 728 1000 c 0,45,46
 735 951 735 951 735 892 c 0,47,48
 735 828 735 828 727 752 c 2,49,-1
 693 432 l 2,50,51
 668 197 668 197 592.5 89 c 128,-1,52
 517 -19 517 -19 347 -19 c 0,28,29
EndSplineSet
Validated: 1048577
EndChar

StartChar: p
Encoding: 112 112 83
Width: 819
GlyphClass: 2
Flags: W
LayerCount: 2
UndoRedoHistory
Layer: 1
Undoes
EndUndoes
Redoes
EndRedoes
EndUndoRedoHistory
Fore
SplineSet
34 -390 m 1,0,-1
 199 1184 l 1,1,-1
 308 1184 l 1,2,-1
 298 1083 l 1,3,4
 401 1203 401 1203 537 1203 c 0,5,6
 643 1203 643 1203 697.5 1142 c 0,7,8
 752 1080 752 1080 760 972 c 0,9,10
 763 934 763 934 762 892 c 0,11,12
 762 812 762 812 753 714 c 1,13,-1
 729 487 l 2,14,15
 702 227 702 227 627 104 c 128,-1,16
 552 -19 552 -19 398 -19 c 0,17,18
 276 -19 276 -19 194 98 c 1,19,-1
 143 -390 l 1,20,-1
 34 -390 l 1,0,-1
394 66 m 0,21,22
 501 66 501 66 548.5 161 c 128,-1,23
 596 256 596 256 620 484 c 2,24,-1
 644 715 l 1,25,26
 656 824 656 824 656 903 c 0,27,28
 656 924 656 924 656 944 c 0,29,30
 652 1034 652 1034 616.5 1076 c 128,-1,31
 581 1118 581 1118 506 1118 c 0,32,33
 400 1118 400 1118 290 1008 c 1,34,-1
 202 173 l 1,35,36
 279 66 279 66 394 66 c 0,21,22
EndSplineSet
Validated: 524321
EndChar

StartChar: q
Encoding: 113 113 84
Width: 812
GlyphClass: 2
Flags: W
LayerCount: 2
UndoRedoHistory
Layer: 1
Undoes
EndUndoes
Redoes
EndRedoes
EndUndoRedoHistory
Fore
SplineSet
504 -390 m 1,0,-1
 555 91 l 1,1,2
 451 -19 451 -19 333 -19 c 0,3,4
 181 -18 181 -18 130 98 c 0,5,6
 97 172 97 172 97 309 c 0,7,8
 97 387 97 387 108 486 c 1,9,-1
 129 697 l 1,10,11
 157 961 157 961 228.5 1082 c 128,-1,12
 300 1203 300 1203 456 1203 c 1,13,14
 578 1202 578 1202 660 1093 c 1,15,-1
 669 1184 l 1,16,-1
 778 1184 l 1,17,-1
 613 -390 l 1,18,-1
 504 -390 l 1,0,-1
358 66 m 0,19,20
 464 66 464 66 563 167 c 1,21,-1
 652 1014 l 1,22,23
 562 1118 562 1118 463 1118 c 0,24,25
 355 1118 355 1118 309.5 1030 c 128,-1,26
 264 942 264 942 241 723 c 2,27,-1
 215 477 l 2,28,29
 205 377 205 377 205 302 c 0,30,31
 204 210 204 210 220 159 c 0,32,33
 248 66 248 66 358 66 c 0,19,20
EndSplineSet
Validated: 33
EndChar

StartChar: r
Encoding: 114 114 85
Width: 580
GlyphClass: 2
Flags: W
LayerCount: 2
UndoRedoHistory
Layer: 1
Undoes
EndUndoes
Redoes
EndRedoes
EndUndoRedoHistory
Fore
SplineSet
89 0 m 1,0,-1
 213 1184 l 1,1,-1
 322 1184 l 1,2,-1
 306 1024 l 1,3,4
 363 1107 363 1107 446 1151.5 c 128,-1,5
 529 1196 529 1196 603 1196 c 0,6,7
 604 1196 604 1196 612.5 1195.5 c 128,-1,8
 621 1195 621 1195 623 1195 c 1,9,-1
 611 1082 l 1,10,11
 595 1088 595 1088 568 1088 c 0,12,13
 401 1088 401 1088 296 935 c 1,14,-1
 198 0 l 1,15,-1
 89 0 l 1,0,-1
EndSplineSet
Validated: 1
EndChar

StartChar: s
Encoding: 115 115 86
Width: 730
GlyphClass: 2
Flags: W
AnchorPoint: "Anchor-1" 370 0 basechar 0
LayerCount: 2
UndoRedoHistory
Layer: 1
Undoes
EndUndoes
Redoes
EndRedoes
EndUndoRedoHistory
Fore
SplineSet
340 -19 m 0,0,1
 200 -19 200 -19 128 71 c 0,2,3
 60 155 60 155 61 299 c 0,4,5
 61 309 61 309 61 319 c 1,6,-1
 155 346 l 1,7,8
 155 335 155 335 155 325 c 0,9,10
 155 196 155 196 201 132 c 0,11,12
 251 64 251 64 353 63 c 0,13,14
 442 63 442 63 497 113.5 c 128,-1,15
 552 164 552 164 561 255 c 0,16,17
 562 265 562 265 562 276 c 0,18,19
 562 400 562 400 418 533 c 2,20,-1
 292 649 l 2,21,22
 209 726 209 726 176 794 c 0,23,24
 151 847 151 847 151 911 c 0,25,26
 151 930 151 930 153 950 c 0,27,28
 167 1070 167 1070 246.5 1136.5 c 128,-1,29
 326 1203 326 1203 449 1203 c 0,30,31
 578 1203 578 1203 636 1121 c 0,32,33
 686 1051 686 1051 685 934 c 0,34,35
 685 914 685 914 684 892 c 1,36,-1
 601 868 l 1,37,38
 603 892 603 892 603 913 c 0,39,40
 603 1121 603 1121 445 1121 c 0,41,42
 366 1121 366 1121 314 1079.5 c 128,-1,43
 262 1038 262 1038 254 962 c 0,44,45
 252 945 252 945 252 929 c 0,46,47
 252 882 252 882 268 846 c 0,48,49
 288 798 288 798 352 737 c 1,50,-1
 480 612 l 2,51,52
 526 568 526 568 552.5 539 c 128,-1,53
 579 510 579 510 609.5 464 c 128,-1,54
 640 418 640 418 652 366 c 0,55,56
 660 330 660 330 660 289 c 0,57,58
 660 271 660 271 658 253 c 1,59,60
 645 125 645 125 559 53 c 128,-1,61
 473 -19 473 -19 340 -19 c 0,0,1
EndSplineSet
Validated: 1048609
EndChar

StartChar: t
Encoding: 116 116 87
Width: 538
GlyphClass: 2
Flags: W
AnchorPoint: "Anchor-1" 340 0 basechar 0
LayerCount: 2
UndoRedoHistory
Layer: 1
Undoes
EndUndoes
Redoes
EndRedoes
EndUndoRedoHistory
Fore
SplineSet
332 -13 m 0,0,1
 272 -13 272 -13 235 6 c 128,-1,2
 198 25 198 25 183.5 58.5 c 0,3,4
 170 92 170 92 166 137 c 0,5,6
 165 152 165 152 164 168 c 0,7,8
 164 200 164 200 169 234 c 1,9,-1
 262 1112 l 1,10,-1
 107 1112 l 1,11,-1
 115 1184 l 1,12,-1
 269 1184 l 1,13,-1
 310 1562 l 1,14,-1
 418 1562 l 1,15,-1
 378 1184 l 1,16,-1
 579 1184 l 1,17,-1
 572 1112 l 1,18,-1
 371 1112 l 1,19,-1
 279 247 l 2,20,21
 275 208 275 208 275 179 c 0,22,23
 275 132 275 132 285 110 c 0,24,25
 301 74 301 74 365 73 c 0,26,27
 397 73 397 73 453 83 c 1,28,-1
 444 1 l 1,29,30
 393 -13 393 -13 332 -13 c 0,0,1
EndSplineSet
Validated: 1572865
EndChar

StartChar: u
Encoding: 117 117 88
Width: 808
GlyphClass: 2
Flags: W
AnchorPoint: "Anchor-0" 640 0 basechar 0
LayerCount: 2
UndoRedoHistory
Layer: 1
Undoes
EndUndoes
Redoes
EndRedoes
EndUndoRedoHistory
Fore
SplineSet
247 -19 m 0,0,1
 162 -18 162 -18 118 44 c 0,2,3
 85 91 85 91 86 179 c 0,4,5
 86 207 86 207 89 240 c 2,6,-1
 187 1184 l 1,7,-1
 297 1184 l 1,8,-1
 199 252 l 2,9,10
 196 223 196 223 196 198 c 0,11,12
 196 138 196 138 216 108 c 0,13,14
 244 66 244 66 304 66 c 0,15,16
 364 66 364 66 432 104.5 c 128,-1,17
 500 143 500 143 562 209 c 1,18,-1
 664 1184 l 1,19,-1
 773 1184 l 1,20,-1
 649 0 l 1,21,-1
 540 0 l 1,22,-1
 555 139 l 1,23,24
 412 -19 412 -19 247 -19 c 0,0,1
EndSplineSet
Validated: 1048609
EndChar

StartChar: v
Encoding: 118 118 89
Width: 731
GlyphClass: 2
Flags: W
LayerCount: 2
UndoRedoHistory
Layer: 1
Undoes
EndUndoes
Redoes
EndRedoes
EndUndoRedoHistory
Fore
SplineSet
269 0 m 1,0,-1
 120 1184 l 1,1,-1
 231 1184 l 1,2,-1
 343 138 l 1,3,-1
 668 1184 l 1,4,-1
 774 1184 l 1,5,-1
 390 0 l 1,6,-1
 269 0 l 1,0,-1
EndSplineSet
Validated: 1
EndChar

StartChar: w
Encoding: 119 119 90
Width: 1160
GlyphClass: 2
Flags: W
LayerCount: 2
UndoRedoHistory
Layer: 1
Undoes
EndUndoes
Redoes
EndRedoes
EndUndoRedoHistory
Fore
SplineSet
220 0 m 1,0,-1
 149 1184 l 1,1,-1
 245 1184 l 1,2,-1
 298 124 l 1,3,-1
 612 1184 l 1,4,-1
 717 1184 l 1,5,-1
 814 129 l 1,6,-1
 1078 1184 l 1,7,-1
 1174 1184 l 1,8,-1
 861 0 l 1,9,-1
 748 0 l 1,10,-1
 652 1039 l 1,11,-1
 343 0 l 1,12,-1
 220 0 l 1,0,-1
EndSplineSet
Validated: 1
EndChar

StartChar: x
Encoding: 120 120 91
Width: 767
GlyphClass: 2
Flags: W
LayerCount: 2
UndoRedoHistory
Layer: 1
Undoes
EndUndoes
Redoes
EndRedoes
EndUndoRedoHistory
Fore
SplineSet
-1 0 m 1,0,-1
 352 617 l 1,1,-1
 141 1184 l 1,2,-1
 252 1184 l 1,3,-1
 425 714 l 1,4,-1
 692 1184 l 1,5,-1
 805 1184 l 1,6,-1
 464 606 l 1,7,-1
 685 0 l 1,8,-1
 582 0 l 1,9,-1
 394 504 l 1,10,-1
 106 0 l 1,11,-1
 -1 0 l 1,0,-1
EndSplineSet
Validated: 1
EndChar

StartChar: y
Encoding: 121 121 92
Width: 767
GlyphClass: 2
Flags: W
LayerCount: 2
UndoRedoHistory
Layer: 1
Undoes
EndUndoes
Redoes
EndRedoes
EndUndoRedoHistory
Fore
SplineSet
2 -295 m 1,0,-1
 12 -207 l 1,1,2
 81 -207 81 -207 129.5 -200 c 128,-1,3
 178 -193 178 -193 207 -180.5 c 128,-1,4
 236 -168 236 -168 253 -146.5 c 128,-1,5
 270 -125 270 -125 276 -102 c 0,6,7
 283 -75 283 -75 283 -40 c 0,8,9
 283 -6 283 -6 267 120 c 2,10,-1
 130 1184 l 1,11,-1
 238 1184 l 1,12,-1
 358 103 l 1,13,-1
 696 1184 l 1,14,-1
 804 1184 l 1,15,-1
 381 -97 l 1,16,17
 345 -202 345 -202 268 -248.5 c 128,-1,18
 191 -295 191 -295 48 -295 c 2,19,-1
 2 -295 l 1,0,-1
EndSplineSet
Validated: 1
EndChar

StartChar: z
Encoding: 122 122 93
Width: 666
GlyphClass: 2
Flags: W
LayerCount: 2
UndoRedoHistory
Layer: 1
Undoes
EndUndoes
Redoes
EndRedoes
EndUndoRedoHistory
Fore
SplineSet
24 0 m 1,0,-1
 32 79 l 1,1,-1
 567 1100 l 1,2,-1
 184 1100 l 1,3,-1
 192 1184 l 1,4,-1
 687 1184 l 1,5,-1
 680 1113 l 1,6,-1
 147 83 l 1,7,-1
 563 83 l 1,8,-1
 555 0 l 1,9,-1
 24 0 l 1,0,-1
EndSplineSet
Validated: 1
EndChar

StartChar: braceleft
Encoding: 123 123 94
Width: 475
GlyphClass: 2
Flags: W
LayerCount: 2
UndoRedoHistory
Layer: 1
Undoes
EndUndoes
Redoes
EndRedoes
EndUndoRedoHistory
Fore
SplineSet
365 -305 m 1,0,1
 327 -305 327 -305 300.5 -304 c 128,-1,2
 274 -303 274 -303 249.5 -297 c 128,-1,3
 225 -291 225 -291 209.5 -285.5 c 128,-1,4
 194 -280 194 -280 181 -264 c 128,-1,5
 168 -248 168 -248 161 -235.5 c 128,-1,6
 154 -223 154 -223 150 -194.5 c 128,-1,7
 146 -166 146 -166 146 -143 c 0,8,9
 146 -139 146 -139 145 -135 c 0,10,11
 146 -113 146 -113 148 -75 c 0,12,13
 150 -30 150 -30 153.5 7 c 128,-1,14
 157 44 157 44 164 108 c 2,15,-1
 190 358 l 1,16,17
 200 447 200 447 200 505 c 0,18,19
 200 557 200 557 192 585 c 0,20,21
 175 644 175 644 101 644 c 1,22,-1
 111 738 l 1,23,24
 184 738 184 738 213 795 c 128,-1,25
 242 852 242 852 260 1024 c 2,26,-1
 285 1261 l 2,27,28
 296 1367 296 1367 303 1420 c 128,-1,29
 310 1473 310 1473 324.5 1529 c 128,-1,30
 339 1585 339 1585 354.5 1606 c 128,-1,31
 370 1627 370 1627 402 1646.5 c 128,-1,32
 434 1666 434 1666 472 1670 c 128,-1,33
 510 1674 510 1674 573 1674 c 1,34,-1
 564 1592 l 1,35,36
 463 1592 463 1592 440 1546 c 128,-1,37
 417 1500 417 1500 393 1261 c 1,38,-1
 364 992 l 2,39,40
 348 840 348 840 317 775.5 c 128,-1,41
 286 711 286 711 221 691 c 1,42,43
 282 670 282 670 300 606 c 0,44,45
 309 572 309 572 309 515 c 0,46,47
 309 462 309 462 301 390 c 2,48,-1
 271 108 l 2,49,50
 253 -64 253 -64 253 -127 c 0,51,52
 253 -141 253 -141 254 -150 c 0,53,54
 259 -202 259 -202 295 -214 c 0,55,56
 317 -222 317 -222 373 -222 c 1,57,-1
 365 -305 l 1,0,1
EndSplineSet
Validated: 1
EndChar

StartChar: bar
Encoding: 124 124 95
Width: 418
GlyphClass: 2
Flags: W
LayerCount: 2
UndoRedoHistory
Layer: 1
Undoes
EndUndoes
Redoes
EndRedoes
EndUndoRedoHistory
Fore
SplineSet
85 -289 m 1,0,-1
 290 1658 l 1,1,-1
 392 1658 l 1,2,-1
 187 -289 l 1,3,-1
 85 -289 l 1,0,-1
EndSplineSet
Validated: 1
EndChar

StartChar: braceright
Encoding: 125 125 96
Width: 487
GlyphClass: 2
Flags: W
LayerCount: 2
UndoRedoHistory
Layer: 1
Undoes
EndUndoes
Redoes
EndRedoes
EndUndoRedoHistory
Fore
SplineSet
-27 -305 m 1,0,-1
 -18 -222 l 1,1,2
 83 -222 83 -222 106 -176 c 128,-1,3
 129 -130 129 -130 154 108 c 2,4,-1
 183 390 l 2,5,6
 199 542 199 542 230.5 606.5 c 128,-1,7
 262 671 262 671 327 691 c 1,8,9
 266 711 266 711 248 775 c 0,10,11
 238 809 238 809 238 868 c 0,12,13
 238 920 238 920 246 992 c 2,14,-1
 275 1261 l 1,15,16
 293 1415 293 1415 293 1489 c 0,17,18
 293 1528 293 1528 288 1544 c 0,19,20
 274 1592 274 1592 173 1592 c 1,21,-1
 181 1674 l 1,22,23
 219 1674 219 1674 245.5 1673 c 128,-1,24
 272 1672 272 1672 296.5 1666 c 128,-1,25
 321 1660 321 1660 336.5 1654.5 c 128,-1,26
 352 1649 352 1649 365 1633 c 128,-1,27
 378 1617 378 1617 385 1604.5 c 128,-1,28
 392 1592 392 1592 396 1563.5 c 128,-1,29
 400 1535 400 1535 400 1512 c 0,30,31
 400 1508 400 1508 401 1504 c 0,32,33
 400 1482 400 1482 398 1444 c 0,34,35
 396 1399 396 1399 392.5 1362 c 128,-1,36
 389 1325 389 1325 382 1261 c 2,37,-1
 357 1024 l 1,38,39
 347 935 347 935 347 877 c 0,40,41
 347 825 347 825 355 797 c 0,42,43
 372 738 372 738 446 738 c 1,44,-1
 436 644 l 1,45,46
 362 644 362 644 333.5 586.5 c 128,-1,47
 305 529 305 529 287 358 c 2,48,-1
 261 108 l 2,49,50
 250 2 250 2 243 -51 c 128,-1,51
 236 -104 236 -104 221.5 -160 c 128,-1,52
 207 -216 207 -216 191.5 -237 c 128,-1,53
 176 -258 176 -258 144 -277.5 c 128,-1,54
 112 -297 112 -297 74 -301 c 128,-1,55
 36 -305 36 -305 -27 -305 c 1,0,-1
EndSplineSet
Validated: 1
EndChar

StartChar: asciitilde
Encoding: 126 126 97
Width: 783
GlyphClass: 2
Flags: W
LayerCount: 2
UndoRedoHistory
Layer: 1
Undoes
EndUndoes
Redoes
EndRedoes
EndUndoRedoHistory
Fore
SplineSet
566 781 m 0,0,1
 525 781 525 781 432.5 837 c 128,-1,2
 340 893 340 893 309 893 c 0,3,4
 263 893 263 893 165 808 c 1,5,-1
 130 858 l 1,6,7
 245 975 245 975 325 975 c 0,8,9
 365 975 365 975 457 920 c 128,-1,10
 549 865 549 865 578 865 c 0,11,12
 597 865 597 865 619 875 c 128,-1,13
 641 885 641 885 656 895.5 c 128,-1,14
 671 906 671 906 716 938 c 1,15,-1
 751 888 l 1,16,17
 632 781 632 781 566 781 c 0,0,1
EndSplineSet
Validated: 1
EndChar

StartChar: exclamdown
Encoding: 161 161 99
Width: 404
GlyphClass: 2
Flags: W
LayerCount: 2
UndoRedoHistory
Layer: 1
Undoes
EndUndoes
Redoes
EndRedoes
EndUndoRedoHistory
Fore
SplineSet
53 -415 m 1,0,-1
 233 886 l 1,1,-1
 273 886 l 1,2,-1
 177 -415 l 1,3,-1
 53 -415 l 1,0,-1
214 1092 m 1,4,-1
 230 1243 l 1,5,-1
 353 1243 l 1,6,-1
 338 1092 l 1,7,-1
 214 1092 l 1,4,-1
EndSplineSet
Validated: 1
EndChar

StartChar: cent
Encoding: 162 162 100
Width: 776
GlyphClass: 2
Flags: W
LayerCount: 2
UndoRedoHistory
Layer: 1
Undoes
EndUndoes
Redoes
EndRedoes
EndUndoRedoHistory
Fore
SplineSet
282 -229 m 1,0,-1
 304 -17 l 1,1,2
 223 -9 223 -9 174 30 c 128,-1,3
 125 69 125 69 108 130.5 c 0,4,5
 90 192 90 192 88 273 c 0,6,7
 88 287 88 287 88 301 c 0,8,9
 88 369 88 369 98 445 c 1,10,-1
 128 723 l 1,11,12
 154 977 154 977 223 1084.5 c 128,-1,13
 292 1192 292 1192 444 1202 c 1,14,-1
 465 1409 l 1,15,-1
 523 1409 l 1,16,-1
 500 1202 l 1,17,18
 581 1198 581 1198 633 1167 c 128,-1,19
 685 1136 685 1136 705.5 1085 c 128,-1,20
 726 1034 726 1034 732 966 c 0,21,22
 734 943 734 943 733 920 c 0,23,24
 733 872 733 872 726 820 c 1,25,-1
 721 772 l 1,26,-1
 618 772 l 1,27,-1
 623 819 l 1,28,29
 631 877 631 877 630.5 923.5 c 128,-1,30
 630 970 630 970 623 1004 c 0,31,32
 608 1072 608 1072 572.5 1096.5 c 128,-1,33
 537 1121 537 1121 469 1121 c 0,34,35
 420 1121 420 1121 385.5 1107 c 128,-1,36
 351 1093 351 1093 326.5 1066.5 c 128,-1,37
 302 1040 302 1040 285 991.5 c 128,-1,38
 268 943 268 943 257.5 884 c 128,-1,39
 247 825 247 825 238 736 c 2,40,-1
 205 429 l 2,41,42
 197 347 197 347 197 285 c 0,43,44
 197 193 197 193 215 145 c 0,45,46
 246 63 246 63 359 63 c 0,47,48
 473 63 473 63 516 136 c 128,-1,49
 559 209 559 209 579 397 c 1,50,-1
 583 443 l 1,51,-1
 686 443 l 1,52,-1
 682 399 l 2,53,54
 674 321 674 321 663 266 c 128,-1,55
 652 211 652 211 629.5 154 c 128,-1,56
 607 97 607 97 573.5 62.5 c 128,-1,57
 540 28 540 28 486.5 5.5 c 128,-1,58
 433 -17 433 -17 361 -19 c 1,59,-1
 339 -229 l 1,60,-1
 282 -229 l 1,0,-1
EndSplineSet
Validated: 524321
EndChar

StartChar: sterling
Encoding: 163 163 101
Width: 740
GlyphClass: 2
Flags: W
LayerCount: 2
UndoRedoHistory
Layer: 1
Undoes
EndUndoes
Redoes
EndRedoes
EndUndoRedoHistory
Fore
SplineSet
-11 0 m 1,0,-1
 -5 56 l 1,1,-1
 125 79 l 1,2,-1
 201 804 l 1,3,-1
 74 804 l 1,4,-1
 82 884 l 1,5,-1
 210 884 l 1,6,-1
 237 1145 l 2,7,8
 246 1234 246 1234 256.5 1297 c 128,-1,9
 267 1360 267 1360 284.5 1425 c 128,-1,10
 302 1490 302 1490 327 1532.5 c 128,-1,11
 352 1575 352 1575 388.5 1610 c 128,-1,12
 425 1645 425 1645 476 1661 c 128,-1,13
 527 1677 527 1677 593 1677 c 0,14,15
 669 1677 669 1677 717.5 1652 c 128,-1,16
 766 1627 766 1627 785.5 1582.5 c 0,17,18
 804 1538 804 1538 810 1478 c 0,19,20
 812 1455 812 1455 813 1431 c 0,21,22
 813 1391 813 1391 807 1348 c 1,23,-1
 803 1307 l 1,24,-1
 720 1307 l 1,25,26
 727 1370 727 1370 727 1418 c 0,27,28
 727 1491 727 1491 711 1530 c 0,29,30
 685 1594 685 1594 583 1594 c 0,31,32
 545 1594 545 1594 514.5 1583.5 c 128,-1,33
 484 1573 484 1573 462 1557 c 128,-1,34
 440 1541 440 1541 423 1511 c 128,-1,35
 406 1481 406 1481 395.5 1452 c 128,-1,36
 385 1423 385 1423 375.5 1375.5 c 128,-1,37
 366 1328 366 1328 361 1289.5 c 128,-1,38
 356 1251 356 1251 349 1189 c 2,39,-1
 317 884 l 1,40,-1
 607 884 l 1,41,-1
 599 804 l 1,42,-1
 309 804 l 1,43,-1
 233 79 l 1,44,-1
 669 79 l 1,45,-1
 661 0 l 1,46,-1
 -11 0 l 1,0,-1
EndSplineSet
Validated: 524289
EndChar

StartChar: currency
Encoding: 164 164 102
Width: 1048
GlyphClass: 2
Flags: W
LayerCount: 2
UndoRedoHistory
Layer: 1
Undoes
EndUndoes
Redoes
EndRedoes
EndUndoRedoHistory
Fore
SplineSet
69 381 m 1,0,-1
 42 411 l 1,1,-1
 222 573 l 1,2,3
 139 678 139 678 139 815 c 0,4,5
 139 840 139 840 142 866 c 0,6,7
 160 1035 160 1035 284 1159 c 1,8,-1
 138 1321 l 1,9,-1
 171 1351 l 1,10,-1
 316 1189 l 1,11,12
 451 1304 451 1304 618 1304 c 0,13,14
 619 1304 619 1304 620.5 1304 c 129,-1,15
 622 1304 622 1304 624 1304 c 0,16,17
 793 1304 793 1304 902 1189 c 1,18,-1
 1081 1351 l 1,19,-1
 1108 1321 l 1,20,-1
 929 1159 l 1,21,22
 1011 1054 1011 1054 1011 918 c 0,23,24
 1011 893 1011 893 1008 866 c 0,25,26
 990 697 990 697 866 573 c 1,27,-1
 1012 411 l 1,28,-1
 979 381 l 1,29,-1
 834 543 l 1,30,31
 701 428 701 428 532 428 c 0,32,33
 531 428 531 428 529.5 428 c 129,-1,34
 528 428 528 428 526 428 c 0,35,36
 359 428 359 428 248 543 c 1,37,-1
 69 381 l 1,0,-1
536 486 m 0,38,39
 691 486 691 486 809 597 c 128,-1,40
 927 708 927 708 944 866 c 0,41,42
 947 890 947 890 947 913 c 0,43,44
 947 1041 947 1041 866 1135 c 0,45,46
 771 1246 771 1246 615 1246 c 0,47,48
 460 1246 460 1246 342 1135 c 128,-1,49
 224 1024 224 1024 207 866 c 0,50,51
 204 842 204 842 204 819 c 0,52,53
 204 692 204 692 285 598 c 0,54,55
 380 486 380 486 536 486 c 0,38,39
EndSplineSet
Validated: 1
EndChar

StartChar: yen
Encoding: 165 165 103
Width: 860
GlyphClass: 2
Flags: W
LayerCount: 2
UndoRedoHistory
Layer: 1
Undoes
EndUndoes
Redoes
EndRedoes
EndUndoRedoHistory
Fore
SplineSet
344 0 m 1,0,-1
 367 219 l 1,1,-1
 150 219 l 1,2,-1
 158 293 l 1,3,-1
 375 293 l 1,4,-1
 397 508 l 1,5,-1
 180 508 l 1,6,-1
 188 581 l 1,7,-1
 388 581 l 1,8,-1
 136 1658 l 1,9,-1
 250 1658 l 1,10,-1
 471 663 l 1,11,-1
 885 1658 l 1,12,-1
 999 1658 l 1,13,-1
 533 581 l 1,14,-1
 730 581 l 1,15,-1
 722 508 l 1,16,-1
 509 508 l 1,17,-1
 486 293 l 1,18,-1
 699 293 l 1,19,-1
 691 219 l 1,20,-1
 478 219 l 1,21,-1
 455 0 l 1,22,-1
 344 0 l 1,0,-1
EndSplineSet
Validated: 1
EndChar

StartChar: brokenbar
Encoding: 166 166 104
Width: 401
GlyphClass: 2
Flags: W
LayerCount: 2
UndoRedoHistory
Layer: 1
Undoes
EndUndoes
Redoes
EndRedoes
EndUndoRedoHistory
Fore
SplineSet
71 -368 m 1,0,-1
 162 489 l 1,1,-1
 258 489 l 1,2,-1
 168 -368 l 1,3,-1
 71 -368 l 1,0,-1
194 801 m 1,4,-1
 284 1658 l 1,5,-1
 380 1658 l 1,6,-1
 290 801 l 1,7,-1
 194 801 l 1,4,-1
EndSplineSet
Validated: 1
EndChar

StartChar: section
Encoding: 167 167 105
Width: 787
GlyphClass: 2
Flags: W
LayerCount: 2
UndoRedoHistory
Layer: 1
Undoes
EndUndoes
Redoes
EndRedoes
EndUndoRedoHistory
Fore
SplineSet
356 -19 m 0,0,1
 291 -19 291 -19 240 7 c 128,-1,2
 189 33 189 33 156.5 78.5 c 128,-1,3
 124 124 124 124 105 178.5 c 128,-1,4
 86 233 86 233 77 298 c 1,5,-1
 164 326 l 1,6,7
 178 215 178 215 230 141 c 128,-1,8
 282 67 282 67 369 67 c 0,9,10
 452 67 452 67 508.5 114 c 128,-1,11
 565 161 565 161 575 240 c 0,12,13
 577 258 577 258 577 273 c 0,14,15
 576 290 576 290 574 306 c 0,16,17
 568 335 568 335 533.5 392.5 c 128,-1,18
 499 450 499 450 426 532 c 1,19,-1
 223 742 l 1,20,21
 131 832 131 832 131 933 c 0,22,23
 131 945 131 945 132 957 c 0,24,25
 141 1044 141 1044 200 1102 c 128,-1,26
 259 1160 259 1160 342 1187 c 1,27,28
 284 1250 284 1250 252 1306 c 0,29,30
 226 1352 226 1352 226 1404 c 0,31,32
 226 1415 226 1415 227 1427 c 0,33,34
 239 1536 239 1536 320.5 1605.5 c 128,-1,35
 402 1675 402 1675 529 1675 c 0,36,37
 591 1675 591 1675 637.5 1649.5 c 128,-1,38
 684 1624 684 1624 713 1578 c 128,-1,39
 742 1532 742 1532 758.5 1488 c 128,-1,40
 775 1444 775 1444 788 1387 c 1,41,-1
 697 1359 l 1,42,43
 690 1393 690 1393 682.5 1418.5 c 128,-1,44
 675 1444 675 1444 660 1478 c 128,-1,45
 645 1512 645 1512 627 1534 c 128,-1,46
 609 1556 609 1556 580.5 1571.5 c 128,-1,47
 552 1587 552 1587 517 1587 c 0,48,49
 444 1587 444 1587 392 1544 c 128,-1,50
 340 1501 340 1501 332 1422 c 0,51,52
 331 1416 331 1416 331 1409 c 0,53,54
 331 1324 331 1324 449 1204 c 1,55,-1
 640 1028 l 1,56,57
 716 954 716 954 748 882 c 0,58,59
 769 836 769 836 769 780 c 0,60,61
 769 749 769 749 763 715 c 1,62,63
 749 632 749 632 700 582.5 c 128,-1,64
 651 533 651 533 574 496 c 1,65,66
 603 458 603 458 613.5 442.5 c 128,-1,67
 624 427 624 427 644 392.5 c 128,-1,68
 664 358 664 358 670 326 c 0,69,70
 674 304 674 304 674 280 c 0,71,72
 674 268 674 268 673 256 c 0,73,74
 662 130 662 130 574 55.5 c 128,-1,75
 486 -19 486 -19 356 -19 c 0,0,1
517 555 m 1,76,77
 572 578 572 578 616 619 c 128,-1,78
 660 660 660 660 672 715 c 0,79,80
 678 740 678 740 678 764 c 0,81,82
 678 804 678 804 662 840 c 0,83,84
 637 898 637 898 567 965 c 2,85,-1
 398 1129 l 1,86,87
 329 1109 329 1109 285.5 1066 c 128,-1,88
 242 1023 242 1023 236 960 c 1,89,90
 235 952 235 952 235 943 c 0,91,92
 235 879 235 879 295 811 c 2,93,-1
 517 555 l 1,76,77
EndSplineSet
Validated: 1
EndChar

StartChar: dieresis
Encoding: 168 168 106
Width: 762
GlyphClass: 2
Flags: W
LayerCount: 2
UndoRedoHistory
Layer: 1
Undoes
EndUndoes
Redoes
EndRedoes
EndUndoRedoHistory
Fore
SplineSet
266 1504 m 1,0,-1
 282 1658 l 1,1,-1
 395 1658 l 1,2,-1
 379 1504 l 1,3,-1
 266 1504 l 1,0,-1
593 1504 m 1,4,-1
 609 1658 l 1,5,-1
 723 1658 l 1,6,-1
 706 1504 l 1,7,-1
 593 1504 l 1,4,-1
EndSplineSet
Validated: 1
EndChar

StartChar: copyright
Encoding: 169 169 107
Width: 1765
GlyphClass: 2
Flags: W
LayerCount: 2
UndoRedoHistory
Layer: 1
Undoes
EndUndoes
Redoes
EndRedoes
EndUndoRedoHistory
Fore
SplineSet
840 245 m 0,0,1
 778 245 778 245 730 258 c 128,-1,2
 682 271 682 271 650 293 c 128,-1,3
 618 315 618 315 597 351 c 128,-1,4
 576 387 576 387 565 425.5 c 128,-1,5
 554 464 554 464 551 518 c 0,6,7
 549 547 549 547 549 575 c 0,8,9
 548 600 548 600 550 622 c 0,10,11
 552 672 552 672 560 738 c 2,12,-1
 585 979 l 1,13,14
 616 1268 616 1268 698 1378 c 128,-1,15
 780 1488 780 1488 970 1488 c 0,16,17
 1050 1488 1050 1488 1106 1469.5 c 128,-1,18
 1162 1451 1162 1451 1192 1417 c 0,19,20
 1222 1382 1222 1382 1236 1334 c 0,21,22
 1250 1287 1250 1287 1251 1230 c 0,23,24
 1251 1171 1251 1171 1243 1094 c 2,25,-1
 1237 1038 l 1,26,-1
 1132 1038 l 1,27,-1
 1138 1093 l 2,28,29
 1144 1148 1144 1148 1144 1192 c 0,30,31
 1144 1197 1144 1197 1145 1202 c 0,32,33
 1145 1240 1145 1240 1141 1268 c 0,34,35
 1137 1300 1137 1300 1126 1323.5 c 128,-1,36
 1115 1347 1115 1347 1101 1362 c 128,-1,37
 1087 1377 1087 1377 1065 1385.5 c 128,-1,38
 1043 1394 1043 1394 1019 1397 c 128,-1,39
 995 1400 995 1400 962 1400 c 0,40,41
 831 1400 831 1400 779 1314.5 c 128,-1,42
 727 1229 727 1229 702 992 c 2,43,-1
 674 721 l 2,44,45
 665 638 665 638 665 574 c 0,46,47
 665 470 665 470 688 418 c 0,48,49
 725 332 725 332 851 333 c 0,50,51
 918 333 918 333 959.5 348.5 c 128,-1,52
 1001 364 1001 364 1028.5 406 c 128,-1,53
 1056 448 1056 448 1069.5 507.5 c 128,-1,54
 1083 567 1083 567 1094 670 c 1,55,-1
 1099 726 l 1,56,-1
 1204 726 l 1,57,-1
 1199 673 l 2,58,59
 1193 611 1193 611 1186 567.5 c 128,-1,60
 1179 524 1179 524 1166.5 476 c 128,-1,61
 1154 428 1154 428 1137 396 c 128,-1,62
 1120 364 1120 364 1093.5 333 c 128,-1,63
 1067 302 1067 302 1032.5 284 c 128,-1,64
 998 266 998 266 949.5 255.5 c 128,-1,65
 901 245 901 245 840 245 c 0,0,1
846 39 m 128,-1,67
 998 39 998 39 1128.5 84 c 128,-1,68
 1259 129 1259 129 1353.5 205.5 c 128,-1,69
 1448 282 1448 282 1518.5 386 c 128,-1,70
 1589 490 1589 490 1629 605.5 c 128,-1,71
 1669 721 1669 721 1682 845 c 0,72,73
 1688 902 1688 902 1688 957 c 0,74,75
 1688 1023 1688 1023 1680 1085 c 0,76,77
 1664 1200 1664 1200 1615 1303 c 128,-1,78
 1566 1406 1566 1406 1487.5 1481.5 c 128,-1,79
 1409 1557 1409 1557 1288 1601.5 c 128,-1,80
 1167 1646 1167 1646 1015 1646 c 128,-1,81
 863 1646 863 1646 732 1601.5 c 128,-1,82
 601 1557 601 1557 506.5 1481.5 c 128,-1,83
 412 1406 412 1406 342 1303 c 128,-1,84
 272 1200 272 1200 232.5 1085 c 128,-1,85
 193 970 193 970 180 845 c 0,86,87
 174 787 174 787 174 732 c 0,88,89
 174 668 174 668 182 606 c 0,90,91
 197 490 197 490 245.5 386 c 128,-1,92
 294 282 294 282 372.5 205.5 c 128,-1,93
 451 129 451 129 572.5 84 c 128,-1,66
 694 39 694 39 846 39 c 128,-1,67
838 -22 m 0,94,95
 731 -22 731 -22 637 -2 c 128,-1,96
 543 18 543 18 470.5 54.5 c 128,-1,97
 398 91 398 91 337.5 142 c 128,-1,98
 277 193 277 193 236 254.5 c 128,-1,99
 195 316 195 316 164 386.5 c 128,-1,100
 133 457 133 457 119.5 532.5 c 128,-1,101
 106 608 106 608 100 686 c 0,102,103
 98 712 98 712 99 739 c 0,104,105
 99 791 99 791 106 843 c 1,106,107
 119 972 119 972 160.5 1093.5 c 128,-1,108
 202 1215 202 1215 278.5 1327.5 c 128,-1,109
 355 1440 355 1440 457.5 1524 c 128,-1,110
 560 1608 560 1608 705 1658 c 128,-1,111
 850 1708 850 1708 1020 1708 c 0,112,113
 1189 1708 1189 1708 1323.5 1658 c 128,-1,114
 1458 1608 1458 1608 1542.5 1524 c 128,-1,115
 1627 1440 1627 1440 1679.5 1327.5 c 0,116,117
 1732 1216 1732 1216 1748 1094 c 0,118,119
 1757 1027 1757 1027 1757 957 c 0,120,121
 1757 901 1757 901 1751 843 c 0,122,123
 1737 714 1737 714 1696 592.5 c 128,-1,124
 1655 471 1655 471 1579 358.5 c 128,-1,125
 1503 246 1503 246 1400.5 162 c 128,-1,126
 1298 78 1298 78 1153 28 c 128,-1,127
 1008 -22 1008 -22 838 -22 c 0,94,95
EndSplineSet
Validated: 524321
EndChar

StartChar: ordfeminine
Encoding: 170 170 108
Width: 803
GlyphClass: 2
Flags: W
LayerCount: 2
UndoRedoHistory
Layer: 1
Undoes
EndUndoes
Redoes
EndRedoes
EndUndoRedoHistory
Fore
SplineSet
386 719 m 0,0,1
 292 719 292 719 240 774 c 0,2,3
 197 820 197 820 197 892 c 0,4,5
 197 906 197 906 199 921 c 0,6,7
 206 982 206 982 226 1022 c 128,-1,8
 246 1062 246 1062 301 1103 c 128,-1,9
 356 1144 356 1144 435.5 1180.5 c 128,-1,10
 515 1217 515 1217 659 1273 c 1,11,-1
 667 1351 l 1,12,13
 673 1407 673 1407 673 1449 c 0,14,15
 674 1517 674 1517 658 1551 c 0,16,17
 632 1607 632 1607 555 1607 c 0,18,19
 391 1607 391 1607 371 1422 c 1,20,-1
 281 1424 l 1,21,22
 313 1680 313 1680 563 1680 c 0,23,24
 695 1680 695 1680 738 1602 c 0,25,26
 768 1548 768 1548 768 1443 c 0,27,28
 768 1397 768 1397 762 1342 c 2,29,-1
 698 733 l 1,30,-1
 616 733 l 1,31,-1
 620 852 l 1,32,33
 586 793 586 793 522 756 c 128,-1,34
 458 719 458 719 386 719 c 0,0,1
415 794 m 0,35,36
 537 794 537 794 623 927 c 1,37,-1
 654 1218 l 1,38,39
 453 1131 453 1131 400 1097 c 0,40,41
 327 1050 327 1050 306 986 c 0,42,43
 298 962 298 962 295 931 c 0,44,45
 294 918 294 918 294 906 c 0,46,47
 294 852 294 852 324 826 c 0,48,49
 360 794 360 794 415 794 c 0,35,36
EndSplineSet
Validated: 33
EndChar

StartChar: guillemotleft
Encoding: 171 171 109
Width: 837
GlyphClass: 2
Flags: W
LayerCount: 2
UndoRedoHistory
Layer: 1
Undoes
EndUndoes
Redoes
EndRedoes
EndUndoRedoHistory
Fore
SplineSet
410 232 m 1,0,-1
 110 658 l 1,1,-1
 114 701 l 1,2,-1
 503 1126 l 1,3,-1
 488 986 l 1,4,-1
 212 683 l 1,5,-1
 424 372 l 1,6,-1
 410 232 l 1,0,-1
706 232 m 1,7,-1
 406 658 l 1,8,-1
 410 701 l 1,9,-1
 800 1126 l 1,10,-1
 785 986 l 1,11,-1
 508 680 l 1,12,-1
 721 372 l 1,13,-1
 706 232 l 1,7,-1
EndSplineSet
Validated: 1
EndChar

StartChar: logicalnot
Encoding: 172 172 110
Width: 715
GlyphClass: 2
Flags: W
LayerCount: 2
UndoRedoHistory
Layer: 1
Undoes
EndUndoes
Redoes
EndRedoes
EndUndoRedoHistory
Fore
SplineSet
596 582 m 1,0,-1
 620 812 l 1,1,-1
 127 812 l 1,2,-1
 136 902 l 1,3,-1
 706 902 l 1,4,-1
 673 582 l 1,5,-1
 596 582 l 1,0,-1
EndSplineSet
Validated: 1
EndChar

StartChar: uni00AD
Encoding: 173 173 111
Width: 672
GlyphClass: 2
Flags: W
LayerCount: 2
UndoRedoHistory
Layer: 1
Undoes
EndUndoes
Redoes
EndRedoes
EndUndoRedoHistory
Fore
SplineSet
142 639 m 1,0,-1
 151 724 l 1,1,-1
 600 724 l 1,2,-1
 592 639 l 1,3,-1
 142 639 l 1,0,-1
EndSplineSet
Validated: 1
EndChar

StartChar: registered
Encoding: 174 174 112
Width: 1780
GlyphClass: 2
Flags: W
LayerCount: 2
UndoRedoHistory
Layer: 1
Undoes
EndUndoes
Redoes
EndRedoes
EndUndoRedoHistory
Fore
SplineSet
602 226 m 1,0,-1
 732 1471 l 1,1,-1
 1077 1471 l 2,2,3
 1328 1471 1328 1471 1328 1221 c 0,4,5
 1328 1191 1328 1191 1324 1157 c 0,6,7
 1311 1038 1311 1038 1256 957 c 128,-1,8
 1201 876 1201 876 1091 857 c 1,9,-1
 1237 226 l 1,10,-1
 1136 226 l 1,11,-1
 998 841 l 1,12,-1
 764 841 l 1,13,-1
 699 226 l 1,14,-1
 602 226 l 1,0,-1
770 908 m 1,15,-1
 998 908 l 2,16,17
 1060 908 1060 908 1102.5 924.5 c 128,-1,18
 1145 941 1145 941 1169.5 976 c 128,-1,19
 1194 1011 1194 1011 1206.5 1053 c 128,-1,20
 1219 1095 1219 1095 1225 1158 c 0,21,22
 1228 1191 1228 1191 1228 1219 c 0,23,24
 1228 1296 1228 1296 1202 1338 c 0,25,26
 1166 1396 1166 1396 1060 1397 c 2,27,-1
 822 1397 l 1,28,-1
 770 908 l 1,15,-1
853 42 m 0,29,30
 1003 42 1003 42 1132 86.5 c 128,-1,31
 1261 131 1261 131 1354.5 207 c 128,-1,32
 1448 283 1448 283 1517.5 385.5 c 128,-1,33
 1587 488 1587 488 1626.5 602.5 c 128,-1,34
 1666 717 1666 717 1679 840 c 0,35,36
 1685 897 1685 897 1685 951 c 0,37,38
 1684 1016 1684 1016 1676 1078 c 0,39,40
 1660 1192 1660 1192 1612.5 1294 c 128,-1,41
 1565 1396 1565 1396 1487.5 1471.5 c 128,-1,42
 1410 1547 1410 1547 1290 1591 c 128,-1,43
 1170 1635 1170 1635 1020 1635 c 0,44,45
 869 1635 869 1635 739.5 1591 c 128,-1,46
 610 1547 610 1547 516.5 1471.5 c 128,-1,47
 423 1396 423 1396 353.5 1294 c 128,-1,48
 284 1192 284 1192 245 1078 c 128,-1,49
 206 964 206 964 193 840 c 0,50,51
 187 783 187 783 187 728 c 0,52,53
 187 664 187 664 195 602 c 0,54,55
 210 488 210 488 258 385.5 c 128,-1,56
 306 283 306 283 383.5 207 c 128,-1,57
 461 131 461 131 581.5 86.5 c 128,-1,58
 702 42 702 42 853 42 c 0,29,30
846 -24 m 128,-1,60
 677 -24 677 -24 542.5 26 c 128,-1,61
 408 76 408 76 323.5 160 c 128,-1,62
 239 244 239 244 186.5 356.5 c 128,-1,63
 134 469 134 469 118 590 c 0,64,65
 109 655 109 655 109 721 c 0,66,67
 109 779 109 779 116 839 c 0,68,69
 127 945 127 945 158.5 1047.5 c 128,-1,70
 190 1150 190 1150 241.5 1247.5 c 128,-1,71
 293 1345 293 1345 369.5 1427 c 128,-1,72
 446 1509 446 1509 541 1570.5 c 128,-1,73
 636 1632 636 1632 760.5 1667 c 128,-1,74
 885 1702 885 1702 1027 1702 c 0,75,76
 1196 1702 1196 1702 1330 1652 c 128,-1,77
 1464 1602 1464 1602 1548.5 1518.5 c 128,-1,78
 1633 1435 1633 1435 1685 1322.5 c 128,-1,79
 1737 1210 1737 1210 1753 1089 c 0,80,81
 1762 1022 1762 1022 1762 953 c 0,82,83
 1762 897 1762 897 1756 839 c 0,84,85
 1743 710 1743 710 1701.5 589 c 128,-1,86
 1660 468 1660 468 1584.5 355.5 c 128,-1,87
 1509 243 1509 243 1407 159.5 c 128,-1,88
 1305 76 1305 76 1160 26 c 128,-1,59
 1015 -24 1015 -24 846 -24 c 128,-1,60
EndSplineSet
Validated: 1
EndChar

StartChar: macron
Encoding: 175 175 113
Width: 758
GlyphClass: 2
Flags: W
LayerCount: 2
UndoRedoHistory
Layer: 1
Undoes
EndUndoes
Redoes
EndRedoes
EndUndoRedoHistory
Fore
SplineSet
333 1583 m 1,0,-1
 340 1658 l 1,1,-1
 691 1658 l 1,2,-1
 683 1583 l 1,3,-1
 333 1583 l 1,0,-1
EndSplineSet
Validated: 1
EndChar

StartChar: degree
Encoding: 176 176 114
Width: 797
GlyphClass: 2
Flags: W
LayerCount: 2
UndoRedoHistory
Layer: 1
Undoes
EndUndoes
Redoes
EndRedoes
EndUndoRedoHistory
Fore
SplineSet
483 1202 m 0,0,1
 561 1202 561 1202 620 1252 c 128,-1,2
 679 1302 679 1302 690 1401 c 0,3,4
 692 1420 692 1420 692 1436 c 0,5,6
 692 1510 692 1510 652 1552 c 0,7,8
 603 1602 603 1602 524 1602.5 c 128,-1,9
 445 1603 445 1603 386.5 1552.5 c 128,-1,10
 328 1502 328 1502 317 1401 c 0,11,12
 315 1383 315 1383 315 1366 c 0,13,14
 315 1292 315 1292 355 1252 c 0,15,16
 404 1202 404 1202 483 1202 c 0,0,1
474 1127 m 0,17,18
 421 1127 421 1127 375 1142.5 c 128,-1,19
 329 1158 329 1158 292.5 1190 c 128,-1,20
 256 1222 256 1222 238 1276 c 0,21,22
 226 1315 226 1315 226 1363 c 0,23,24
 226 1382 226 1382 228 1402 c 0,25,26
 243 1539 243 1539 330.5 1607.5 c 128,-1,27
 418 1676 418 1676 532 1676 c 0,28,29
 585 1676 585 1676 631 1660.5 c 128,-1,30
 677 1645 677 1645 713.5 1613 c 128,-1,31
 750 1581 750 1581 768 1527 c 0,32,33
 780 1490 780 1490 780 1444 c 0,34,35
 780 1424 780 1424 778 1402 c 1,36,37
 769 1308 769 1308 720.5 1244 c 128,-1,38
 672 1180 672 1180 609 1153.5 c 128,-1,39
 546 1127 546 1127 474 1127 c 0,17,18
EndSplineSet
Validated: 33
EndChar

StartChar: plusminus
Encoding: 177 177 115
Width: 659
GlyphClass: 2
Flags: W
LayerCount: 2
UndoRedoHistory
Layer: 1
Undoes
EndUndoes
Redoes
EndRedoes
EndUndoRedoHistory
Fore
SplineSet
284 375 m 1,0,-1
 304 563 l 1,1,-1
 116 563 l 1,2,-1
 127 661 l 1,3,-1
 315 661 l 1,4,-1
 335 848 l 1,5,-1
 437 848 l 1,6,-1
 417 661 l 1,7,-1
 605 661 l 1,8,-1
 594 563 l 1,9,-1
 406 563 l 1,10,-1
 387 375 l 1,11,-1
 284 375 l 1,0,-1
57 0 m 1,12,-1
 67 98 l 1,13,-1
 545 98 l 1,14,-1
 535 0 l 1,15,-1
 57 0 l 1,12,-1
EndSplineSet
Validated: 1
EndChar

StartChar: twosuperior
Encoding: 178 178 116
Width: 802
GlyphClass: 2
Flags: W
LayerCount: 2
UndoRedoHistory
Layer: 1
Undoes
EndUndoes
Redoes
EndRedoes
EndUndoRedoHistory
Fore
SplineSet
195 741 m 1,0,-1
 203 820 l 1,1,-1
 520 1232 l 2,2,3
 530 1245 530 1245 553.5 1275.5 c 128,-1,4
 577 1306 577 1306 586.5 1319 c 128,-1,5
 596 1332 596 1332 613 1358.5 c 128,-1,6
 630 1385 630 1385 638 1404 c 128,-1,7
 646 1423 646 1423 654 1451 c 128,-1,8
 662 1479 662 1479 665 1508 c 0,9,10
 667 1529 667 1529 667 1548 c 0,11,12
 668 1608 668 1608 644 1643 c 0,13,14
 613 1688 613 1688 541 1688 c 0,15,16
 539 1688 539 1688 538 1688 c 0,17,18
 452 1687 452 1687 409.5 1634.5 c 128,-1,19
 367 1582 367 1582 355 1468 c 1,20,-1
 271 1468 l 1,21,-1
 274 1490 l 1,22,23
 288 1631 288 1631 355.5 1700 c 128,-1,24
 423 1769 423 1769 548 1769 c 0,25,26
 658 1769 658 1769 716 1703 c 0,27,28
 763 1649 763 1649 763 1557 c 0,29,30
 763 1536 763 1536 761 1514 c 0,31,32
 752 1432 752 1432 712.5 1359 c 128,-1,33
 673 1286 673 1286 596 1189 c 1,34,-1
 310 822 l 1,35,-1
 655 822 l 1,36,-1
 647 741 l 1,37,-1
 195 741 l 1,0,-1
EndSplineSet
Validated: 33
EndChar

StartChar: threesuperior
Encoding: 179 179 117
Width: 806
GlyphClass: 2
Flags: W
LayerCount: 2
UndoRedoHistory
Layer: 1
Undoes
EndUndoes
Redoes
EndRedoes
EndUndoRedoHistory
Fore
SplineSet
420 728 m 0,0,1
 305 728 305 728 257 794 c 0,2,3
 219 846 219 846 219 930 c 0,4,5
 219 951 219 951 221 974 c 1,6,-1
 222 991 l 1,7,-1
 318 991 l 1,8,-1
 316 969 l 1,9,10
 314 949 314 949 314 932 c 0,11,12
 314 880 314 880 334 850 c 0,13,14
 361 809 361 809 434 809 c 0,15,16
 586 809 586 809 607 1014 c 0,17,18
 610 1041 610 1041 610 1065 c 0,19,20
 610 1130 610 1130 588 1170 c 0,21,22
 558 1226 558 1226 493 1227 c 2,23,-1
 418 1227 l 1,24,-1
 426 1303 l 1,25,-1
 501 1303 l 2,26,27
 568 1303 568 1303 604.5 1352.5 c 128,-1,28
 641 1402 641 1402 654 1518 c 1,29,30
 656 1538 656 1538 656 1555 c 0,31,32
 656 1690 656 1690 541 1690 c 0,33,34
 465 1690 465 1690 426.5 1651.5 c 128,-1,35
 388 1613 388 1613 380 1534 c 2,36,-1
 378 1514 l 1,37,-1
 282 1514 l 1,38,-1
 284 1532 l 1,39,40
 309 1769 309 1769 548 1769 c 0,41,42
 660 1769 660 1769 709 1700 c 0,43,44
 749 1644 749 1644 749 1559 c 0,45,46
 749 1540 749 1540 747 1519 c 1,47,48
 735 1408 735 1408 691 1344.5 c 128,-1,49
 647 1281 647 1281 592 1269 c 1,50,51
 617 1259 617 1259 635.5 1245.5 c 128,-1,52
 654 1232 654 1232 673.5 1205 c 128,-1,53
 693 1178 693 1178 700 1130 c 0,54,55
 704 1106 704 1106 704 1078 c 128,-1,56
 704 1050 704 1050 700 1017 c 0,57,58
 687 887 687 887 615 807.5 c 128,-1,59
 543 728 543 728 420 728 c 0,0,1
EndSplineSet
Validated: 1
EndChar

StartChar: acute
Encoding: 180 180 118
Width: 422
GlyphClass: 2
Flags: W
LayerCount: 2
UndoRedoHistory
Layer: 1
Undoes
EndUndoes
Redoes
EndRedoes
EndUndoRedoHistory
Fore
SplineSet
177 1261 m 1,0,-1
 351 1658 l 1,1,-1
 460 1658 l 1,2,-1
 235 1261 l 1,3,-1
 177 1261 l 1,0,-1
EndSplineSet
Validated: 1
EndChar

StartChar: mu
Encoding: 181 181 119
Width: 835
GlyphClass: 2
Flags: W
LayerCount: 2
UndoRedoHistory
Layer: 1
Undoes
EndUndoes
Redoes
EndRedoes
EndUndoRedoHistory
Fore
SplineSet
27 -353 m 1,0,-1
 187 1184 l 1,1,-1
 297 1184 l 1,2,-1
 199 252 l 2,3,4
 196 223 196 223 196 198 c 0,5,6
 196 138 196 138 216 108 c 0,7,8
 244 66 244 66 304 66 c 0,9,10
 364 66 364 66 432 104.5 c 128,-1,11
 500 143 500 143 562 209 c 1,12,-1
 664 1184 l 1,13,-1
 773 1184 l 1,14,-1
 649 0 l 1,15,-1
 540 0 l 1,16,-1
 555 139 l 1,17,18
 425 -7 425 -7 272 -16 c 1,19,20
 209 -16 209 -16 176 17 c 1,21,-1
 137 -353 l 1,22,-1
 27 -353 l 1,0,-1
EndSplineSet
Validated: 1
EndChar

StartChar: paragraph
Encoding: 182 182 120
Width: 984
GlyphClass: 2
Flags: W
LayerCount: 2
UndoRedoHistory
Layer: 1
Undoes
EndUndoes
Redoes
EndRedoes
EndUndoRedoHistory
Fore
SplineSet
349 -192 m 1,0,-1
 485 1103 l 1,1,2
 480 1103 480 1103 476 1103 c 0,3,4
 316 1103 316 1103 230 1173 c 0,5,6
 155 1235 155 1235 155 1342 c 0,7,8
 155 1359 155 1359 157 1378 c 0,9,10
 170 1508 170 1508 265 1583 c 128,-1,11
 360 1658 360 1658 541 1658 c 2,12,-1
 962 1658 l 1,13,-1
 767 -192 l 1,14,-1
 685 -192 l 1,15,-1
 872 1585 l 1,16,-1
 618 1585 l 1,17,-1
 431 -192 l 1,18,-1
 349 -192 l 1,0,-1
EndSplineSet
Validated: 1
EndChar

StartChar: periodcentered
Encoding: 183 183 121
Width: 399
GlyphClass: 2
Flags: W
LayerCount: 2
UndoRedoHistory
Layer: 1
Undoes
EndUndoes
Redoes
EndRedoes
EndUndoRedoHistory
Fore
SplineSet
197 697 m 1,0,-1
 213 850 l 1,1,-1
 324 850 l 1,2,-1
 308 697 l 1,3,-1
 197 697 l 1,0,-1
EndSplineSet
Validated: 1
EndChar

StartChar: cedilla
Encoding: 184 184 122
Width: 428
GlyphClass: 4
Flags: W
AnchorPoint: "Anchor-1" 120 0 mark 0
LayerCount: 2
UndoRedoHistory
Layer: 1
Undoes
EndUndoes
Redoes
EndRedoes
EndUndoRedoHistory
Fore
SplineSet
-28 -378 m 1,0,-1
 -22 -320 l 1,1,2
 4 -322 4 -322 25 -322 c 0,3,4
 86 -322 86 -322 118 -310 c 0,5,6
 162 -294 162 -294 170 -248 c 0,7,8
 172 -237 172 -237 172 -228 c 0,9,10
 172 -192 172 -192 146 -168 c 0,11,12
 112 -138 112 -138 42 -127 c 1,13,-1
 55 0 l 1,14,-1
 115 0 l 1,15,-1
 105 -97 l 1,16,17
 184 -108 184 -108 223 -153 c 0,18,19
 255 -190 255 -190 255 -234 c 0,20,21
 255 -244 255 -244 253 -255 c 0,22,23
 233 -381 233 -381 38 -381 c 0,24,25
 7 -381 7 -381 -28 -378 c 1,0,-1
EndSplineSet
Validated: 1
EndChar

StartChar: onesuperior
Encoding: 185 185 123
Width: 786
GlyphClass: 2
Flags: W
LayerCount: 2
UndoRedoHistory
Layer: 1
Undoes
EndUndoes
Redoes
EndRedoes
EndUndoRedoHistory
Fore
SplineSet
426 741 m 1,0,-1
 521 1650 l 1,1,2
 457 1571 457 1571 335 1544 c 1,3,-1
 343 1616 l 1,4,5
 465 1663 465 1663 540 1761 c 1,6,-1
 625 1761 l 1,7,-1
 518 741 l 1,8,-1
 426 741 l 1,0,-1
EndSplineSet
Validated: 1
EndChar

StartChar: ordmasculine
Encoding: 186 186 124
Width: 803
GlyphClass: 2
Flags: W
LayerCount: 2
UndoRedoHistory
Layer: 1
Undoes
EndUndoes
Redoes
EndRedoes
EndUndoRedoHistory
Fore
SplineSet
440 787 m 0,0,1
 543 787 543 787 590 847 c 128,-1,2
 637 907 637 907 649 1020 c 2,3,-1
 686 1379 l 1,4,5
 690 1408 690 1408 690 1433 c 0,6,7
 690 1452 690 1452 688 1472 c 0,8,9
 682 1514 682 1514 666.5 1545 c 128,-1,10
 651 1576 651 1576 615.5 1593.5 c 128,-1,11
 580 1611 580 1611 527 1611 c 0,12,13
 425 1611 425 1611 377.5 1550.5 c 128,-1,14
 330 1490 330 1490 318 1379 c 2,15,-1
 281 1020 l 2,16,17
 278 991 278 991 278 965 c 0,18,19
 278 892 278 892 303 848 c 0,20,21
 337 788 337 788 440 787 c 0,0,1
434 718 m 128,-1,23
 355 718 355 718 302.5 740 c 128,-1,24
 250 762 250 762 226 801.5 c 128,-1,25
 202 841 202 841 194 896 c 0,26,27
 190 922 190 922 190 950 c 0,28,29
 190 982 190 982 195 1018 c 1,30,-1
 233 1381 l 2,31,32
 248 1526 248 1526 317 1603 c 128,-1,33
 386 1680 386 1680 535 1680 c 0,34,35
 682 1680 682 1680 736 1602 c 0,36,37
 778 1541 778 1541 777 1440 c 0,38,39
 777 1412 777 1412 774 1381 c 2,40,-1
 736 1018 l 2,41,42
 729 948 729 948 711 896.5 c 128,-1,43
 693 845 693 845 659.5 803 c 128,-1,44
 626 761 626 761 569.5 739.5 c 128,-1,22
 513 718 513 718 434 718 c 128,-1,23
EndSplineSet
Validated: 33
EndChar

StartChar: guillemotright
Encoding: 187 187 125
Width: 850
GlyphClass: 2
Flags: W
LayerCount: 2
UndoRedoHistory
Layer: 1
Undoes
EndUndoes
Redoes
EndRedoes
EndUndoRedoHistory
Fore
SplineSet
89 232 m 1,0,-1
 104 372 l 1,1,-1
 386 678 l 1,2,-1
 168 986 l 1,3,-1
 183 1126 l 1,4,-1
 488 700 l 1,5,-1
 484 657 l 1,6,-1
 89 232 l 1,0,-1
386 232 m 1,7,-1
 400 372 l 1,8,-1
 682 675 l 1,9,-1
 464 986 l 1,10,-1
 479 1126 l 1,11,-1
 784 700 l 1,12,-1
 780 657 l 1,13,-1
 386 232 l 1,7,-1
EndSplineSet
Validated: 1
EndChar

StartChar: onequarter
Encoding: 188 188 126
Width: 1542
GlyphClass: 2
Flags: W
LayerCount: 2
UndoRedoHistory
Layer: 1
Undoes
EndUndoes
Redoes
EndRedoes
EndUndoRedoHistory
Fore
SplineSet
1198 -14 m 1,0,-1
 1230 285 l 1,1,-1
 910 285 l 1,2,-1
 917 355 l 1,3,-1
 1310 1061 l 1,4,-1
 1405 1061 l 1,5,-1
 1331 358 l 1,6,-1
 1461 358 l 1,7,-1
 1453 285 l 1,8,-1
 1323 285 l 1,9,-1
 1292 -14 l 1,10,-1
 1198 -14 l 1,0,-1
282 590 m 1,11,-1
 381 1530 l 1,12,-1
 220 1453 l 1,13,-1
 229 1532 l 1,14,15
 275 1554 275 1554 339.5 1595 c 128,-1,16
 404 1636 404 1636 426 1658 c 1,17,-1
 484 1658 l 1,18,-1
 371 590 l 1,19,-1
 282 590 l 1,11,-1
350 0 m 1,20,-1
 1115 1658 l 1,21,-1
 1213 1658 l 1,22,-1
 449 0 l 1,23,-1
 350 0 l 1,20,-1
1003 358 m 1,24,-1
 1238 358 l 1,25,-1
 1296 915 l 1,26,-1
 1003 358 l 1,24,-1
EndSplineSet
Validated: 1
EndChar

StartChar: onehalf
Encoding: 189 189 127
Width: 1542
GlyphClass: 2
Flags: W
LayerCount: 2
UndoRedoHistory
Layer: 1
Undoes
EndUndoes
Redoes
EndRedoes
EndUndoRedoHistory
Fore
SplineSet
954 -1 m 1,0,-1
 961 72 l 1,1,-1
 1249 438 l 2,2,3
 1257 448 1257 448 1281.5 478.5 c 128,-1,4
 1306 509 1306 509 1314.5 520.5 c 128,-1,5
 1323 532 1323 532 1340.5 558.5 c 128,-1,6
 1358 585 1358 585 1365.5 603.5 c 128,-1,7
 1373 622 1373 622 1381 649 c 128,-1,8
 1389 676 1389 676 1392 705 c 0,9,10
 1394 726 1394 726 1394 745 c 0,11,12
 1394 880 1394 880 1280 880 c 0,13,14
 1201 880 1201 880 1163 832 c 128,-1,15
 1125 784 1125 784 1115 685 c 1,16,-1
 1027 685 l 1,17,18
 1027 686 1027 686 1028 693 c 2,19,-1
 1029 700 l 1,20,21
 1043 829 1043 829 1107 891.5 c 128,-1,22
 1171 954 1171 954 1288 954 c 0,23,24
 1394 954 1394 954 1448 891 c 0,25,26
 1492 839 1492 839 1492 751 c 0,27,28
 1492 731 1492 731 1490 710 c 0,29,30
 1481 629 1481 629 1439 556.5 c 128,-1,31
 1397 484 1397 484 1318 389 c 1,32,33
 1312 384 1312 384 1251.5 308.5 c 128,-1,34
 1191 233 1191 233 1128 154 c 2,35,-1
 1064 74 l 1,36,-1
 1398 74 l 1,37,-1
 1391 -1 l 1,38,-1
 954 -1 l 1,0,-1
295 590 m 1,39,-1
 394 1530 l 1,40,-1
 233 1453 l 1,41,-1
 242 1532 l 1,42,43
 289 1554 289 1554 353 1595.5 c 128,-1,44
 417 1637 417 1637 438 1658 c 1,45,-1
 496 1658 l 1,46,-1
 384 590 l 1,47,-1
 295 590 l 1,39,-1
352 0 m 1,48,-1
 1117 1658 l 1,49,-1
 1215 1658 l 1,50,-1
 451 0 l 1,51,-1
 352 0 l 1,48,-1
EndSplineSet
Validated: 1
EndChar

StartChar: threequarters
Encoding: 190 190 128
Width: 1542
GlyphClass: 2
Flags: W
LayerCount: 2
UndoRedoHistory
Layer: 1
Undoes
EndUndoes
Redoes
EndRedoes
EndUndoRedoHistory
Fore
SplineSet
314 700 m 0,0,1
 208 700 208 700 160 760 c 0,2,3
 121 809 121 809 121 888 c 0,4,5
 121 906 121 906 123 926 c 1,6,-1
 220 922 l 1,7,8
 218 905 218 905 218 889 c 0,9,10
 218 773 218 773 326 773 c 0,11,12
 391 773 391 773 432.5 819.5 c 128,-1,13
 474 866 474 866 484 963 c 0,14,15
 486 985 486 985 486 1005 c 0,16,17
 486 1067 486 1067 463 1106 c 0,18,19
 432 1157 432 1157 367 1157 c 1,20,-1
 375 1232 l 1,21,22
 442 1232 442 1232 478.5 1277 c 128,-1,23
 515 1322 515 1322 526 1427 c 1,24,25
 529 1449 529 1449 529 1469 c 0,26,27
 529 1590 529 1590 425 1590 c 0,28,29
 354 1590 354 1590 320 1553 c 128,-1,30
 286 1516 286 1516 277 1441 c 1,31,-1
 180 1439 l 1,32,33
 192 1545 192 1545 253.5 1604.5 c 128,-1,34
 315 1664 315 1664 432 1664 c 0,35,36
 538 1664 538 1664 586 1598 c 0,37,38
 624 1545 624 1545 623 1467 c 0,39,40
 623 1447 623 1447 621 1426 c 0,41,42
 610 1320 610 1320 563.5 1262.5 c 128,-1,43
 517 1205 517 1205 454 1196 c 1,44,45
 581 1164 581 1164 581 1010 c 0,46,47
 581 989 581 989 579 965 c 0,48,49
 567 844 567 844 498 772 c 128,-1,50
 429 700 429 700 314 700 c 0,0,1
1215 -14 m 1,51,-1
 1246 285 l 1,52,-1
 927 285 l 1,53,-1
 934 355 l 1,54,-1
 1327 1061 l 1,55,-1
 1419 1061 l 1,56,-1
 1345 358 l 1,57,-1
 1475 358 l 1,58,-1
 1467 285 l 1,59,-1
 1338 285 l 1,60,-1
 1306 -14 l 1,61,-1
 1215 -14 l 1,51,-1
370 0 m 1,62,-1
 1136 1658 l 1,63,-1
 1233 1658 l 1,64,-1
 469 0 l 1,65,-1
 370 0 l 1,62,-1
1019 358 m 1,66,-1
 1254 358 l 1,67,-1
 1312 915 l 1,68,-1
 1019 358 l 1,66,-1
EndSplineSet
Validated: 33
EndChar

StartChar: questiondown
Encoding: 191 191 129
Width: 886
GlyphClass: 2
Flags: W
LayerCount: 2
UndoRedoHistory
Layer: 1
Undoes
EndUndoes
Redoes
EndRedoes
EndUndoRedoHistory
Fore
SplineSet
305 -445 m 0,0,1
 227 -445 227 -445 162.5 -418 c 128,-1,2
 98 -391 98 -391 51 -339 c 0,3,4
 4 -286 4 -286 -17 -202 c 0,5,6
 -31 -147 -31 -147 -31 -81 c 0,7,8
 -31 -47 -31 -47 -27 -10 c 0,9,10
 -7 184 -7 184 101.5 326 c 128,-1,11
 210 468 210 468 424 604 c 1,12,-1
 447 824 l 1,13,-1
 542 824 l 1,14,-1
 515 572 l 1,15,16
 298 438 298 438 196 299.5 c 128,-1,17
 94 161 94 161 76 -11 c 0,18,19
 73 -43 73 -43 73 -73 c 0,20,21
 74 -195 74 -195 130 -264 c 0,22,23
 200 -350 200 -350 316 -350 c 0,24,25
 446 -350 446 -350 523 -279 c 0,26,27
 586 -221 586 -221 586 -124 c 0,28,29
 586 -103 586 -103 583 -80 c 1,30,-1
 575 -7 l 1,31,-1
 674 17 l 1,32,-1
 685 -58 l 2,33,34
 689 -89 689 -89 689 -119 c 0,35,36
 689 -177 689 -177 672 -227 c 0,37,38
 646 -302 646 -302 591.5 -349 c 128,-1,39
 537 -396 537 -396 463.5 -420.5 c 128,-1,40
 390 -445 390 -445 305 -445 c 0,0,1
466 1084 m 1,41,-1
 482 1233 l 1,42,-1
 589 1233 l 1,43,-1
 573 1084 l 1,44,-1
 466 1084 l 1,41,-1
EndSplineSet
Validated: 1
EndChar

StartChar: AE
Encoding: 198 198 136
Width: 1353
GlyphClass: 2
Flags: W
LayerCount: 2
UndoRedoHistory
Layer: 1
Undoes
EndUndoes
Redoes
EndRedoes
EndUndoRedoHistory
Fore
SplineSet
-19 0 m 1,0,-1
 799 1658 l 1,1,-1
 1406 1658 l 1,2,-1
 1397 1569 l 1,3,-1
 928 1569 l 1,4,-1
 859 904 l 1,5,-1
 1197 904 l 1,6,-1
 1188 822 l 1,7,-1
 850 822 l 1,8,-1
 774 91 l 1,9,-1
 1243 91 l 1,10,-1
 1232 0 l 1,11,-1
 658 0 l 1,12,-1
 706 458 l 1,13,-1
 319 458 l 1,14,-1
 90 0 l 1,15,-1
 -19 0 l 1,0,-1
360 548 m 1,16,-1
 714 548 l 1,17,-1
 813 1503 l 1,18,-1
 360 548 l 1,16,-1
EndSplineSet
Validated: 1
EndChar

StartChar: Eth
Encoding: 208 208 146
Width: 1066
GlyphClass: 2
Flags: W
LayerCount: 2
UndoRedoHistory
Layer: 1
Undoes
EndUndoes
Redoes
EndRedoes
EndUndoRedoHistory
Fore
SplineSet
241 88 m 1,0,-1
 497 88 l 2,1,2
 562 88 562 88 614 102.5 c 128,-1,3
 666 117 666 117 702 146.5 c 128,-1,4
 738 176 738 176 763.5 212 c 128,-1,5
 789 248 789 248 806 298 c 128,-1,6
 823 348 823 348 832 396 c 128,-1,7
 841 444 841 444 848 506 c 2,8,-1
 918 1173 l 1,9,10
 925 1229 925 1229 925 1278 c 0,11,12
 924 1310 924 1310 922 1338 c 0,13,14
 914 1412 914 1412 887 1463 c 128,-1,15
 860 1514 860 1514 800 1541.5 c 128,-1,16
 740 1569 740 1569 647 1569 c 2,17,-1
 396 1569 l 1,18,-1
 327 911 l 1,19,-1
 519 911 l 1,20,-1
 511 836 l 1,21,-1
 320 836 l 1,22,-1
 241 88 l 1,0,-1
119 0 m 1,23,-1
 207 836 l 1,24,-1
 73 836 l 1,25,-1
 81 911 l 1,26,-1
 215 911 l 1,27,-1
 293 1658 l 1,28,-1
 657 1658 l 2,29,30
 754 1658 754 1658 825.5 1634 c 128,-1,31
 897 1610 897 1610 939 1567 c 128,-1,32
 981 1524 981 1524 1006.5 1464.5 c 0,33,34
 1032 1406 1032 1406 1035 1334 c 0,35,36
 1036 1313 1036 1313 1036 1290 c 0,37,38
 1036 1238 1036 1238 1031 1182 c 1,39,-1
 959 494 l 2,40,41
 947 381 947 381 918 295 c 128,-1,42
 889 209 889 209 835.5 140.5 c 128,-1,43
 782 72 782 72 696 36 c 128,-1,44
 610 0 610 0 493 0 c 2,45,-1
 119 0 l 1,23,-1
EndSplineSet
Validated: 524289
EndChar

StartChar: multiply
Encoding: 215 215 153
Width: 687
GlyphClass: 2
Flags: W
LayerCount: 2
UndoRedoHistory
Layer: 1
Undoes
EndUndoes
Redoes
EndRedoes
EndUndoRedoHistory
Fore
SplineSet
143 525 m 1,0,-1
 91 583 l 1,1,-1
 327 796 l 1,2,-1
 137 1009 l 1,3,-1
 200 1065 l 1,4,-1
 391 854 l 1,5,-1
 626 1065 l 1,6,-1
 678 1009 l 1,7,-1
 443 796 l 1,8,-1
 633 583 l 1,9,-1
 569 525 l 1,10,-1
 378 738 l 1,11,-1
 143 525 l 1,0,-1
EndSplineSet
Validated: 1
EndChar

StartChar: Oslash
Encoding: 216 216 154
Width: 1058
GlyphClass: 2
Flags: W
LayerCount: 2
UndoRedoHistory
Layer: 1
Undoes
EndUndoes
Redoes
EndRedoes
EndUndoRedoHistory
Fore
SplineSet
492 70 m 0,0,1
 562 70 562 70 616.5 88 c 128,-1,2
 671 106 671 106 707.5 137.5 c 128,-1,3
 744 169 744 169 769.5 217.5 c 128,-1,4
 795 266 795 266 808.5 321 c 128,-1,5
 822 376 822 376 829 447 c 2,6,-1
 909 1212 l 1,7,8
 916 1262 916 1262 916 1307 c 0,9,10
 916 1337 916 1337 912 1365 c 0,11,12
 904 1434 904 1434 880 1483 c 0,13,14
 872 1498 872 1498 860 1512 c 1,15,-1
 312 120 l 1,16,17
 328 108 328 108 348 98 c 0,18,19
 404 70 404 70 492 70 c 0,0,1
483 -22 m 128,-1,21
 388 -22 388 -22 318 2 c 0,22,23
 294 10 294 10 274 21 c 1,24,-1
 189 -194 l 1,25,-1
 139 -179 l 1,26,-1
 229 50 l 1,27,28
 218 59 218 59 208 70 c 0,29,30
 168 114 168 114 145 175.5 c 0,31,32
 122 238 122 238 120 312 c 0,33,34
 120 329 120 329 120 345 c 0,35,36
 120 405 120 405 125 472 c 1,37,-1
 202 1196 l 2,38,39
 211 1284 211 1284 230.5 1354.5 c 128,-1,40
 250 1425 250 1425 286 1486.5 c 128,-1,41
 322 1548 322 1548 372.5 1589 c 128,-1,42
 423 1630 423 1630 496 1653.5 c 128,-1,43
 569 1677 569 1677 661.5 1677 c 128,-1,44
 754 1677 754 1677 822 1654 c 0,45,46
 839 1648 839 1648 855 1641 c 1,47,-1
 931 1835 l 1,48,-1
 982 1821 l 1,49,-1
 901 1615 l 1,50,51
 918 1602 918 1602 932 1588 c 0,52,53
 973 1546 973 1546 997.5 1486.5 c 128,-1,54
 1022 1427 1022 1427 1026 1354 c 0,55,56
 1027 1332 1027 1332 1027 1308 c 0,57,58
 1027 1255 1027 1255 1021 1196 c 2,59,-1
 944 469 l 2,60,61
 935 380 935 380 916 309 c 128,-1,62
 897 238 897 238 861.5 174.5 c 128,-1,63
 826 111 826 111 776 69 c 128,-1,64
 726 27 726 27 652 2.5 c 128,-1,20
 578 -22 578 -22 483 -22 c 128,-1,21
818 1548 m 1,65,66
 808 1554 808 1554 797 1559 c 0,67,68
 740 1586 740 1586 652 1586 c 0,69,70
 582 1586 582 1586 528 1568.5 c 128,-1,71
 474 1551 474 1551 438 1520 c 128,-1,72
 402 1489 402 1489 376.5 1441 c 128,-1,73
 351 1393 351 1393 337.5 1338 c 128,-1,74
 324 1283 324 1283 316 1212 c 2,75,-1
 236 447 l 1,76,77
 229 397 229 397 229 352 c 0,78,79
 228 322 228 322 232 294 c 0,80,81
 240 224 240 224 266 174 c 0,82,83
 269 168 269 168 273 162 c 1,84,-1
 818 1548 l 1,65,66
EndSplineSet
Validated: 524289
EndChar

StartChar: Thorn
Encoding: 222 222 160
Width: 1029
GlyphClass: 2
Flags: W
LayerCount: 2
UndoRedoHistory
Layer: 1
Undoes
EndUndoes
Redoes
EndRedoes
EndUndoRedoHistory
Fore
SplineSet
109 0 m 1,0,-1
 283 1658 l 1,1,-1
 395 1658 l 1,2,-1
 373 1446 l 1,3,-1
 684 1446 l 2,4,5
 746 1446 746 1446 797 1433.5 c 128,-1,6
 848 1421 848 1421 885 1398 c 128,-1,7
 922 1375 922 1375 950.5 1343 c 128,-1,8
 979 1311 979 1311 995.5 1272 c 128,-1,9
 1012 1233 1012 1233 1022 1188 c 128,-1,10
 1032 1143 1032 1143 1032 1094 c 128,-1,11
 1032 1045 1032 1045 1027 993 c 0,12,13
 1022 944 1022 944 1012 898 c 128,-1,14
 1002 852 1002 852 984.5 803 c 128,-1,15
 967 754 967 754 943 712.5 c 128,-1,16
 919 671 919 671 883 633.5 c 128,-1,17
 847 596 847 596 803.5 570 c 128,-1,18
 760 544 760 544 701.5 528.5 c 128,-1,19
 643 513 643 513 575 513 c 2,20,-1
 275 513 l 1,21,-1
 221 0 l 1,22,-1
 109 0 l 1,0,-1
286 610 m 1,23,-1
 569 610 l 2,24,25
 725 610 725 610 808 700.5 c 128,-1,26
 891 791 891 791 911 989 c 1,27,28
 916 1031 916 1031 916 1068 c 0,29,30
 916 1349 916 1349 656 1349 c 2,31,-1
 363 1349 l 1,32,-1
 286 610 l 1,23,-1
EndSplineSet
Validated: 1
EndChar

StartChar: germandbls
Encoding: 223 223 161
Width: 992
GlyphClass: 2
Flags: W
LayerCount: 2
UndoRedoHistory
Layer: 1
Undoes
EndUndoes
Redoes
EndRedoes
EndUndoRedoHistory
Fore
SplineSet
304 -22 m 1,0,-1
 314 69 l 1,1,2
 756 69 756 69 799 486 c 1,3,4
 802 530 802 530 802 572 c 0,5,6
 802 588 802 588 802 603 c 0,7,8
 800 660 800 660 780.5 710.5 c 128,-1,9
 761 761 761 761 729.5 799 c 128,-1,10
 698 837 698 837 643 859 c 128,-1,11
 588 881 588 881 515 881 c 1,12,-1
 530 972 l 1,13,14
 764 972 764 972 799 1299 c 0,15,16
 803 1339 803 1339 803 1375 c 0,17,18
 804 1476 804 1476 768 1534 c 0,19,20
 720 1612 720 1612 599 1612 c 0,21,22
 552 1612 552 1612 517.5 1604 c 128,-1,23
 483 1596 483 1596 450 1573 c 128,-1,24
 417 1550 417 1550 395 1510 c 128,-1,25
 373 1470 373 1470 355.5 1406 c 128,-1,26
 338 1342 338 1342 329 1252 c 2,27,-1
 197 0 l 1,28,-1
 89 0 l 1,29,-1
 220 1250 l 2,30,31
 234 1380 234 1380 264.5 1468 c 128,-1,32
 295 1556 295 1556 344.5 1606 c 128,-1,33
 394 1656 394 1656 456 1677 c 128,-1,34
 518 1698 518 1698 603 1698 c 0,35,36
 764 1698 764 1698 845 1597 c 0,37,38
 909 1517 909 1517 909 1376 c 0,39,40
 909 1340 909 1340 905 1299 c 0,41,42
 873 996 873 996 667 933 c 1,43,44
 744 916 744 916 797 871.5 c 128,-1,45
 850 827 850 827 873.5 768 c 0,46,47
 896 709 896 709 906 637 c 0,48,49
 910 604 910 604 911 570 c 0,50,51
 911 531 911 531 905 492 c 1,52,53
 852 -22 852 -22 304 -22 c 1,0,-1
EndSplineSet
Validated: 524321
EndChar

StartChar: ae
Encoding: 230 230 168
Width: 1245
GlyphClass: 2
Flags: W
LayerCount: 2
UndoRedoHistory
Layer: 1
Undoes
EndUndoes
Redoes
EndRedoes
EndUndoRedoHistory
Fore
SplineSet
274 -19 m 1,0,1
 168 -17 168 -17 110 54 c 0,2,3
 62 114 62 114 61 204 c 0,4,5
 61 221 61 221 63 240 c 0,6,7
 68 288 68 288 77.5 323.5 c 128,-1,8
 87 359 87 359 109.5 399.5 c 128,-1,9
 132 440 132 440 168.5 472.5 c 128,-1,10
 205 505 205 505 265.5 538 c 128,-1,11
 326 571 326 571 409 600 c 2,12,-1
 593 662 l 1,13,-1
 607 791 l 1,14,15
 613 868 613 868 613 924 c 0,16,17
 613 938 613 938 613 950 c 0,18,19
 611 1014 611 1014 593 1051 c 128,-1,20
 575 1088 575 1088 546.5 1103.5 c 128,-1,21
 518 1119 518 1119 473 1119 c 0,22,23
 281 1119 281 1119 256 887 c 1,24,-1
 154 891 l 1,25,26
 171 1047 171 1047 256.5 1125 c 128,-1,27
 342 1203 342 1203 485 1203 c 0,28,29
 575 1203 575 1203 628 1153 c 128,-1,30
 681 1103 681 1103 684 1009 c 1,31,32
 701 1062 701 1062 730.5 1101 c 128,-1,33
 760 1140 760 1140 797 1161.5 c 128,-1,34
 834 1183 834 1183 873 1193 c 128,-1,35
 912 1203 912 1203 954 1203 c 0,36,37
 1041 1203 1041 1203 1100 1167 c 0,38,39
 1160 1130 1160 1130 1184 1070 c 0,40,41
 1202 1024 1202 1024 1202 969 c 0,42,43
 1202 951 1202 951 1200 931 c 0,44,45
 1191 844 1191 844 1124 787 c 128,-1,46
 1057 730 1057 730 934 692 c 1,47,-1
 697 614 l 1,48,-1
 680 457 l 2,49,50
 671 375 671 375 671 311 c 0,51,52
 672 266 672 266 676 230 c 0,53,54
 688 144 688 144 725 105.5 c 128,-1,55
 762 67 762 67 831 67 c 0,56,57
 860 67 860 67 882.5 71 c 128,-1,58
 905 75 905 75 932.5 90 c 128,-1,59
 960 105 960 105 979 131 c 128,-1,60
 998 157 998 157 1014.5 205 c 128,-1,61
 1031 253 1031 253 1038 318 c 2,62,-1
 1046 400 l 1,63,-1
 1154 400 l 1,64,-1
 1146 321 l 2,65,66
 1137 242 1137 242 1117 182.5 c 128,-1,67
 1097 123 1097 123 1059.5 76 c 128,-1,68
 1022 29 1022 29 962.5 5 c 128,-1,69
 903 -19 903 -19 822 -19 c 0,70,71
 774 -19 774 -19 734.5 -7 c 128,-1,72
 695 5 695 5 661.5 31.5 c 128,-1,73
 628 58 628 58 609 106 c 128,-1,74
 590 154 590 154 588 220 c 1,75,76
 564 153 564 153 526 103.5 c 128,-1,77
 488 54 488 54 444.5 28 c 0,78,79
 400 2 400 2 358 -10 c 0,80,81
 322 -20 322 -20 286 -19 c 0,82,83
 280 -19 280 -19 274 -19 c 1,0,1
309 66 m 0,84,85
 337 66 337 66 363.5 73.5 c 128,-1,86
 390 81 390 81 417 98 c 128,-1,87
 444 115 444 115 468 144.5 c 128,-1,88
 492 174 492 174 512 214.5 c 128,-1,89
 532 255 532 255 547.5 313.5 c 128,-1,90
 563 372 563 372 570 444 c 2,91,-1
 585 589 l 1,92,93
 579 587 579 587 507 559.5 c 128,-1,94
 435 532 435 532 429 529 c 0,95,96
 374 508 374 508 333.5 487.5 c 128,-1,97
 293 467 293 467 266 444.5 c 128,-1,98
 239 422 239 422 221.5 402 c 128,-1,99
 204 382 204 382 194 355.5 c 128,-1,100
 184 329 184 329 179.5 306 c 128,-1,101
 175 283 175 283 172 250 c 0,102,103
 170 234 170 234 170 219 c 0,104,105
 170 188 170 188 178 162 c 0,106,107
 188 124 188 124 209.5 104.5 c 128,-1,108
 231 85 231 85 255.5 75.5 c 128,-1,109
 280 66 280 66 309 66 c 0,84,85
705 687 m 1,110,-1
 922 760 l 2,111,112
 987 781 987 781 1024.5 805.5 c 128,-1,113
 1062 830 1062 830 1078.5 861 c 128,-1,114
 1095 892 1095 892 1100 939 c 0,115,116
 1102 952 1102 952 1102 965 c 0,117,118
 1102 986 1102 986 1098 1004 c 0,119,120
 1092 1034 1092 1034 1075 1060 c 128,-1,121
 1058 1086 1058 1086 1024.5 1101 c 128,-1,122
 991 1116 991 1116 944 1116 c 0,123,124
 876 1116 876 1116 832 1088 c 128,-1,125
 788 1060 788 1060 758 987 c 128,-1,126
 728 914 728 914 715 786 c 2,127,-1
 705 687 l 1,110,-1
EndSplineSet
Validated: 524321
EndChar

StartChar: eth
Encoding: 240 240 178
Width: 880
GlyphClass: 2
Flags: W
LayerCount: 2
UndoRedoHistory
Layer: 1
Undoes
EndUndoes
Redoes
EndRedoes
EndUndoRedoHistory
Fore
SplineSet
395 -22 m 0,0,1
 277 -22 277 -22 209.5 37.5 c 0,2,3
 142 96 142 96 122 200 c 0,4,5
 111 256 111 256 111 327 c 0,6,7
 111 387 111 387 119 457 c 2,8,-1
 136 618 l 2,9,10
 191 1139 191 1139 502 1139 c 0,11,12
 598 1139 598 1139 698 1084 c 1,13,14
 689 1284 689 1284 655 1364 c 1,15,-1
 440 1307 l 1,16,-1
 447 1375 l 1,17,-1
 631 1423 l 1,18,19
 598 1513 598 1513 515 1560 c 128,-1,20
 432 1607 432 1607 294 1620 c 1,21,-1
 308 1695 l 1,22,23
 469 1686 469 1686 572 1630.5 c 128,-1,24
 675 1575 675 1575 723 1452 c 1,25,-1
 893 1496 l 1,26,-1
 885 1427 l 1,27,-1
 744 1391 l 1,28,29
 761 1339 761 1339 775.5 1247 c 128,-1,30
 790 1155 790 1155 798 1001 c 0,31,32
 800 957 800 957 800 912 c 0,33,34
 800 799 800 799 786 679 c 1,35,-1
 768 508 l 2,36,37
 753 372 753 372 728.5 278 c 128,-1,38
 704 184 704 184 661.5 114 c 128,-1,39
 619 44 619 44 553.5 11 c 128,-1,40
 488 -22 488 -22 395 -22 c 0,0,1
408 66 m 0,41,42
 462 66 462 66 500.5 84.5 c 128,-1,43
 539 103 539 103 566.5 138 c 128,-1,44
 594 173 594 173 613 238.5 c 128,-1,45
 632 304 632 304 644.5 382 c 128,-1,46
 657 460 657 460 670 580 c 0,47,48
 678 654 678 654 686 820 c 0,49,50
 693 954 693 954 693 990 c 0,51,52
 693 998 693 998 693 1001 c 1,53,54
 655 1018 655 1018 636.5 1026 c 128,-1,55
 618 1034 618 1034 583 1043 c 128,-1,56
 548 1052 548 1052 517 1052 c 0,57,58
 439 1052 439 1052 384.5 1003 c 128,-1,59
 330 954 330 954 291 837 c 128,-1,60
 252 720 252 720 232 527 c 1,61,62
 222 438 222 438 222 366 c 0,63,64
 222 248 222 248 249 178 c 0,65,66
 292 66 292 66 408 66 c 0,41,42
EndSplineSet
Validated: 524289
EndChar

StartChar: divide
Encoding: 247 247 185
Width: 678
GlyphClass: 2
Flags: W
LayerCount: 2
UndoRedoHistory
Layer: 1
Undoes
EndUndoes
Redoes
EndRedoes
EndUndoRedoHistory
Fore
SplineSet
292 431 m 1,0,-1
 309 591 l 1,1,-1
 410 591 l 1,2,-1
 393 431 l 1,3,-1
 292 431 l 1,0,-1
104 812 m 1,4,-1
 114 900 l 1,5,-1
 669 900 l 1,6,-1
 659 812 l 1,7,-1
 104 812 l 1,4,-1
361 1097 m 1,8,-1
 378 1258 l 1,9,-1
 480 1258 l 1,10,-1
 463 1097 l 1,11,-1
 361 1097 l 1,8,-1
EndSplineSet
Validated: 1
EndChar

StartChar: oslash
Encoding: 248 248 186
Width: 784
GlyphClass: 2
Flags: W
LayerCount: 2
UndoRedoHistory
Layer: 1
Undoes
EndUndoes
Redoes
EndRedoes
EndUndoRedoHistory
Fore
SplineSet
356 63 m 0,0,1
 407 63 407 63 443.5 80 c 128,-1,2
 480 97 480 97 503.5 124.5 c 128,-1,3
 527 152 527 152 543 202 c 128,-1,4
 559 252 559 252 567.5 301.5 c 128,-1,5
 576 351 576 351 584 428 c 2,6,-1
 618 756 l 2,7,8
 628 856 628 856 628 931 c 0,9,10
 628 942 628 942 628 952 c 0,11,12
 628 970 628 970 625 986 c 1,13,-1
 217 133 l 1,14,15
 224 119 224 119 235 107 c 0,16,17
 273 63 273 63 356 63 c 0,0,1
347 -19 m 0,18,19
 231 -19 231 -19 170 32 c 0,20,21
 170 32 l 2,22,-1
 90 -134 l 1,23,-1
 51 -118 l 1,24,-1
 138 66 l 1,25,26
 105 112 105 112 95 183 c 0,27,28
 88 230 88 230 88 287 c 0,29,30
 88 353 88 353 97 432 c 2,31,-1
 131 752 l 2,32,33
 143 868 143 868 165 947.5 c 128,-1,34
 187 1027 187 1027 226.5 1087 c 128,-1,35
 266 1147 266 1147 327.5 1175 c 128,-1,36
 389 1203 389 1203 476 1203 c 0,37,38
 592 1203 592 1203 653 1152 c 0,39,40
 654 1152 654 1152 654 1151 c 2,41,-1
 724 1298 l 1,42,-1
 766 1281 l 1,43,-1
 687 1115 l 1,44,45
 719 1068 719 1068 728 1000 c 0,46,47
 735 951 735 951 735 892 c 0,48,49
 735 828 735 828 727 752 c 2,50,-1
 693 432 l 2,51,52
 668 197 668 197 592.5 89 c 128,-1,53
 517 -19 517 -19 347 -19 c 0,18,19
606 1050 m 1,54,55
 598 1065 598 1065 588 1077 c 0,56,57
 550 1121 550 1121 467 1121 c 0,58,59
 416 1121 416 1121 379.5 1104 c 128,-1,60
 343 1087 343 1087 319.5 1059 c 128,-1,61
 296 1031 296 1031 280 981.5 c 128,-1,62
 264 932 264 932 256 882 c 128,-1,63
 248 832 248 832 240 756 c 2,64,-1
 205 428 l 1,65,66
 195 327 195 327 195 252 c 0,67,68
 196 242 196 242 196 232 c 0,69,70
 196 211 196 211 199 193 c 1,71,-1
 606 1050 l 1,54,55
EndSplineSet
Validated: 5
EndChar

StartChar: thorn
Encoding: 254 254 192
Width: 815
GlyphClass: 2
Flags: W
LayerCount: 2
UndoRedoHistory
Layer: 1
Undoes
EndUndoes
Redoes
EndRedoes
EndUndoRedoHistory
Fore
SplineSet
34 -390 m 1,0,-1
 249 1658 l 1,1,-1
 358 1658 l 1,2,-1
 298 1083 l 1,3,4
 403 1203 403 1203 538 1203 c 0,5,6
 643 1203 643 1203 697.5 1142 c 0,7,8
 752 1080 752 1080 760 972 c 0,9,10
 763 934 763 934 762 892 c 0,11,12
 762 812 762 812 753 714 c 1,13,-1
 730 487 l 2,14,15
 703 227 703 227 628 104 c 128,-1,16
 553 -19 553 -19 399 -19 c 0,17,18
 277 -19 277 -19 195 98 c 1,19,-1
 143 -390 l 1,20,-1
 34 -390 l 1,0,-1
395 66 m 0,21,22
 502 66 502 66 549.5 161 c 128,-1,23
 597 256 597 256 621 484 c 1,24,-1
 644 715 l 1,25,26
 656 823 656 823 656 899 c 0,27,28
 656 982 656 982 642 1028 c 0,29,30
 616 1118 616 1118 507 1118 c 0,31,32
 402 1118 402 1118 290 1008 c 1,33,-1
 202 173 l 1,34,35
 279 66 279 66 395 66 c 0,21,22
EndSplineSet
Validated: 524321
EndChar

StartChar: Dcroat
Encoding: 272 272 202
Width: 1060
GlyphClass: 2
Flags: W
LayerCount: 2
UndoRedoHistory
Layer: 1
Undoes
EndUndoes
Redoes
EndRedoes
EndUndoRedoHistory
Fore
SplineSet
233 88 m 1,0,-1
 489 88 l 2,1,2
 567 88 567 88 626 110.5 c 128,-1,3
 685 133 685 133 721.5 169 c 128,-1,4
 758 205 758 205 783 262 c 128,-1,5
 808 319 808 319 820 375 c 128,-1,6
 832 431 832 431 840 506 c 2,7,-1
 910 1173 l 1,8,9
 917 1229 917 1229 917 1278 c 0,10,11
 916 1310 916 1310 914 1338 c 0,12,13
 906 1412 906 1412 879 1463 c 128,-1,14
 852 1514 852 1514 792 1541.5 c 128,-1,15
 732 1569 732 1569 639 1569 c 2,16,-1
 388 1569 l 1,17,-1
 319 911 l 1,18,-1
 511 911 l 1,19,-1
 503 836 l 1,20,-1
 312 836 l 1,21,-1
 233 88 l 1,0,-1
111 0 m 1,22,-1
 200 836 l 1,23,-1
 65 836 l 1,24,-1
 73 911 l 1,25,-1
 207 911 l 1,26,-1
 285 1658 l 1,27,-1
 650 1658 l 2,28,29
 769 1658 769 1658 850 1622 c 128,-1,30
 931 1586 931 1586 971 1519 c 128,-1,31
 1011 1452 1011 1452 1023 1370 c 0,32,33
 1029 1327 1029 1327 1029 1278 c 0,34,35
 1029 1233 1029 1233 1024 1182 c 2,36,-1
 952 494 l 2,37,38
 943 405 943 405 923 332.5 c 128,-1,39
 903 260 903 260 866.5 197 c 128,-1,40
 830 134 830 134 779 91.5 c 128,-1,41
 728 49 728 49 653.5 24.5 c 128,-1,42
 579 0 579 0 485 0 c 2,43,-1
 111 0 l 1,22,-1
EndSplineSet
Validated: 1
EndChar

StartChar: Eng
Encoding: 330 330 207
Width: 1101
GlyphClass: 2
Flags: W
LayerCount: 2
UndoRedoHistory
Layer: 1
Undoes
EndUndoes
Redoes
EndRedoes
EndUndoRedoHistory
Fore
SplineSet
513 -288 m 1,0,-1
 520 -210 l 1,1,2
 525 -210 525 -210 530 -210 c 0,3,4
 615 -210 615 -210 661 -193 c 0,5,6
 710 -175 710 -175 731 -138 c 128,-1,7
 752 -101 752 -101 759 -29 c 2,8,-1
 765 25 l 1,9,-1
 353 1403 l 1,10,-1
 206 0 l 1,11,-1
 110 0 l 1,12,-1
 284 1658 l 1,13,-1
 374 1658 l 1,14,-1
 792 258 l 1,15,-1
 939 1658 l 1,16,-1
 1034 1658 l 1,17,-1
 860 0 l 2,18,19
 845 -150 845 -150 783.5 -219 c 128,-1,20
 722 -288 722 -288 575 -288 c 2,21,-1
 513 -288 l 1,0,-1
EndSplineSet
Validated: 1
EndChar

StartChar: Euro
Encoding: 8364 8364 209
Width: 985
GlyphClass: 2
Flags: W
LayerCount: 2
UndoRedoHistory
Layer: 1
Undoes
EndUndoes
Redoes
EndRedoes
EndUndoRedoHistory
Fore
SplineSet
477 -22 m 0,0,1
 381 -22 381 -22 311.5 3.5 c 128,-1,2
 242 29 242 29 203 74 c 128,-1,3
 164 119 164 119 142.5 182 c 0,4,5
 121 246 121 246 120 320 c 0,6,7
 120 329 120 329 120 338 c 0,8,9
 120 404 120 404 126 478 c 1,10,-1
 142 634 l 1,11,-1
 4 634 l 1,12,-1
 11 700 l 1,13,-1
 149 700 l 1,14,-1
 181 1004 l 1,15,-1
 43 1004 l 1,16,-1
 51 1070 l 1,17,-1
 188 1070 l 1,18,-1
 200 1181 l 2,19,20
 209 1271 209 1271 228 1343 c 128,-1,21
 247 1415 247 1415 282 1479 c 128,-1,22
 317 1543 317 1543 366.5 1585.5 c 128,-1,23
 416 1628 416 1628 489 1652.5 c 128,-1,24
 562 1677 562 1677 656 1677 c 0,25,26
 762 1677 762 1677 833.5 1643.5 c 128,-1,27
 905 1610 905 1610 940 1549 c 128,-1,28
 975 1488 975 1488 987 1402 c 0,29,30
 993 1361 993 1361 993 1315 c 0,31,32
 993 1265 993 1265 986 1210 c 1,33,-1
 978 1139 l 1,34,-1
 872 1139 l 1,35,-1
 880 1211 l 1,36,37
 887 1266 887 1266 887 1314 c 0,38,39
 886 1342 886 1342 884 1368 c 0,40,41
 878 1438 878 1438 854.5 1486.5 c 128,-1,42
 831 1535 831 1535 779.5 1560.5 c 128,-1,43
 728 1586 728 1586 648 1586 c 0,44,45
 560 1586 560 1586 498 1558.5 c 128,-1,46
 436 1531 436 1531 399 1476 c 128,-1,47
 362 1421 362 1421 343 1354.5 c 128,-1,48
 324 1288 324 1288 314 1194 c 2,49,-1
 301 1070 l 1,50,-1
 594 1070 l 1,51,-1
 587 1004 l 1,52,-1
 294 1004 l 1,53,-1
 262 700 l 1,54,-1
 555 700 l 1,55,-1
 548 634 l 1,56,-1
 255 634 l 1,57,-1
 237 460 l 1,58,59
 230 404 230 404 230 355 c 0,60,61
 230 324 230 324 233 296 c 0,62,63
 240 224 240 224 266 173.5 c 128,-1,64
 292 123 292 123 347.5 96.5 c 128,-1,65
 403 70 403 70 488 70 c 0,66,67
 568 70 568 70 625.5 96 c 128,-1,68
 683 122 683 122 717.5 174 c 128,-1,69
 752 226 752 226 770.5 290.5 c 128,-1,70
 789 355 789 355 799 446 c 2,71,-1
 808 533 l 1,72,-1
 914 533 l 1,73,-1
 907 464 l 2,74,75
 896 352 896 352 869.5 268 c 128,-1,76
 843 184 843 184 794 116 c 128,-1,77
 745 48 745 48 665.5 13 c 128,-1,78
 586 -22 586 -22 477 -22 c 0,0,1
EndSplineSet
Validated: 524289
EndChar

StartChar: Hbar
Encoding: 294 294 214
Width: 1109
GlyphClass: 2
Flags: W
LayerCount: 2
UndoRedoHistory
Layer: 1
Undoes
EndUndoes
Redoes
EndRedoes
EndUndoRedoHistory
Fore
SplineSet
109 0 m 1,0,-1
 247 1311 l 1,1,-1
 171 1311 l 1,2,-1
 178 1377 l 1,3,-1
 254 1377 l 1,4,-1
 283 1658 l 1,5,-1
 396 1658 l 1,6,-1
 366 1377 l 1,7,-1
 947 1377 l 1,8,-1
 976 1658 l 1,9,-1
 1088 1658 l 1,10,-1
 1059 1377 l 1,11,-1
 1136 1377 l 1,12,-1
 1129 1311 l 1,13,-1
 1052 1311 l 1,14,-1
 914 0 l 1,15,-1
 802 0 l 1,16,-1
 889 826 l 1,17,-1
 309 826 l 1,18,-1
 222 0 l 1,19,-1
 109 0 l 1,0,-1
317 911 m 1,20,-1
 898 911 l 1,21,-1
 940 1311 l 1,22,-1
 360 1311 l 1,23,-1
 317 911 l 1,20,-1
EndSplineSet
Validated: 1
EndChar

StartChar: Lslash
Encoding: 321 321 227
Width: 764
GlyphClass: 2
Flags: W
LayerCount: 2
UndoRedoHistory
Layer: 1
Undoes
EndUndoes
Redoes
EndRedoes
EndUndoRedoHistory
Fore
SplineSet
110 0 m 1,0,-1
 197 835 l 1,1,-1
 44 759 l 1,2,-1
 53 850 l 1,3,-1
 207 926 l 1,4,-1
 284 1658 l 1,5,-1
 396 1658 l 1,6,-1
 326 986 l 1,7,-1
 589 1115 l 1,8,-1
 579 1024 l 1,9,-1
 317 895 l 1,10,-1
 232 88 l 1,11,-1
 732 88 l 1,12,-1
 723 0 l 1,13,-1
 110 0 l 1,0,-1
EndSplineSet
Validated: 1
EndChar

StartChar: OE
Encoding: 338 338 231
Width: 1270
GlyphClass: 2
Flags: W
LayerCount: 2
UndoRedoHistory
Layer: 1
Undoes
EndUndoes
Redoes
EndRedoes
EndUndoRedoHistory
Fore
SplineSet
503 0 m 2,0,1
 405 0 405 0 333 23 c 128,-1,2
 261 46 261 46 218 87.5 c 128,-1,3
 175 129 175 129 149.5 187.5 c 128,-1,4
 124 246 124 246 121 316 c 0,5,6
 120 337 120 337 120 360 c 0,7,8
 120 412 120 412 125 468 c 1,9,-1
 200 1182 l 2,10,11
 211 1291 211 1291 242 1375.5 c 128,-1,12
 273 1460 273 1460 327.5 1525 c 128,-1,13
 382 1590 382 1590 469 1624 c 128,-1,14
 556 1658 556 1658 672 1658 c 2,15,-1
 1339 1658 l 1,16,-1
 1329 1566 l 1,17,-1
 926 1566 l 1,18,-1
 856 911 l 1,19,-1
 1193 911 l 1,20,-1
 1185 824 l 1,21,-1
 848 824 l 1,22,-1
 771 92 l 1,23,-1
 1176 92 l 1,24,-1
 1166 0 l 1,25,-1
 503 0 l 2,0,1
515 94 m 2,26,-1
 660 94 l 1,27,-1
 815 1567 l 1,28,-1
 668 1567 l 2,29,30
 574 1567 574 1567 508 1540.5 c 128,-1,31
 442 1514 442 1514 402.5 1460 c 128,-1,32
 363 1406 363 1406 342 1338.5 c 128,-1,33
 321 1271 321 1271 311 1176 c 2,34,-1
 237 468 l 1,35,36
 231 421 231 421 231 379 c 0,37,38
 231 345 231 345 235 313 c 0,39,40
 244 244 244 244 272.5 195.5 c 128,-1,41
 301 147 301 147 361.5 120.5 c 128,-1,42
 422 94 422 94 515 94 c 2,26,-1
EndSplineSet
Validated: 1
EndChar

StartChar: Pi
Encoding: 928 928 235
Width: 1148
GlyphClass: 2
Flags: W
LayerCount: 2
UndoRedoHistory
Layer: 1
Undoes
EndUndoes
Redoes
EndRedoes
EndUndoRedoHistory
Fore
SplineSet
109 0 m 1,0,-1
 283 1658 l 1,1,-1
 1128 1658 l 1,2,-1
 954 0 l 1,3,-1
 845 0 l 1,4,-1
 1010 1573 l 1,5,-1
 384 1573 l 1,6,-1
 218 0 l 1,7,-1
 109 0 l 1,0,-1
EndSplineSet
Validated: 1
EndChar

StartChar: Tbar
Encoding: 358 358 244
Width: 779
GlyphClass: 2
Flags: W
LayerCount: 2
UndoRedoHistory
Layer: 1
Undoes
EndUndoes
Redoes
EndRedoes
EndUndoRedoHistory
Fore
SplineSet
121 854 m 1,0,-1
 129 929 l 1,1,-1
 392 929 l 1,2,-1
 459 1569 l 1,3,-1
 108 1569 l 1,4,-1
 118 1658 l 1,5,-1
 925 1658 l 1,6,-1
 915 1569 l 1,7,-1
 571 1569 l 1,8,-1
 504 929 l 1,9,-1
 728 929 l 1,10,-1
 721 854 l 1,11,-1
 496 854 l 1,12,-1
 407 0 l 1,13,-1
 294 0 l 1,14,-1
 384 854 l 1,15,-1
 121 854 l 1,0,-1
EndSplineSet
Validated: 1
EndChar

StartChar: acutecomb
Encoding: 769 769 264
Width: 268
GlyphClass: 2
Flags: W
LayerCount: 2
UndoRedoHistory
Layer: 1
Undoes
EndUndoes
Redoes
EndRedoes
EndUndoRedoHistory
Fore
SplineSet
131 1261 m 1,0,-1
 305 1658 l 1,1,-1
 414 1658 l 1,2,-1
 189 1261 l 1,3,-1
 131 1261 l 1,0,-1
EndSplineSet
Validated: 1
EndChar

StartChar: afii10018
Encoding: 1041 1041 266
Width: 962
GlyphClass: 2
Flags: W
LayerCount: 2
UndoRedoHistory
Layer: 1
Undoes
EndUndoes
Redoes
EndRedoes
EndUndoRedoHistory
Fore
SplineSet
109 0 m 1,0,-1
 283 1658 l 1,1,-1
 922 1658 l 1,2,-1
 913 1573 l 1,3,-1
 387 1573 l 1,4,-1
 322 959 l 1,5,-1
 504 959 l 2,6,7
 731 960 731 960 827 838 c 0,8,9
 903 742 903 742 903 569 c 0,10,11
 903 522 903 522 897 470 c 0,12,13
 886 363 886 363 853 279.5 c 128,-1,14
 820 196 820 196 762.5 132 c 128,-1,15
 705 68 705 68 615.5 34 c 128,-1,16
 526 0 526 0 408 0 c 2,17,-1
 109 0 l 1,0,-1
231 91 m 1,18,-1
 420 91 l 2,19,20
 596 91 596 91 680 185 c 128,-1,21
 764 279 764 279 784 472 c 0,22,23
 789 520 789 520 789 562 c 0,24,25
 788 692 788 692 740 768 c 0,26,27
 676 868 676 868 501 868 c 2,28,-1
 313 868 l 1,29,-1
 231 91 l 1,18,-1
EndSplineSet
Validated: 33
EndChar

StartChar: afii10019
Encoding: 1042 1042 267
Width: 1000
GlyphClass: 2
Flags: W
LayerCount: 2
UndoRedoHistory
Layer: 1
Undoes
EndUndoes
Redoes
EndRedoes
EndUndoRedoHistory
Fore
SplineSet
110 0 m 1,0,-1
 284 1658 l 1,1,-1
 626 1658 l 2,2,3
 715 1658 715 1658 781 1637 c 128,-1,4
 847 1616 847 1616 885 1578.5 c 128,-1,5
 923 1541 923 1541 945.5 1489.5 c 128,-1,6
 968 1438 968 1438 970 1376 c 0,7,8
 971 1358 971 1358 971 1341 c 0,9,10
 971 1295 971 1295 967 1245 c 1,11,12
 961 1189 961 1189 947.5 1138.5 c 128,-1,13
 934 1088 934 1088 908.5 1036 c 128,-1,14
 883 984 883 984 838.5 946 c 128,-1,15
 794 908 794 908 736 894 c 1,16,17
 790 878 790 878 829 843.5 c 128,-1,18
 868 809 868 809 887.5 767 c 128,-1,19
 907 725 907 725 918 675 c 0,20,21
 928 631 928 631 928 589 c 0,22,23
 928 583 928 583 928 577 c 0,24,25
 926 529 926 529 923 483 c 1,26,27
 914 400 914 400 900 336 c 128,-1,28
 886 272 886 272 855.5 206 c 128,-1,29
 825 140 825 140 781 97 c 128,-1,30
 737 54 737 54 666.5 27 c 128,-1,31
 596 0 596 0 503 0 c 2,32,-1
 110 0 l 1,0,-1
232 88 m 1,33,-1
 498 88 l 2,34,35
 580 88 580 88 636 111 c 128,-1,36
 692 134 692 134 728 185 c 128,-1,37
 764 236 764 236 783.5 306 c 128,-1,38
 803 376 803 376 814 482 c 0,39,40
 819 527 819 527 819 567 c 0,41,42
 819 843 819 843 592 843 c 2,43,-1
 311 843 l 1,44,-1
 232 88 l 1,33,-1
320 931 m 1,45,-1
 599 931 l 2,46,47
 666 931 666 931 715 955 c 128,-1,48
 764 979 764 979 794 1024.5 c 128,-1,49
 824 1070 824 1070 840 1123 c 128,-1,50
 856 1176 856 1176 864 1245 c 1,51,52
 870 1283 870 1283 870 1319 c 0,53,54
 870 1348 870 1348 866 1374 c 0,55,56
 858 1434 858 1434 832.5 1477 c 128,-1,57
 807 1520 807 1520 746.5 1544.5 c 128,-1,58
 686 1569 686 1569 592 1569 c 2,59,-1
 387 1569 l 1,60,-1
 320 931 l 1,45,-1
EndSplineSet
Validated: 1
EndChar

StartChar: afii10020
Encoding: 1043 1043 268
Width: 755
GlyphClass: 2
Flags: W
LayerCount: 2
UndoRedoHistory
Layer: 1
Undoes
EndUndoes
Redoes
EndRedoes
EndUndoRedoHistory
Fore
SplineSet
110 0 m 1,0,-1
 284 1658 l 1,1,-1
 848 1658 l 1,2,-1
 838 1569 l 1,3,-1
 387 1569 l 1,4,-1
 222 0 l 1,5,-1
 110 0 l 1,0,-1
EndSplineSet
Validated: 1
EndChar

StartChar: afii10021
Encoding: 1044 1044 269
Width: 1156
GlyphClass: 2
Flags: W
LayerCount: 2
UndoRedoHistory
Layer: 1
Undoes
EndUndoes
Redoes
EndRedoes
EndUndoRedoHistory
Fore
SplineSet
-53 -275 m 1,0,-1
 -15 87 l 1,1,-1
 43 87 l 1,2,3
 118 130 118 130 148 161 c 0,4,5
 220 234 220 234 279 435 c 0,6,7
 339 643 339 643 421 1094 c 2,8,-1
 523 1658 l 1,9,-1
 1106 1658 l 1,10,-1
 941 87 l 1,11,-1
 1062 87 l 1,12,-1
 1024 -275 l 1,13,-1
 934 -275 l 1,14,-1
 951 0 l 1,15,-1
 77 0 l 1,16,-1
 37 -275 l 1,17,-1
 -53 -275 l 1,0,-1
170 87 m 1,18,-1
 829 87 l 1,19,-1
 985 1572 l 1,20,-1
 616 1572 l 1,21,-1
 524 1073 l 2,22,23
 498 930 498 930 474 813.5 c 128,-1,24
 450 697 450 697 430.5 609 c 128,-1,25
 411 521 411 521 389.5 450 c 128,-1,26
 368 379 368 379 353.5 331.5 c 128,-1,27
 339 284 339 284 318 245.5 c 128,-1,28
 297 207 297 207 284.5 186 c 128,-1,29
 272 165 272 165 249.5 144.5 c 128,-1,30
 227 124 227 124 215.5 116 c 128,-1,31
 204 108 204 108 178 92 c 0,32,33
 173 89 173 89 170 87 c 1,18,-1
EndSplineSet
Validated: 1
EndChar

StartChar: afii10024
Encoding: 1046 1046 272
Width: 1258
GlyphClass: 2
Flags: W
LayerCount: 2
UndoRedoHistory
Layer: 1
Undoes
EndUndoes
Redoes
EndRedoes
EndUndoRedoHistory
Fore
SplineSet
1 0 m 1,0,-1
 519 866 l 1,1,-1
 214 1658 l 1,2,-1
 321 1658 l 1,3,-1
 611 873 l 1,4,-1
 627 873 l 1,5,-1
 709 1658 l 1,6,-1
 811 1658 l 1,7,-1
 729 873 l 1,8,-1
 744 873 l 1,9,-1
 1199 1658 l 1,10,-1
 1307 1658 l 1,11,-1
 836 866 l 1,12,-1
 1172 0 l 1,13,-1
 1061 0 l 1,14,-1
 747 844 l 1,15,-1
 726 844 l 1,16,-1
 637 0 l 1,17,-1
 535 0 l 1,18,-1
 624 844 l 1,19,-1
 602 844 l 1,20,-1
 111 0 l 1,21,-1
 1 0 l 1,0,-1
EndSplineSet
Validated: 1
EndChar

StartChar: afii10025
Encoding: 1047 1047 273
Width: 942
GlyphClass: 2
Flags: W
LayerCount: 2
UndoRedoHistory
Layer: 1
Undoes
EndUndoes
Redoes
EndRedoes
EndUndoRedoHistory
Fore
SplineSet
441 -22 m 0,0,1
 131 -22 131 -22 131 291 c 0,2,3
 131 327 131 327 135 368 c 1,4,-1
 138 399 l 1,5,-1
 241 399 l 1,6,7
 237 379 237 379 237 361 c 1,8,9
 234 330 234 330 234 302 c 0,10,11
 234 198 234 198 274 140 c 0,12,13
 326 66 326 66 451 66 c 0,14,15
 512 66 512 66 561 83.5 c 128,-1,16
 610 101 610 101 652.5 142 c 128,-1,17
 695 183 695 183 723.5 258 c 128,-1,18
 752 333 752 333 763 440 c 0,19,20
 768 485 768 485 768 524 c 0,21,22
 768 815 768 815 515 821 c 1,23,-1
 411 821 l 1,24,-1
 420 904 l 1,25,-1
 523 904 l 1,26,27
 678 906 678 906 754.5 994.5 c 128,-1,28
 831 1083 831 1083 850 1270 c 0,29,30
 854 1308 854 1308 854 1341 c 0,31,32
 854 1590 854 1590 628 1590 c 0,33,34
 492 1590 492 1590 416.5 1521 c 128,-1,35
 341 1452 341 1452 322 1294 c 0,36,37
 322 1292 322 1292 320.5 1279 c 128,-1,38
 319 1266 319 1266 319 1264 c 1,39,-1
 216 1264 l 1,40,-1
 218 1291 l 1,41,42
 260 1677 260 1677 634 1677 c 0,43,44
 817 1677 817 1677 899 1564 c 0,45,46
 966 1472 966 1472 966 1334 c 0,47,48
 966 1302 966 1302 962 1268 c 0,49,50
 943 1089 943 1089 865.5 986.5 c 128,-1,51
 788 884 788 884 678 862 c 1,52,53
 720 852 720 852 756.5 825.5 c 128,-1,54
 793 799 793 799 825.5 751.5 c 128,-1,55
 858 704 858 704 872 624 c 0,56,57
 880 578 880 578 880 524 c 0,58,59
 880 485 880 485 876 443 c 0,60,61
 853 226 853 226 746.5 102 c 128,-1,62
 640 -22 640 -22 441 -22 c 0,0,1
EndSplineSet
Validated: 1
EndChar

StartChar: afii10026
Encoding: 1048 1048 274
Width: 1064
GlyphClass: 2
Flags: W
LayerCount: 2
UndoRedoHistory
Layer: 1
Undoes
EndUndoes
Redoes
EndRedoes
EndUndoRedoHistory
Fore
SplineSet
109 0 m 1,0,-1
 283 1658 l 1,1,-1
 383 1658 l 1,2,-1
 235 245 l 1,3,-1
 951 1658 l 1,4,-1
 1044 1658 l 1,5,-1
 870 0 l 1,6,-1
 769 0 l 1,7,-1
 918 1413 l 1,8,-1
 204 0 l 1,9,-1
 109 0 l 1,0,-1
EndSplineSet
Validated: 1
EndChar

StartChar: afii10028
Encoding: 1050 1050 276
Width: 960
GlyphClass: 2
Flags: W
LayerCount: 2
UndoRedoHistory
Layer: 1
Undoes
EndUndoes
Redoes
EndRedoes
EndUndoRedoHistory
Fore
SplineSet
109 0 m 1,0,-1
 283 1658 l 1,1,-1
 396 1658 l 1,2,-1
 314 881 l 1,3,-1
 452 881 l 1,4,-1
 897 1658 l 1,5,-1
 1011 1658 l 1,6,-1
 547 854 l 1,7,-1
 901 0 l 1,8,-1
 787 0 l 1,9,-1
 446 815 l 1,10,-1
 307 815 l 1,11,-1
 222 0 l 1,12,-1
 109 0 l 1,0,-1
EndSplineSet
Validated: 1
EndChar

StartChar: afii10029
Encoding: 1051 1051 277
Width: 1141
GlyphClass: 2
Flags: W
LayerCount: 2
UndoRedoHistory
Layer: 1
Undoes
EndUndoes
Redoes
EndRedoes
EndUndoRedoHistory
Fore
SplineSet
8 -5 m 1,0,-1
 17 84 l 1,1,2
 113 90 113 90 148 108 c 0,3,4
 205 136 205 136 243 239 c 0,5,6
 288 358 288 358 367 776 c 0,7,8
 384 863 384 863 417 1041 c 2,9,-1
 528 1658 l 1,10,-1
 1121 1658 l 1,11,-1
 947 0 l 1,12,-1
 834 0 l 1,13,-1
 1000 1572 l 1,14,-1
 622 1572 l 1,15,-1
 526 1040 l 1,16,17
 426 511 426 511 391 374 c 0,18,19
 337 158 337 158 269 82 c 1,20,21
 211 15 211 15 98 1 c 0,22,23
 60 -4 60 -4 8 -5 c 1,0,-1
EndSplineSet
Validated: 1
EndChar

StartChar: afii10030
Encoding: 1052 1052 278
Width: 1294
GlyphClass: 2
Flags: W
LayerCount: 2
UndoRedoHistory
Layer: 1
Undoes
EndUndoes
Redoes
EndRedoes
EndUndoRedoHistory
Fore
SplineSet
90 0 m 1,0,-1
 314 1658 l 1,1,-1
 418 1658 l 1,2,-1
 621 182 l 1,3,-1
 1135 1658 l 1,4,-1
 1246 1658 l 1,5,-1
 1119 0 l 1,6,-1
 1024 0 l 1,7,-1
 1128 1366 l 1,8,-1
 644 0 l 1,9,-1
 562 0 l 1,10,-1
 368 1362 l 1,11,-1
 186 0 l 1,12,-1
 90 0 l 1,0,-1
EndSplineSet
Validated: 1
EndChar

StartChar: afii10033
Encoding: 1055 1055 281
Width: 1116
GlyphClass: 2
Flags: W
LayerCount: 2
UndoRedoHistory
Layer: 1
Undoes
EndUndoes
Redoes
EndRedoes
EndUndoRedoHistory
Fore
SplineSet
110 0 m 1,0,-1
 284 1658 l 1,1,-1
 1094 1658 l 1,2,-1
 920 0 l 1,3,-1
 808 0 l 1,4,-1
 974 1573 l 1,5,-1
 388 1573 l 1,6,-1
 222 0 l 1,7,-1
 110 0 l 1,0,-1
EndSplineSet
Validated: 1
EndChar

StartChar: afii10034
Encoding: 1056 1056 282
Width: 977
GlyphClass: 2
Flags: W
LayerCount: 2
UndoRedoHistory
Layer: 1
Undoes
EndUndoes
Redoes
EndRedoes
EndUndoRedoHistory
Fore
SplineSet
110 0 m 1,0,-1
 284 1658 l 1,1,-1
 674 1658 l 2,2,3
 783 1658 783 1658 856.5 1626.5 c 128,-1,4
 930 1595 930 1595 966.5 1535.5 c 128,-1,5
 1003 1476 1003 1476 1014 1402 c 0,6,7
 1020 1363 1020 1363 1020 1317 c 0,8,9
 1020 1276 1020 1276 1015 1230 c 0,10,11
 1006 1142 1006 1142 979 1068 c 128,-1,12
 952 994 952 994 903 929.5 c 128,-1,13
 854 865 854 865 773 828.5 c 128,-1,14
 692 792 692 792 585 792 c 2,15,-1
 306 792 l 1,16,-1
 222 0 l 1,17,-1
 110 0 l 1,0,-1
315 879 m 1,18,-1
 570 879 l 2,19,20
 723 879 723 879 802 959.5 c 128,-1,21
 881 1040 881 1040 901 1230 c 0,22,23
 907 1283 907 1283 907 1327 c 0,24,25
 907 1446 907 1446 865 1500 c 0,26,27
 808 1572 808 1572 645 1572 c 2,28,-1
 388 1572 l 1,29,-1
 315 879 l 1,18,-1
EndSplineSet
Validated: 1
EndChar

StartChar: afii10037
Encoding: 1059 1059 285
Width: 926
GlyphClass: 2
Flags: W
LayerCount: 2
UndoRedoHistory
Layer: 1
Undoes
EndUndoes
Redoes
EndRedoes
EndUndoRedoHistory
Fore
SplineSet
62 -190 m 1,0,-1
 73 -102 l 1,1,2
 90 -102 90 -102 106 -102 c 0,3,4
 136 -102 136 -102 162 -101 c 0,5,6
 200 -99 200 -99 232 -90.5 c 128,-1,7
 264 -82 264 -82 285 -73 c 128,-1,8
 306 -64 306 -64 325 -42 c 128,-1,9
 344 -20 344 -20 355 -0.5 c 128,-1,10
 366 19 366 19 378.5 58.5 c 128,-1,11
 391 98 391 98 398.5 131 c 128,-1,12
 406 164 406 164 419 223 c 1,13,-1
 199 1658 l 1,14,-1
 310 1658 l 1,15,-1
 418 892 l 1,16,-1
 488 354 l 1,17,-1
 657 896 l 1,18,-1
 902 1658 l 1,19,-1
 1014 1658 l 1,20,-1
 533 214 l 1,21,22
 472 24 472 24 444 -32 c 0,23,24
 398 -123 398 -123 324 -157 c 0,25,26
 250 -190 250 -190 96 -190 c 0,27,28
 80 -190 80 -190 62 -190 c 1,0,-1
EndSplineSet
Validated: 1
EndChar

StartChar: afii10038
Encoding: 1060 1060 286
Width: 1215
GlyphClass: 2
Flags: W
LayerCount: 2
UndoRedoHistory
Layer: 1
Undoes
EndUndoes
Redoes
EndRedoes
EndUndoRedoHistory
Fore
SplineSet
494 -114 m 1,0,-1
 525 184 l 1,1,2
 469 180 469 180 427 180 c 1,3,4
 419 180 419 180 412 180 c 0,5,6
 257 180 257 180 188 278 c 0,7,8
 133 357 133 357 133 501 c 0,9,10
 133 545 133 545 138 595 c 2,11,-1
 189 1079 l 2,12,13
 212 1298 212 1298 312 1408 c 0,14,15
 409 1515 409 1515 576 1515 c 0,16,17
 581 1515 581 1515 585 1515 c 0,18,19
 632 1515 632 1515 665 1512 c 1,20,-1
 696 1808 l 1,21,-1
 809 1808 l 1,22,-1
 778 1513 l 1,23,24
 830 1517 830 1517 873 1517 c 0,25,26
 877 1517 877 1517 882 1517 c 0,27,28
 1045 1517 1045 1517 1117 1409 c 0,29,30
 1173 1324 1173 1324 1173 1177 c 0,31,32
 1173 1131 1173 1131 1168 1079 c 2,33,-1
 1117 595 l 2,34,35
 1094 382 1094 382 1000 278 c 0,36,37
 910 179 910 179 756 180 c 0,38,39
 749 180 749 180 741 180 c 1,40,41
 685 180 685 180 638 185 c 1,42,-1
 606 -114 l 1,43,-1
 494 -114 l 1,0,-1
451 256 m 1,44,45
 497 256 497 256 534 260 c 1,46,-1
 657 1436 l 1,47,48
 626 1440 626 1440 584 1440 c 0,49,50
 581 1440 581 1440 578 1440 c 0,51,52
 447 1440 447 1440 382 1352 c 0,53,54
 315 1262 315 1262 296 1079 c 2,55,-1
 245 595 l 2,56,57
 239 543 239 543 239 499 c 0,58,59
 238 392 238 392 272 334 c 0,60,61
 317 255 317 255 442 256 c 0,62,63
 446 256 446 256 451 256 c 1,44,45
732 256 m 1,64,65
 737 256 737 256 741 256 c 0,66,67
 866 256 866 256 928 335 c 0,68,69
 992 417 992 417 1011 595 c 2,70,-1
 1062 1079 l 2,71,72
 1067 1131 1067 1131 1067 1175 c 0,73,74
 1066 1288 1066 1288 1032 1352 c 0,75,76
 985 1440 985 1440 855 1440 c 0,77,78
 852 1440 852 1440 849 1440 c 0,79,80
 818 1440 818 1440 770 1436 c 1,81,-1
 646 260 l 1,82,83
 681 256 681 256 732 256 c 1,64,65
EndSplineSet
Validated: 33
EndChar

StartChar: afii10040
Encoding: 1062 1062 288
Width: 1137
GlyphClass: 2
Flags: W
LayerCount: 2
UndoRedoHistory
Layer: 1
Undoes
EndUndoes
Redoes
EndRedoes
EndUndoRedoHistory
Fore
SplineSet
919 -275 m 1,0,-1
 936 0 l 1,1,-1
 109 0 l 1,2,-1
 283 1658 l 1,3,-1
 396 1658 l 1,4,-1
 230 85 l 1,5,-1
 820 85 l 1,6,-1
 985 1658 l 1,7,-1
 1098 1658 l 1,8,-1
 932 85 l 1,9,-1
 1047 85 l 1,10,-1
 1009 -275 l 1,11,-1
 919 -275 l 1,0,-1
EndSplineSet
Validated: 1
EndChar

StartChar: afii10041
Encoding: 1063 1063 289
Width: 1034
GlyphClass: 2
Flags: W
LayerCount: 2
UndoRedoHistory
Layer: 1
Undoes
EndUndoes
Redoes
EndRedoes
EndUndoRedoHistory
Fore
SplineSet
726 0 m 1,0,-1
 807 771 l 1,1,2
 674 734 674 734 559 734 c 0,3,4
 362 734 362 734 264 819 c 0,5,6
 182 890 182 890 182 1033 c 0,7,8
 182 1061 182 1061 185 1091 c 2,9,-1
 244 1658 l 1,10,-1
 350 1658 l 1,11,-1
 291 1092 l 2,12,13
 288 1065 288 1065 288 1041 c 0,14,15
 288 992 288 992 300 954 c 0,16,17
 318 898 318 898 361.5 869 c 128,-1,18
 405 840 405 840 458 828 c 128,-1,19
 511 816 511 816 584 816 c 0,20,21
 710 816 710 816 816 853 c 1,22,-1
 900 1658 l 1,23,-1
 1012 1658 l 1,24,-1
 838 0 l 1,25,-1
 726 0 l 1,0,-1
EndSplineSet
Validated: 1
EndChar

StartChar: afii10042
Encoding: 1064 1064 290
Width: 1437
GlyphClass: 2
Flags: W
LayerCount: 2
UndoRedoHistory
Layer: 1
Undoes
EndUndoes
Redoes
EndRedoes
EndUndoRedoHistory
Fore
SplineSet
110 0 m 1,0,-1
 284 1658 l 1,1,-1
 396 1658 l 1,2,-1
 231 85 l 1,3,-1
 636 85 l 1,4,-1
 801 1658 l 1,5,-1
 914 1658 l 1,6,-1
 748 85 l 1,7,-1
 1138 85 l 1,8,-1
 1303 1658 l 1,9,-1
 1415 1658 l 1,10,-1
 1241 0 l 1,11,-1
 110 0 l 1,0,-1
EndSplineSet
Validated: 1
EndChar

StartChar: afii10043
Encoding: 1065 1065 291
Width: 1458
GlyphClass: 2
Flags: W
LayerCount: 2
UndoRedoHistory
Layer: 1
Undoes
EndUndoes
Redoes
EndRedoes
EndUndoRedoHistory
Fore
SplineSet
1240 -275 m 1,0,-1
 1256 0 l 1,1,-1
 109 0 l 1,2,-1
 283 1658 l 1,3,-1
 396 1658 l 1,4,-1
 230 85 l 1,5,-1
 635 85 l 1,6,-1
 801 1658 l 1,7,-1
 913 1658 l 1,8,-1
 748 85 l 1,9,-1
 1139 85 l 1,10,-1
 1304 1658 l 1,11,-1
 1416 1658 l 1,12,-1
 1251 85 l 1,13,-1
 1368 85 l 1,14,-1
 1330 -275 l 1,15,-1
 1240 -275 l 1,0,-1
EndSplineSet
Validated: 1
EndChar

StartChar: afii10044
Encoding: 1066 1066 292
Width: 1109
GlyphClass: 2
Flags: W
LayerCount: 2
UndoRedoHistory
Layer: 1
Undoes
EndUndoes
Redoes
EndRedoes
EndUndoRedoHistory
Fore
SplineSet
275 0 m 1,0,-1
 440 1570 l 1,1,-1
 136 1570 l 1,2,-1
 145 1658 l 1,3,-1
 561 1658 l 1,4,-1
 488 959 l 1,5,-1
 673 959 l 2,6,7
 900 960 900 960 996 838 c 0,8,9
 1071 742 1071 742 1072 570 c 0,10,11
 1072 523 1072 523 1066 470 c 0,12,13
 1055 363 1055 363 1022 279.5 c 128,-1,14
 989 196 989 196 931.5 132 c 128,-1,15
 874 68 874 68 784.5 34 c 128,-1,16
 695 0 695 0 577 0 c 2,17,-1
 275 0 l 1,0,-1
397 91 m 1,18,-1
 589 91 l 2,19,20
 765 91 765 91 849 185 c 128,-1,21
 933 279 933 279 954 472 c 1,22,23
 959 518 959 518 959 559 c 0,24,25
 960 692 960 692 910 768 c 0,26,27
 846 868 846 868 670 868 c 2,28,-1
 478 868 l 1,29,-1
 397 91 l 1,18,-1
EndSplineSet
Validated: 33
EndChar

StartChar: afii10045
Encoding: 1067 1067 293
Width: 1371
GlyphClass: 2
Flags: W
LayerCount: 2
UndoRedoHistory
Layer: 1
Undoes
EndUndoes
Redoes
EndRedoes
EndUndoRedoHistory
Fore
SplineSet
109 0 m 1,0,-1
 283 1658 l 1,1,-1
 396 1658 l 1,2,-1
 322 959 l 1,3,-1
 508 959 l 2,4,5
 735 960 735 960 831 838 c 0,6,7
 907 742 907 742 907 569 c 0,8,9
 907 522 907 522 901 470 c 0,10,11
 878 250 878 250 759.5 125 c 128,-1,12
 641 0 641 0 411 0 c 2,13,-1
 109 0 l 1,0,-1
231 91 m 1,14,-1
 424 91 l 2,15,16
 600 91 600 91 684 185 c 128,-1,17
 768 279 768 279 788 472 c 0,18,19
 793 520 793 520 793 562 c 0,20,21
 792 692 792 692 744 768 c 0,22,23
 680 868 680 868 504 868 c 2,24,-1
 313 868 l 1,25,-1
 231 91 l 1,14,-1
1064 0 m 1,26,-1
 1238 1658 l 1,27,-1
 1351 1658 l 1,28,-1
 1177 0 l 1,29,-1
 1064 0 l 1,26,-1
EndSplineSet
Validated: 33
EndChar

StartChar: afii10046
Encoding: 1068 1068 294
Width: 945
GlyphClass: 2
Flags: W
LayerCount: 2
UndoRedoHistory
Layer: 1
Undoes
EndUndoes
Redoes
EndRedoes
EndUndoRedoHistory
Fore
SplineSet
110 0 m 1,0,-1
 284 1658 l 1,1,-1
 396 1658 l 1,2,-1
 323 959 l 1,3,-1
 509 959 l 2,4,5
 736 960 736 960 832 838 c 0,6,7
 907 742 907 742 907 570 c 0,8,9
 907 523 907 523 901 470 c 1,10,11
 879 250 879 250 760.5 125 c 128,-1,12
 642 0 642 0 412 0 c 2,13,-1
 110 0 l 1,0,-1
232 91 m 1,14,-1
 424 91 l 2,15,16
 600 91 600 91 684.5 185 c 128,-1,17
 769 279 769 279 789 472 c 0,18,19
 794 520 794 520 794 562 c 0,20,21
 794 692 794 692 746 768 c 0,22,23
 682 868 682 868 505 868 c 2,24,-1
 314 868 l 1,25,-1
 232 91 l 1,14,-1
EndSplineSet
Validated: 33
EndChar

StartChar: afii10047
Encoding: 1069 1069 295
Width: 1020
GlyphClass: 2
Flags: W
LayerCount: 2
UndoRedoHistory
Layer: 1
Undoes
EndUndoes
Redoes
EndRedoes
EndUndoRedoHistory
Fore
SplineSet
453 -16 m 0,0,1
 347 -16 347 -16 275.5 17.5 c 128,-1,2
 204 51 204 51 169 112 c 128,-1,3
 134 173 134 173 122 259 c 0,4,5
 116 300 116 300 116 346 c 0,6,7
 116 396 116 396 123 451 c 2,8,-1
 131 521 l 1,9,-1
 237 521 l 1,10,-1
 229 450 l 1,11,12
 222 395 222 395 222 347 c 0,13,14
 222 318 222 318 224 292 c 0,15,16
 230 222 230 222 254.5 174 c 128,-1,17
 279 126 279 126 330.5 100.5 c 128,-1,18
 382 75 382 75 462 75 c 0,19,20
 550 75 550 75 612 102.5 c 128,-1,21
 674 130 674 130 710.5 185 c 128,-1,22
 747 240 747 240 766 306.5 c 128,-1,23
 785 373 785 373 795 467 c 2,24,-1
 832 816 l 1,25,-1
 440 816 l 1,26,-1
 448 896 l 1,27,-1
 840 896 l 1,28,-1
 872 1201 l 2,29,30
 878 1256 878 1256 878 1303 c 0,31,32
 878 1424 878 1424 839 1494 c 0,33,34
 785 1591 785 1591 621 1591 c 0,35,36
 540 1591 540 1591 483 1565 c 128,-1,37
 426 1539 426 1539 391.5 1487 c 128,-1,38
 357 1435 357 1435 338.5 1370.5 c 128,-1,39
 320 1306 320 1306 310 1215 c 2,40,-1
 301 1131 l 1,41,-1
 195 1131 l 1,42,-1
 202 1197 l 2,43,44
 214 1309 214 1309 240.5 1393 c 128,-1,45
 267 1477 267 1477 315.5 1545 c 128,-1,46
 364 1613 364 1613 443 1648 c 128,-1,47
 522 1683 522 1683 631 1683 c 0,48,49
 727 1683 727 1683 796.5 1657.5 c 128,-1,50
 866 1632 866 1632 905 1587 c 128,-1,51
 944 1542 944 1542 966.5 1479 c 0,52,53
 990 1416 990 1416 990 1342 c 0,54,55
 990 1337 990 1337 990 1332 c 0,56,57
 990 1262 990 1262 983 1183 c 1,58,-1
 909 481 l 2,59,60
 900 391 900 391 881 319 c 128,-1,61
 862 247 862 247 827 182.5 c 128,-1,62
 792 118 792 118 742.5 75.5 c 128,-1,63
 693 33 693 33 620 8.5 c 128,-1,64
 547 -16 547 -16 453 -16 c 0,0,1
EndSplineSet
Validated: 524289
EndChar

StartChar: afii10048
Encoding: 1070 1070 296
Width: 1368
GlyphClass: 2
Flags: W
LayerCount: 2
UndoRedoHistory
Layer: 1
Undoes
EndUndoes
Redoes
EndRedoes
EndUndoRedoHistory
Fore
SplineSet
798 -22 m 0,0,1
 704 -22 704 -22 635 2 c 128,-1,2
 566 26 566 26 526 70 c 128,-1,3
 486 114 486 114 463 176 c 128,-1,4
 440 238 440 238 438 312 c 0,5,6
 438 329 438 329 438 346 c 0,7,8
 438 406 438 406 443 473 c 1,9,-1
 477 791 l 1,10,-1
 301 791 l 1,11,-1
 218 0 l 1,12,-1
 110 0 l 1,13,-1
 284 1658 l 1,14,-1
 392 1658 l 1,15,-1
 310 882 l 1,16,-1
 486 882 l 1,17,-1
 519 1193 l 2,18,19
 531 1305 531 1305 560.5 1390 c 128,-1,20
 590 1475 590 1475 642.5 1541 c 128,-1,21
 695 1607 695 1607 779 1642 c 128,-1,22
 863 1677 863 1677 976 1677 c 128,-1,23
 1089 1677 1089 1677 1166.5 1640.5 c 128,-1,24
 1244 1604 1244 1604 1281.5 1539.5 c 128,-1,25
 1319 1475 1319 1475 1333 1386 c 0,26,27
 1340 1342 1340 1342 1340 1293 c 128,-1,28
 1340 1244 1340 1244 1333 1192 c 1,29,-1
 1257 470 l 2,30,31
 1245 358 1245 358 1216.5 273 c 128,-1,32
 1188 188 1188 188 1136 119 c 128,-1,33
 1084 50 1084 50 999 14 c 128,-1,34
 914 -22 914 -22 798 -22 c 0,0,1
811 70 m 0,35,36
 897 70 897 70 959.5 96.5 c 128,-1,37
 1022 123 1022 123 1060 175 c 128,-1,38
 1098 227 1098 227 1119 292.5 c 128,-1,39
 1140 358 1140 358 1149 447 c 2,40,-1
 1229 1212 l 1,41,42
 1235 1259 1235 1259 1235 1302 c 0,43,44
 1236 1335 1236 1335 1232 1365 c 0,45,46
 1224 1434 1224 1434 1196.5 1483 c 128,-1,47
 1169 1532 1169 1532 1111.5 1559 c 128,-1,48
 1054 1586 1054 1586 967 1586 c 0,49,50
 800 1586 800 1586 722.5 1490.5 c 128,-1,51
 645 1395 645 1395 626 1212 c 2,52,-1
 546 447 l 1,53,54
 540 400 540 400 540 357 c 0,55,56
 540 324 540 324 544 294 c 0,57,58
 552 224 552 224 579 174.5 c 128,-1,59
 606 125 606 125 664.5 97.5 c 128,-1,60
 723 70 723 70 811 70 c 0,35,36
EndSplineSet
Validated: 1
EndChar

StartChar: afii10049
Encoding: 1071 1071 297
Width: 1079
GlyphClass: 2
Flags: W
LayerCount: 2
UndoRedoHistory
Layer: 1
Undoes
EndUndoes
Redoes
EndRedoes
EndUndoRedoHistory
Fore
SplineSet
6 0 m 1,0,-1
 414 755 l 1,1,2
 298 800 298 800 253 921 c 0,3,4
 221 1007 221 1007 221 1120 c 0,5,6
 221 1165 221 1165 226 1215 c 0,7,8
 234 1289 234 1289 253 1351.5 c 128,-1,9
 272 1414 272 1414 308.5 1472 c 128,-1,10
 345 1530 345 1530 396.5 1570 c 128,-1,11
 448 1610 448 1610 524.5 1634 c 128,-1,12
 601 1658 601 1658 697 1658 c 2,13,-1
 1058 1658 l 1,14,-1
 884 0 l 1,15,-1
 772 0 l 1,16,-1
 847 722 l 1,17,-1
 592 722 l 2,18,19
 555 722 555 722 511 728 c 1,20,-1
 129 0 l 1,21,-1
 6 0 l 1,0,-1
615 809 m 2,22,-1
 857 809 l 1,23,-1
 937 1571 l 1,24,-1
 691 1571 l 2,25,26
 534 1571 534 1571 445 1486 c 128,-1,27
 356 1401 356 1401 336 1214 c 0,28,29
 330 1162 330 1162 330 1116 c 0,30,31
 330 982 330 982 378 908 c 0,32,33
 442 808 442 808 615 809 c 2,22,-1
EndSplineSet
Validated: 33
EndChar

StartChar: afii10051
Encoding: 1026 1026 298
Width: 992
GlyphClass: 2
Flags: W
LayerCount: 2
UndoRedoHistory
Layer: 1
Undoes
EndUndoes
Redoes
EndRedoes
EndUndoRedoHistory
Fore
SplineSet
207 0 m 1,0,-1
 372 1569 l 1,1,-1
 68 1569 l 1,2,-1
 78 1658 l 1,3,-1
 812 1658 l 1,4,-1
 802 1569 l 1,5,-1
 482 1569 l 1,6,-1
 412 895 l 1,7,8
 453 933 453 933 518.5 956 c 128,-1,9
 584 979 584 979 653 979 c 0,10,11
 711 979 711 979 762 961.5 c 128,-1,12
 813 944 813 944 853.5 908.5 c 0,13,14
 894 872 894 872 914 810 c 0,15,16
 928 767 928 767 928 715 c 0,17,18
 928 691 928 691 925 666 c 2,19,-1
 895 377 l 2,20,21
 875 183 875 183 772.5 91.5 c 128,-1,22
 670 0 670 0 482 0 c 2,23,-1
 464 0 l 1,24,-1
 473 86 l 1,25,26
 629 86 629 86 699.5 158 c 128,-1,27
 770 230 770 230 786 379 c 2,28,-1
 816 669 l 2,29,30
 818 689 818 689 818 707 c 0,31,32
 818 788 818 788 774 836 c 0,33,34
 720 894 720 894 626 895 c 0,35,36
 510 895 510 895 404 820 c 1,37,-1
 318 0 l 1,38,-1
 207 0 l 1,0,-1
EndSplineSet
Validated: 524289
EndChar

StartChar: afii10053
Encoding: 1028 1028 300
Width: 988
GlyphClass: 2
Flags: W
LayerCount: 2
UndoRedoHistory
Layer: 1
Undoes
EndUndoes
Redoes
EndRedoes
EndUndoRedoHistory
Fore
SplineSet
477 -22 m 0,0,1
 381 -22 381 -22 311.5 3.5 c 128,-1,2
 242 29 242 29 203 74 c 128,-1,3
 164 119 164 119 142.5 182 c 0,4,5
 121 246 121 246 120 320 c 0,6,7
 120 329 120 329 120 338 c 0,8,9
 120 404 120 404 126 478 c 1,10,-1
 200 1181 l 2,11,12
 209 1271 209 1271 228 1343 c 128,-1,13
 247 1415 247 1415 282 1479 c 128,-1,14
 317 1543 317 1543 366.5 1585.5 c 128,-1,15
 416 1628 416 1628 489 1652.5 c 128,-1,16
 562 1677 562 1677 656 1677 c 0,17,18
 762 1677 762 1677 833.5 1643.5 c 128,-1,19
 905 1610 905 1610 940 1549 c 128,-1,20
 975 1488 975 1488 987 1402 c 0,21,22
 993 1361 993 1361 993 1315 c 0,23,24
 993 1265 993 1265 986 1210 c 1,25,-1
 979 1146 l 1,26,-1
 873 1146 l 1,27,-1
 880 1211 l 1,28,29
 887 1266 887 1266 887 1314 c 0,30,31
 886 1342 886 1342 884 1368 c 0,32,33
 878 1438 878 1438 854.5 1486.5 c 128,-1,34
 831 1535 831 1535 779.5 1560.5 c 128,-1,35
 728 1586 728 1586 648 1586 c 0,36,37
 560 1586 560 1586 498 1558.5 c 128,-1,38
 436 1531 436 1531 399 1476 c 128,-1,39
 362 1421 362 1421 343 1354.5 c 128,-1,40
 324 1288 324 1288 314 1194 c 2,41,-1
 285 918 l 1,42,-1
 712 918 l 1,43,-1
 703 834 l 1,44,-1
 276 834 l 1,45,-1
 237 460 l 1,46,47
 230 404 230 404 230 355 c 0,48,49
 230 324 230 324 233 296 c 0,50,51
 240 224 240 224 266 173.5 c 128,-1,52
 292 123 292 123 347.5 96.5 c 128,-1,53
 403 70 403 70 488 70 c 0,54,55
 568 70 568 70 625.5 96 c 128,-1,56
 683 122 683 122 717.5 174 c 128,-1,57
 752 226 752 226 770.5 290.5 c 128,-1,58
 789 355 789 355 799 446 c 2,59,-1
 808 530 l 1,60,-1
 914 530 l 1,61,-1
 907 464 l 2,62,63
 896 352 896 352 869.5 268 c 128,-1,64
 843 184 843 184 794 116 c 128,-1,65
 745 48 745 48 665.5 13 c 128,-1,66
 586 -22 586 -22 477 -22 c 0,0,1
EndSplineSet
Validated: 524289
EndChar

StartChar: afii10055
Encoding: 1030 1030 302
Width: 422
GlyphClass: 2
Flags: W
LayerCount: 2
UndoRedoHistory
Layer: 1
Undoes
EndUndoes
Redoes
EndRedoes
EndUndoRedoHistory
Fore
SplineSet
113 0 m 1,0,-1
 287 1658 l 1,1,-1
 398 1658 l 1,2,-1
 224 0 l 1,3,-1
 113 0 l 1,0,-1
EndSplineSet
Validated: 1
EndChar

StartChar: afii10057
Encoding: 1032 1032 304
Width: 543
GlyphClass: 2
Flags: W
LayerCount: 2
UndoRedoHistory
Layer: 1
Undoes
EndUndoes
Redoes
EndRedoes
EndUndoRedoHistory
Fore
SplineSet
-36 -92 m 1,0,-1
 -27 -5 l 1,1,2
 37 -5 37 -5 78 -1 c 128,-1,3
 119 3 119 3 151.5 18 c 128,-1,4
 184 33 184 33 201.5 51.5 c 128,-1,5
 219 70 219 70 233 110 c 128,-1,6
 247 150 247 150 253 192 c 128,-1,7
 259 234 259 234 267 308 c 2,8,-1
 409 1658 l 1,9,-1
 521 1658 l 1,10,-1
 379 294 l 2,11,12
 369 207 369 207 357 151 c 128,-1,13
 345 95 345 95 321 44.5 c 128,-1,14
 297 -6 297 -6 259.5 -33.5 c 128,-1,15
 222 -61 222 -61 163.5 -76.5 c 128,-1,16
 105 -92 105 -92 22 -92 c 2,17,-1
 -36 -92 l 1,0,-1
EndSplineSet
Validated: 1
EndChar

StartChar: afii10058
Encoding: 1033 1033 305
Width: 1658
GlyphClass: 2
Flags: W
LayerCount: 2
UndoRedoHistory
Layer: 1
Undoes
EndUndoes
Redoes
EndRedoes
EndUndoRedoHistory
Fore
SplineSet
0 -5 m 1,0,-1
 10 84 l 1,1,2
 14 84 14 84 18 84 c 0,3,4
 167 84 167 84 219 191 c 0,5,6
 272 301 272 301 348 713 c 2,7,-1
 520 1658 l 1,8,-1
 1113 1658 l 1,9,-1
 1039 959 l 1,10,-1
 1216 959 l 2,11,12
 1443 960 1443 960 1539 838 c 0,13,14
 1615 742 1615 742 1615 569 c 0,15,16
 1615 522 1615 522 1609 470 c 0,17,18
 1586 250 1586 250 1467.5 125 c 128,-1,19
 1349 0 1349 0 1119 0 c 2,20,-1
 827 0 l 1,21,-1
 992 1572 l 1,22,-1
 615 1572 l 1,23,-1
 455 713 l 2,24,25
 438 621 438 621 426.5 563.5 c 128,-1,26
 415 506 415 506 400 435.5 c 128,-1,27
 385 365 385 365 373 323 c 128,-1,28
 361 281 361 281 344 231 c 128,-1,29
 327 181 327 181 310.5 153 c 128,-1,30
 294 125 294 125 271.5 94 c 128,-1,31
 249 63 249 63 225 47.5 c 128,-1,32
 201 32 201 32 170.5 17.5 c 128,-1,33
 140 3 140 3 104.5 -1.5 c 128,-1,34
 69 -6 69 -6 26 -6 c 1,35,-1
 0 -5 l 1,0,-1
948 91 m 1,36,-1
 1132 91 l 2,37,38
 1308 91 1308 91 1392 185 c 128,-1,39
 1476 279 1476 279 1496 472 c 0,40,41
 1501 520 1501 520 1501 562 c 0,42,43
 1500 692 1500 692 1452 768 c 0,44,45
 1388 868 1388 868 1212 868 c 2,46,-1
 1030 868 l 1,47,-1
 948 91 l 1,36,-1
EndSplineSet
Validated: 33
EndChar

StartChar: afii10059
Encoding: 1034 1034 306
Width: 1533
GlyphClass: 2
Flags: W
LayerCount: 2
UndoRedoHistory
Layer: 1
Undoes
EndUndoes
Redoes
EndRedoes
EndUndoRedoHistory
Fore
SplineSet
1000 0 m 2,0,-1
 708 1 l 1,1,-1
 800 868 l 1,2,-1
 314 868 l 1,3,-1
 222 1 l 1,4,-1
 110 1 l 1,5,-1
 284 1659 l 1,6,-1
 396 1659 l 1,7,-1
 323 953 l 1,8,-1
 809 953 l 1,9,-1
 882 1659 l 1,10,-1
 995 1659 l 1,11,-1
 921 959 l 1,12,-1
 1097 959 l 2,13,14
 1324 960 1324 960 1420 838 c 0,15,16
 1495 742 1495 742 1495 570 c 0,17,18
 1495 523 1495 523 1489 470 c 1,19,20
 1467 250 1467 250 1348.5 125 c 128,-1,21
 1230 0 1230 0 1000 0 c 2,0,-1
830 91 m 1,22,-1
 1012 91 l 2,23,24
 1188 91 1188 91 1272.5 185 c 128,-1,25
 1357 279 1357 279 1377 472 c 0,26,27
 1382 520 1382 520 1382 562 c 0,28,29
 1382 692 1382 692 1334 768 c 0,30,31
 1270 868 1270 868 1093 868 c 2,32,-1
 912 868 l 1,33,-1
 830 91 l 1,22,-1
EndSplineSet
Validated: 33
EndChar

StartChar: afii10060
Encoding: 1035 1035 307
Width: 898
GlyphClass: 2
Flags: W
LayerCount: 2
UndoRedoHistory
Layer: 1
Undoes
EndUndoes
Redoes
EndRedoes
EndUndoRedoHistory
Fore
SplineSet
175 0 m 1,0,-1
 339 1569 l 1,1,-1
 7 1569 l 1,2,-1
 16 1658 l 1,3,-1
 797 1658 l 1,4,-1
 787 1569 l 1,5,-1
 450 1569 l 1,6,-1
 380 893 l 1,7,8
 422 928 422 928 486.5 954 c 128,-1,9
 551 980 551 980 626 980 c 0,10,11
 669 980 669 980 705.5 969.5 c 128,-1,12
 742 959 742 959 773 936 c 128,-1,13
 804 913 804 913 819 870 c 0,14,15
 830 839 830 839 830 801 c 0,16,17
 830 786 830 786 828 769 c 2,18,-1
 747 0 l 1,19,-1
 637 0 l 1,20,-1
 717 759 l 2,21,22
 718 774 718 774 718 787 c 0,23,24
 718 910 718 910 595 910 c 0,25,26
 480 910 480 910 372 818 c 1,27,-1
 286 0 l 1,28,-1
 175 0 l 1,0,-1
EndSplineSet
Validated: 1
EndChar

StartChar: afii10066
Encoding: 1073 1073 311
Width: 899
GlyphClass: 2
Flags: W
LayerCount: 2
UndoRedoHistory
Layer: 1
Undoes
EndUndoes
Redoes
EndRedoes
EndUndoRedoHistory
Fore
SplineSet
417 -19 m 0,0,1
 412 -19 412 -19 406 -19 c 0,2,3
 348 -19 348 -19 296 1 c 0,4,5
 240 23 240 23 196 67.5 c 128,-1,6
 152 112 152 112 132 188 c 0,7,8
 118 239 118 239 118 301 c 0,9,10
 118 331 118 331 121 363 c 2,11,-1
 200 1113 l 2,12,13
 212 1225 212 1225 231 1306 c 128,-1,14
 250 1387 250 1387 274 1439 c 128,-1,15
 298 1491 298 1491 333 1525.5 c 128,-1,16
 368 1560 368 1560 403.5 1576.5 c 128,-1,17
 439 1593 439 1593 490 1606.5 c 128,-1,18
 541 1620 541 1620 589 1628 c 128,-1,19
 637 1636 637 1636 705 1653.5 c 128,-1,20
 773 1671 773 1671 834 1696 c 1,21,-1
 839 1597 l 1,22,23
 784 1576 784 1576 724.5 1561.5 c 128,-1,24
 665 1547 665 1547 624.5 1541 c 128,-1,25
 584 1535 584 1535 541.5 1526 c 128,-1,26
 499 1517 499 1517 470.5 1505 c 128,-1,27
 442 1493 442 1493 414.5 1468.5 c 128,-1,28
 387 1444 387 1444 369 1405 c 128,-1,29
 351 1366 351 1366 336.5 1304 c 128,-1,30
 322 1242 322 1242 313 1155 c 2,31,-1
 297 1002 l 1,32,33
 338 1042 338 1042 427 1076 c 128,-1,34
 516 1110 516 1110 590 1111 c 1,35,36
 687 1111 687 1111 743.5 1067 c 128,-1,37
 800 1023 800 1023 822 919 c 0,38,39
 834 862 834 862 834 784 c 0,40,41
 834 720 834 720 826 643 c 2,42,-1
 805 446 l 2,43,44
 791 312 791 312 759 220.5 c 128,-1,45
 727 129 727 129 676 78 c 128,-1,46
 625 27 625 27 563 5 c 128,-1,47
 501 -17 501 -17 417 -19 c 0,0,1
431 63 m 0,48,49
 490 65 490 65 531.5 81.5 c 128,-1,50
 573 98 573 98 607 137.5 c 128,-1,51
 641 177 641 177 662 247.5 c 128,-1,52
 683 318 683 318 694 424 c 2,53,-1
 719 663 l 2,54,55
 728 745 728 745 728 807 c 0,56,57
 728 903 728 903 707 952 c 0,58,59
 673 1032 673 1032 566 1032 c 0,60,61
 505 1032 505 1032 418 995.5 c 128,-1,62
 331 959 331 959 289 921 c 1,63,-1
 230 361 l 2,64,65
 226 327 226 327 226 297 c 0,66,67
 226 192 226 192 272 134 c 0,68,69
 329 62 329 62 426 63 c 0,70,71
 428 63 428 63 431 63 c 0,48,49
EndSplineSet
Validated: 33
EndChar

StartChar: afii10067
Encoding: 1074 1074 312
Width: 768
GlyphClass: 2
Flags: W
LayerCount: 2
UndoRedoHistory
Layer: 1
Undoes
EndUndoes
Redoes
EndRedoes
EndUndoRedoHistory
Fore
SplineSet
73 0 m 1,0,-1
 198 1184 l 1,1,-1
 459 1184 l 2,2,3
 540 1184 540 1184 596 1160.5 c 128,-1,4
 652 1137 652 1137 680 1095.5 c 128,-1,5
 708 1054 708 1054 718 1005 c 0,6,7
 724 975 724 975 723 942 c 0,8,9
 723 921 723 921 721 898 c 0,10,11
 712 814 712 814 669.5 742.5 c 128,-1,12
 627 671 627 671 547 640 c 1,13,14
 607 620 607 620 642 573.5 c 0,15,16
 676 527 676 527 686 470 c 0,17,18
 691 437 691 437 692 400 c 0,19,20
 692 373 692 373 689 343 c 0,21,22
 681 261 681 261 662 202.5 c 128,-1,23
 643 144 643 144 606 96 c 128,-1,24
 569 48 569 48 506 24 c 128,-1,25
 443 0 443 0 354 0 c 2,26,-1
 73 0 l 1,0,-1
189 84 m 1,27,-1
 351 84 l 2,28,29
 464 84 464 84 516 151.5 c 128,-1,30
 568 219 568 219 581 346 c 0,31,32
 584 378 584 378 584 406 c 0,33,34
 584 493 584 493 551 534 c 0,35,36
 507 589 507 589 414 589 c 2,37,-1
 243 589 l 1,38,-1
 189 84 l 1,27,-1
251 671 m 1,39,-1
 426 671 l 2,40,41
 501 671 501 671 555 730.5 c 128,-1,42
 609 790 609 790 619 890 c 0,43,44
 621 908 621 908 621 925 c 0,45,46
 621 998 621 998 585 1042 c 0,47,48
 541 1096 541 1096 443 1096 c 2,49,-1
 296 1096 l 1,50,-1
 251 671 l 1,39,-1
EndSplineSet
Validated: 524289
EndChar

StartChar: afii10068
Encoding: 1075 1075 313
Width: 571
GlyphClass: 2
Flags: W
LayerCount: 2
UndoRedoHistory
Layer: 1
Undoes
EndUndoes
Redoes
EndRedoes
EndUndoRedoHistory
Fore
SplineSet
73 0 m 1,0,-1
 197 1184 l 1,1,-1
 611 1184 l 1,2,-1
 602 1098 l 1,3,-1
 297 1098 l 1,4,-1
 182 0 l 1,5,-1
 73 0 l 1,0,-1
EndSplineSet
Validated: 1
EndChar

StartChar: afii10069
Encoding: 1076 1076 314
Width: 932
GlyphClass: 2
Flags: W
LayerCount: 2
UndoRedoHistory
Layer: 1
Undoes
EndUndoes
Redoes
EndRedoes
EndUndoRedoHistory
Fore
SplineSet
-43 -275 m 1,0,-1
 -6 76 l 1,1,2
 66 113 66 113 115 187 c 128,-1,3
 164 261 164 261 208.5 415 c 128,-1,4
 253 569 253 569 298 833 c 1,5,-1
 362 1184 l 1,6,-1
 831 1184 l 1,7,-1
 715 79 l 1,8,-1
 821 79 l 1,9,-1
 783 -275 l 1,10,-1
 697 -275 l 1,11,-1
 716 0 l 1,12,-1
 81 0 l 1,13,-1
 43 -275 l 1,14,-1
 -43 -275 l 1,0,-1
116 79 m 1,15,-1
 609 79 l 1,16,-1
 716 1101 l 1,17,-1
 444 1101 l 1,18,-1
 387 813 l 1,19,20
 324 440 324 440 270 290 c 128,-1,21
 216 140 216 140 116 79 c 1,15,-1
EndSplineSet
Validated: 1
EndChar

StartChar: afii10072
Encoding: 1078 1078 317
Width: 1037
GlyphClass: 2
Flags: W
LayerCount: 2
UndoRedoHistory
Layer: 1
Undoes
EndUndoes
Redoes
EndRedoes
EndUndoRedoHistory
Fore
SplineSet
-35 0 m 1,0,-1
 385 607 l 1,1,-1
 107 1184 l 1,2,-1
 211 1184 l 1,3,-1
 476 617 l 1,4,-1
 496 617 l 1,5,-1
 555 1184 l 1,6,-1
 648 1184 l 1,7,-1
 588 617 l 1,8,-1
 607 617 l 1,9,-1
 990 1184 l 1,10,-1
 1092 1184 l 1,11,-1
 694 607 l 1,12,-1
 987 0 l 1,13,-1
 883 0 l 1,14,-1
 605 590 l 1,15,-1
 586 590 l 1,16,-1
 523 0 l 1,17,-1
 431 0 l 1,18,-1
 493 590 l 1,19,-1
 472 590 l 1,20,-1
 69 0 l 1,21,-1
 -35 0 l 1,0,-1
EndSplineSet
Validated: 1
EndChar

StartChar: afii10073
Encoding: 1079 1079 318
Width: 734
GlyphClass: 2
Flags: W
LayerCount: 2
UndoRedoHistory
Layer: 1
Undoes
EndUndoes
Redoes
EndRedoes
EndUndoRedoHistory
Fore
SplineSet
323 -20 m 0,0,1
 184 -20 184 -20 120 66 c 0,2,3
 70 133 70 133 70 249 c 0,4,5
 70 280 70 280 74 314 c 1,6,-1
 175 314 l 1,7,8
 172 282 172 282 172 254 c 0,9,10
 172 63 172 63 332 60 c 0,11,12
 333 60 333 60 335 60 c 0,13,14
 430 60 430 60 484 128 c 0,15,16
 540 197 540 197 550 326 c 0,17,18
 551 344 551 344 551 362 c 0,19,20
 551 574 551 574 321 574 c 1,21,-1
 330 658 l 1,22,23
 466 658 466 658 527 712 c 128,-1,24
 588 766 588 766 604 872 c 1,25,26
 609 903 609 903 609 931 c 0,27,28
 608 998 608 998 580 1049 c 0,29,30
 540 1121 540 1121 447 1121 c 0,31,32
 356 1121 356 1121 299 1063 c 128,-1,33
 242 1005 242 1005 230 892 c 1,34,-1
 131 892 l 1,35,36
 147 1046 147 1046 232.5 1124.5 c 128,-1,37
 318 1203 318 1203 458 1203 c 0,38,39
 554 1203 554 1203 615 1157 c 128,-1,40
 676 1111 676 1111 696 1039 c 0,41,42
 709 994 709 994 709 941 c 0,43,44
 709 910 709 910 705 878 c 0,45,46
 691 766 691 766 628 699.5 c 128,-1,47
 565 633 565 633 476 618 c 1,48,49
 535 599 535 599 574 567.5 c 0,50,51
 614 536 614 536 636 472 c 0,52,53
 653 425 653 425 652 363 c 0,54,55
 652 341 652 341 650 317 c 0,56,57
 636 159 636 159 550 69 c 0,58,59
 464 -20 464 -20 326 -20 c 0,60,61
 325 -20 325 -20 323 -20 c 0,0,1
EndSplineSet
Validated: 524321
EndChar

StartChar: afii10074
Encoding: 1080 1080 319
Width: 834
GlyphClass: 2
Flags: W
LayerCount: 2
UndoRedoHistory
Layer: 1
Undoes
EndUndoes
Redoes
EndRedoes
EndUndoRedoHistory
Fore
SplineSet
73 0 m 1,0,-1
 197 1184 l 1,1,-1
 292 1184 l 1,2,-1
 189 202 l 1,3,-1
 709 1183 l 1,4,-1
 800 1184 l 1,5,-1
 676 0 l 1,6,-1
 583 0 l 1,7,-1
 685 973 l 1,8,-1
 166 0 l 1,9,-1
 73 0 l 1,0,-1
EndSplineSet
Validated: 1
EndChar

StartChar: afii10076
Encoding: 1082 1082 321
Width: 762
GlyphClass: 2
Flags: W
LayerCount: 2
UndoRedoHistory
Layer: 1
Undoes
EndUndoes
Redoes
EndRedoes
EndUndoRedoHistory
Fore
SplineSet
73 0 m 1,0,-1
 197 1184 l 1,1,-1
 306 1184 l 1,2,-1
 251 650 l 1,3,-1
 350 650 l 1,4,-1
 701 1184 l 1,5,-1
 815 1184 l 1,6,-1
 445 613 l 1,7,-1
 704 0 l 1,8,-1
 590 0 l 1,9,-1
 342 578 l 1,10,-1
 243 578 l 1,11,-1
 182 0 l 1,12,-1
 73 0 l 1,0,-1
EndSplineSet
Validated: 1
EndChar

StartChar: afii10077
Encoding: 1083 1083 322
Width: 906
GlyphClass: 2
Flags: W
LayerCount: 2
UndoRedoHistory
Layer: 1
Undoes
EndUndoes
Redoes
EndRedoes
EndUndoRedoHistory
Fore
SplineSet
-29 -10 m 1,0,-1
 -20 73 l 1,1,2
 61 75 61 75 108 117.5 c 128,-1,3
 155 160 155 160 195 279.5 c 128,-1,4
 235 399 235 399 281 645 c 1,5,-1
 379 1184 l 1,6,-1
 872 1184 l 1,7,-1
 748 0 l 1,8,-1
 639 0 l 1,9,-1
 754 1099 l 1,10,-1
 466 1099 l 1,11,-1
 381 645 l 2,12,13
 356 509 356 509 334 414.5 c 128,-1,14
 312 320 312 320 285.5 243.5 c 128,-1,15
 259 167 259 167 232 121 c 128,-1,16
 205 75 205 75 168.5 44 c 128,-1,17
 132 13 132 13 90 1.5 c 128,-1,18
 48 -10 48 -10 -9 -10 c 2,19,-1
 -29 -10 l 1,0,-1
EndSplineSet
Validated: 1
EndChar

StartChar: afii10078
Encoding: 1084 1084 323
Width: 973
GlyphClass: 2
Flags: W
LayerCount: 2
UndoRedoHistory
Layer: 1
Undoes
EndUndoes
Redoes
EndRedoes
EndUndoRedoHistory
Fore
SplineSet
64 0 m 1,0,-1
 198 1184 l 1,1,-1
 282 1184 l 1,2,-1
 476 318 l 1,3,-1
 851 1184 l 1,4,-1
 939 1184 l 1,5,-1
 824 0 l 1,6,-1
 729 0 l 1,7,-1
 820 907 l 1,8,-1
 474 125 l 1,9,-1
 439 125 l 1,10,-1
 259 904 l 1,11,-1
 159 0 l 1,12,-1
 64 0 l 1,0,-1
EndSplineSet
Validated: 1
EndChar

StartChar: afii10079
Encoding: 1085 1085 324
Width: 873
GlyphClass: 2
Flags: W
LayerCount: 2
UndoRedoHistory
Layer: 1
Undoes
EndUndoes
Redoes
EndRedoes
EndUndoRedoHistory
Fore
SplineSet
73 0 m 1,0,-1
 197 1184 l 1,1,-1
 306 1184 l 1,2,-1
 251 657 l 1,3,-1
 675 657 l 1,4,-1
 730 1184 l 1,5,-1
 839 1184 l 1,6,-1
 715 0 l 1,7,-1
 606 0 l 1,8,-1
 666 574 l 1,9,-1
 242 574 l 1,10,-1
 182 0 l 1,11,-1
 73 0 l 1,0,-1
EndSplineSet
Validated: 1
EndChar

StartChar: afii10081
Encoding: 1087 1087 326
Width: 832
GlyphClass: 2
Flags: W
LayerCount: 2
UndoRedoHistory
Layer: 1
Undoes
EndUndoes
Redoes
EndRedoes
EndUndoRedoHistory
Fore
SplineSet
73 0 m 1,0,-1
 197 1184 l 1,1,-1
 798 1184 l 1,2,-1
 674 0 l 1,3,-1
 565 0 l 1,4,-1
 681 1097 l 1,5,-1
 298 1097 l 1,6,-1
 182 0 l 1,7,-1
 73 0 l 1,0,-1
EndSplineSet
Validated: 1
EndChar

StartChar: afii10084
Encoding: 1090 1090 329
Width: 672
GlyphClass: 2
Flags: W
LayerCount: 2
UndoRedoHistory
Layer: 1
Undoes
EndUndoes
Redoes
EndRedoes
EndUndoRedoHistory
Fore
SplineSet
243 0 m 1,0,-1
 359 1100 l 1,1,-1
 82 1100 l 1,2,-1
 91 1184 l 1,3,-1
 745 1184 l 1,4,-1
 736 1100 l 1,5,-1
 467 1100 l 1,6,-1
 352 0 l 1,7,-1
 243 0 l 1,0,-1
EndSplineSet
Validated: 1
EndChar

StartChar: afii10085
Encoding: 1091 1091 330
Width: 764
GlyphClass: 2
Flags: W
LayerCount: 2
UndoRedoHistory
Layer: 1
Undoes
EndUndoes
Redoes
EndRedoes
EndUndoRedoHistory
Fore
SplineSet
5 -299 m 1,0,-1
 15 -207 l 1,1,2
 90 -206 90 -206 144.5 -191 c 128,-1,3
 199 -176 199 -176 228.5 -149 c 128,-1,4
 258 -122 258 -122 275 -85 c 128,-1,5
 292 -48 292 -48 292 -4.5 c 128,-1,6
 292 39 292 39 287 88 c 1,7,-1
 142 1184 l 1,8,-1
 248 1184 l 1,9,-1
 320 558 l 1,10,-1
 368 128 l 1,11,-1
 498 552 l 1,12,-1
 694 1184 l 1,13,-1
 800 1184 l 1,14,-1
 389 -56 l 2,15,16
 369 -115 369 -115 342.5 -156 c 128,-1,17
 316 -197 316 -197 285.5 -223 c 128,-1,18
 255 -249 255 -249 209.5 -264.5 c 128,-1,19
 164 -280 164 -280 118.5 -287 c 128,-1,20
 73 -294 73 -294 5 -299 c 1,0,-1
EndSplineSet
Validated: 1
EndChar

StartChar: afii10086
Encoding: 1092 1092 331
Width: 1092
GlyphClass: 2
Flags: W
LayerCount: 2
UndoRedoHistory
Layer: 1
Undoes
EndUndoes
Redoes
EndRedoes
EndUndoRedoHistory
Fore
SplineSet
412 -390 m 1,0,-1
 462 90 l 1,1,-1
 405 90 l 2,2,3
 373 90 373 90 346.5 92 c 128,-1,4
 320 94 320 94 290.5 100 c 128,-1,5
 261 106 261 106 239 116.5 c 128,-1,6
 217 127 217 127 193.5 143 c 128,-1,7
 170 159 170 159 155 182 c 128,-1,8
 140 205 140 205 125.5 236 c 128,-1,9
 111 267 111 267 106.5 306.5 c 128,-1,10
 102 346 102 346 99 396 c 0,11,12
 98 409 98 409 98 422 c 0,13,14
 98 462 98 462 105 508 c 1,15,-1
 127 721 l 2,16,17
 140 847 140 847 171.5 931.5 c 128,-1,18
 203 1016 203 1016 253.5 1061 c 128,-1,19
 304 1106 304 1106 361 1124 c 128,-1,20
 418 1142 418 1142 496 1142 c 2,21,-1
 573 1142 l 1,22,-1
 627 1658 l 1,23,-1
 726 1658 l 1,24,-1
 672 1142 l 1,25,-1
 753 1142 l 2,26,27
 796 1142 796 1142 830.5 1136.5 c 128,-1,28
 865 1131 865 1131 898.5 1118.5 c 128,-1,29
 932 1106 932 1106 955 1084.5 c 128,-1,30
 978 1063 978 1063 997.5 1031 c 128,-1,31
 1017 999 1017 999 1025.5 955 c 0,32,33
 1034 910 1034 910 1038 852 c 0,34,35
 1039 837 1039 837 1038 821 c 0,36,37
 1038 775 1038 775 1031 721 c 1,38,-1
 1009 508 l 2,39,40
 1001 431 1001 431 985 369 c 128,-1,41
 969 307 969 307 948 263.5 c 128,-1,42
 927 220 927 220 898 188.5 c 128,-1,43
 869 157 869 157 839 138.5 c 128,-1,44
 809 120 809 120 771.5 108.5 c 128,-1,45
 734 97 734 97 700 93.5 c 128,-1,46
 666 90 666 90 624 90 c 2,47,-1
 562 90 l 1,48,-1
 511 -390 l 1,49,-1
 412 -390 l 1,0,-1
414 168 m 2,50,-1
 470 168 l 1,51,-1
 564 1067 l 1,52,-1
 490 1067 l 2,53,54
 443 1067 443 1067 410.5 1061 c 128,-1,55
 378 1055 378 1055 345 1035 c 128,-1,56
 312 1015 312 1015 290.5 978.5 c 128,-1,57
 269 942 269 942 251.5 880.5 c 128,-1,58
 234 819 234 819 225 731 c 2,59,-1
 202 506 l 2,60,61
 196 449 196 449 196 403 c 0,62,63
 196 399 196 399 195 396 c 0,64,65
 195 354 195 354 201 323 c 0,66,67
 207 289 207 289 216.5 263.5 c 128,-1,68
 226 238 226 238 242 221.5 c 128,-1,69
 258 205 258 205 275 194 c 128,-1,70
 292 183 292 183 316 177.5 c 128,-1,71
 340 172 340 172 362 170 c 128,-1,72
 384 168 384 168 414 168 c 2,50,-1
570 168 m 1,73,-1
 627 168 l 2,74,75
 667 168 667 168 696 172 c 128,-1,76
 725 176 725 176 757 187 c 128,-1,77
 789 198 789 198 811.5 221.5 c 128,-1,78
 834 245 834 245 855.5 281.5 c 128,-1,79
 877 318 877 318 891 374.5 c 128,-1,80
 905 431 905 431 913 506 c 2,81,-1
 936 731 l 2,82,83
 942 786 942 786 942 831 c 0,84,85
 942 835 942 835 943 840 c 0,86,87
 942 880 942 880 938 910 c 0,88,89
 934 944 934 944 925.5 969 c 128,-1,90
 917 994 917 994 903 1011 c 128,-1,91
 889 1028 889 1028 873.5 1039 c 128,-1,92
 858 1050 858 1050 835.5 1056 c 128,-1,93
 813 1062 813 1062 791 1064 c 128,-1,94
 769 1066 769 1066 740 1066 c 2,95,-1
 664 1066 l 1,96,-1
 570 168 l 1,73,-1
EndSplineSet
Validated: 524289
EndChar

StartChar: afii10088
Encoding: 1094 1094 333
Width: 840
GlyphClass: 2
Flags: W
LayerCount: 2
UndoRedoHistory
Layer: 1
Undoes
EndUndoes
Redoes
EndRedoes
EndUndoRedoHistory
Fore
SplineSet
657 -275 m 1,0,-1
 676 0 l 1,1,-1
 73 0 l 1,2,-1
 197 1184 l 1,3,-1
 306 1184 l 1,4,-1
 190 76 l 1,5,-1
 565 76 l 1,6,-1
 681 1184 l 1,7,-1
 789 1184 l 1,8,-1
 674 76 l 1,9,-1
 777 76 l 1,10,-1
 739 -275 l 1,11,-1
 657 -275 l 1,0,-1
EndSplineSet
Validated: 1
EndChar

StartChar: afii10089
Encoding: 1095 1095 334
Width: 771
GlyphClass: 2
Flags: W
LayerCount: 2
UndoRedoHistory
Layer: 1
Undoes
EndUndoes
Redoes
EndRedoes
EndUndoRedoHistory
Fore
SplineSet
501 0 m 1,0,-1
 554 508 l 1,1,2
 435 483 435 483 368 483 c 0,3,4
 241 483 241 483 173 546 c 0,5,6
 117 598 117 598 117 698 c 0,7,8
 117 719 117 719 119 741 c 2,9,-1
 165 1184 l 1,10,-1
 274 1184 l 1,11,-1
 228 738 l 2,12,13
 226 722 226 722 226 707 c 0,14,15
 226 563 226 563 397 563 c 0,16,17
 471 563 471 563 562 587 c 1,18,-1
 625 1184 l 1,19,-1
 733 1184 l 1,20,-1
 609 0 l 1,21,-1
 501 0 l 1,0,-1
EndSplineSet
Validated: 1
EndChar

StartChar: afii10090
Encoding: 1096 1096 335
Width: 1128
GlyphClass: 2
Flags: W
LayerCount: 2
UndoRedoHistory
Layer: 1
Undoes
EndUndoes
Redoes
EndRedoes
EndUndoRedoHistory
Fore
SplineSet
73 0 m 1,0,-1
 197 1184 l 1,1,-1
 304 1184 l 1,2,-1
 188 76 l 1,3,-1
 480 76 l 1,4,-1
 596 1184 l 1,5,-1
 702 1184 l 1,6,-1
 587 76 l 1,7,-1
 871 76 l 1,8,-1
 986 1184 l 1,9,-1
 1093 1184 l 1,10,-1
 969 0 l 1,11,-1
 73 0 l 1,0,-1
EndSplineSet
Validated: 1
EndChar

StartChar: afii10091
Encoding: 1097 1097 336
Width: 1176
GlyphClass: 2
Flags: W
LayerCount: 2
UndoRedoHistory
Layer: 1
Undoes
EndUndoes
Redoes
EndRedoes
EndUndoRedoHistory
Fore
SplineSet
974 -275 m 1,0,-1
 990 0 l 1,1,-1
 73 0 l 1,2,-1
 198 1184 l 1,3,-1
 303 1184 l 1,4,-1
 187 76 l 1,5,-1
 485 76 l 1,6,-1
 602 1184 l 1,7,-1
 707 1184 l 1,8,-1
 590 76 l 1,9,-1
 882 76 l 1,10,-1
 998 1184 l 1,11,-1
 1103 1184 l 1,12,-1
 987 76 l 1,13,-1
 1092 76 l 1,14,-1
 1054 -275 l 1,15,-1
 974 -275 l 1,0,-1
EndSplineSet
Validated: 1
EndChar

StartChar: afii10092
Encoding: 1098 1098 337
Width: 904
GlyphClass: 2
Flags: W
LayerCount: 2
UndoRedoHistory
Layer: 1
Undoes
EndUndoes
Redoes
EndRedoes
EndUndoRedoHistory
Fore
SplineSet
211 0 m 1,0,-1
 327 1101 l 1,1,-1
 71 1101 l 1,2,-1
 79 1184 l 1,3,-1
 444 1184 l 1,4,-1
 395 708 l 1,5,-1
 490 708 l 2,6,7
 567 708 567 708 626.5 693.5 c 128,-1,8
 686 679 686 679 723 653.5 c 128,-1,9
 760 628 760 628 785 593.5 c 128,-1,10
 810 559 810 559 819 519 c 128,-1,11
 828 479 828 479 832 435 c 0,12,13
 833 420 833 420 833 406 c 0,14,15
 833 377 833 377 828 347 c 1,16,17
 822 291 822 291 809 245.5 c 128,-1,18
 796 200 796 200 765.5 152.5 c 128,-1,19
 735 105 735 105 691 73 c 128,-1,20
 647 41 647 41 574.5 20.5 c 128,-1,21
 502 0 502 0 409 0 c 2,22,-1
 211 0 l 1,0,-1
328 74 m 1,23,-1
 417 74 l 2,24,25
 503 74 503 74 563 95.5 c 128,-1,26
 623 117 623 117 655.5 157.5 c 128,-1,27
 688 198 688 198 703.5 242.5 c 128,-1,28
 719 287 719 287 725 348 c 1,29,30
 729 398 729 398 729 435 c 0,31,32
 729 476 729 476 714 510 c 0,33,34
 699 546 699 546 673.5 573.5 c 128,-1,35
 648 601 648 601 598 617.5 c 128,-1,36
 548 634 548 634 479 634 c 2,37,-1
 387 634 l 1,38,-1
 328 74 l 1,23,-1
EndSplineSet
Validated: 1
EndChar

StartChar: afii10093
Encoding: 1099 1099 338
Width: 1079
GlyphClass: 2
Flags: W
LayerCount: 2
UndoRedoHistory
Layer: 1
Undoes
EndUndoes
Redoes
EndRedoes
EndUndoRedoHistory
Fore
SplineSet
73 0 m 1,0,-1
 197 1184 l 1,1,-1
 306 1184 l 1,2,-1
 257 708 l 1,3,-1
 352 708 l 2,4,5
 429 708 429 708 488.5 693.5 c 128,-1,6
 548 679 548 679 585 653.5 c 128,-1,7
 622 628 622 628 647 593.5 c 128,-1,8
 672 559 672 559 680.5 519 c 0,9,10
 688 479 688 479 692 435 c 0,11,12
 693 420 693 420 694 406 c 0,13,14
 694 377 694 377 689 347 c 1,15,16
 683 291 683 291 670 245.5 c 128,-1,17
 657 200 657 200 627 152.5 c 128,-1,18
 597 105 597 105 553 73 c 128,-1,19
 509 41 509 41 436.5 20.5 c 128,-1,20
 364 0 364 0 271 0 c 2,21,-1
 73 0 l 1,0,-1
190 74 m 1,22,-1
 279 74 l 2,23,24
 365 74 365 74 425 95.5 c 128,-1,25
 485 117 485 117 517.5 157.5 c 128,-1,26
 550 198 550 198 565.5 242.5 c 128,-1,27
 581 287 581 287 587 348 c 1,28,29
 591 398 591 398 591 435 c 0,30,31
 590 474 590 474 576 510 c 128,-1,32
 562 546 562 546 536 573.5 c 128,-1,33
 510 601 510 601 460 617.5 c 128,-1,34
 410 634 410 634 341 634 c 2,35,-1
 249 634 l 1,36,-1
 190 74 l 1,22,-1
812 0 m 1,37,-1
 936 1184 l 1,38,-1
 1044 1184 l 1,39,-1
 920 0 l 1,40,-1
 812 0 l 1,37,-1
EndSplineSet
Validated: 524289
EndChar

StartChar: afii10094
Encoding: 1100 1100 339
Width: 764
GlyphClass: 2
Flags: W
LayerCount: 2
UndoRedoHistory
Layer: 1
Undoes
EndUndoes
Redoes
EndRedoes
EndUndoRedoHistory
Fore
SplineSet
73 0 m 1,0,-1
 197 1184 l 1,1,-1
 306 1184 l 1,2,-1
 257 708 l 1,3,-1
 352 708 l 2,4,5
 429 708 429 708 488.5 693.5 c 128,-1,6
 548 679 548 679 585 653.5 c 128,-1,7
 622 628 622 628 647 593.5 c 128,-1,8
 672 559 672 559 680.5 519 c 0,9,10
 688 479 688 479 692 435 c 0,11,12
 693 420 693 420 694 406 c 0,13,14
 694 377 694 377 689 347 c 1,15,16
 683 291 683 291 670 245.5 c 128,-1,17
 657 200 657 200 627 152.5 c 128,-1,18
 597 105 597 105 553 73 c 128,-1,19
 509 41 509 41 436.5 20.5 c 128,-1,20
 364 0 364 0 271 0 c 2,21,-1
 73 0 l 1,0,-1
190 74 m 1,22,-1
 279 74 l 2,23,24
 365 74 365 74 425 95.5 c 128,-1,25
 485 117 485 117 517.5 157.5 c 128,-1,26
 550 198 550 198 565.5 242.5 c 128,-1,27
 581 287 581 287 587 348 c 1,28,29
 591 398 591 398 591 435 c 0,30,31
 590 474 590 474 576 510 c 128,-1,32
 562 546 562 546 536 573.5 c 128,-1,33
 510 601 510 601 460 617.5 c 128,-1,34
 410 634 410 634 341 634 c 2,35,-1
 249 634 l 1,36,-1
 190 74 l 1,22,-1
EndSplineSet
Validated: 524289
EndChar

StartChar: afii10095
Encoding: 1101 1101 340
Width: 791
GlyphClass: 2
Flags: W
LayerCount: 2
UndoRedoHistory
Layer: 1
Undoes
EndUndoes
Redoes
EndRedoes
EndUndoRedoHistory
Fore
SplineSet
356 -19 m 0,0,1
 266 -19 266 -19 209 7.5 c 128,-1,2
 152 34 152 34 128 81.5 c 0,3,4
 104 130 104 130 97 194 c 0,5,6
 94 219 94 219 94 245 c 0,7,8
 94 287 94 287 101 334 c 1,9,-1
 104 357 l 1,10,-1
 206 357 l 1,11,-1
 205 335 l 1,12,13
 200 289 200 289 200 251 c 0,14,15
 200 163 200 163 228 122 c 0,16,17
 268 63 268 63 369 63 c 0,18,19
 417 63 417 63 451.5 77.5 c 128,-1,20
 486 92 486 92 509 118 c 128,-1,21
 532 144 532 144 548 193.5 c 128,-1,22
 564 243 564 243 574 300.5 c 128,-1,23
 584 358 584 358 593 448 c 2,24,-1
 605 562 l 1,25,-1
 275 562 l 1,26,-1
 283 634 l 1,27,-1
 613 634 l 1,28,-1
 624 740 l 1,29,30
 635 834 635 834 635 902 c 0,31,32
 635 932 635 932 633 956 c 0,33,34
 626 1038 626 1038 590.5 1072 c 128,-1,35
 555 1106 555 1106 477 1106 c 0,36,37
 363 1106 363 1106 317 1038.5 c 128,-1,38
 271 971 271 971 255 817 c 2,39,-1
 252 788 l 1,40,-1
 149 788 l 1,41,-1
 152 814 l 2,42,43
 159 880 159 880 169.5 929.5 c 128,-1,44
 180 979 180 979 204 1030 c 128,-1,45
 228 1081 228 1081 263 1114 c 128,-1,46
 298 1147 298 1147 355 1167.5 c 128,-1,47
 412 1188 412 1188 487 1188 c 0,48,49
 583 1188 583 1188 641 1153.5 c 128,-1,50
 699 1119 699 1119 719.5 1057.5 c 128,-1,51
 740 996 740 996 742 911 c 0,52,53
 742 898 742 898 743 885 c 0,54,55
 743 811 743 811 731 724 c 1,56,-1
 704 461 l 1,57,58
 675 193 675 193 600.5 87 c 128,-1,59
 526 -19 526 -19 356 -19 c 0,0,1
EndSplineSet
Validated: 524289
EndChar

StartChar: afii10096
Encoding: 1102 1102 341
Width: 1051
GlyphClass: 2
Flags: W
LayerCount: 2
UndoRedoHistory
Layer: 1
Undoes
EndUndoes
Redoes
EndRedoes
EndUndoRedoHistory
Fore
SplineSet
625 -19 m 0,0,1
 460 -20 460 -20 410 88 c 0,2,3
 376 160 376 160 377 290 c 0,4,5
 377 354 377 354 385 432 c 2,6,-1
 397 546 l 1,7,-1
 231 546 l 1,8,-1
 175 0 l 1,9,-1
 73 0 l 1,10,-1
 197 1184 l 1,11,-1
 299 1184 l 1,12,-1
 240 621 l 1,13,-1
 405 621 l 1,14,-1
 419 752 l 2,15,16
 431 868 431 868 452.5 947.5 c 128,-1,17
 474 1027 474 1027 512 1087 c 128,-1,18
 550 1147 550 1147 609.5 1175 c 128,-1,19
 669 1203 669 1203 754 1203 c 0,20,21
 866 1203 866 1203 924.5 1152 c 0,22,23
 984 1100 984 1100 996 1000 c 0,24,25
 1002 954 1002 954 1001 899 c 0,26,27
 1001 832 1001 832 993 752 c 2,28,-1
 960 432 l 2,29,30
 947 315 947 315 925.5 235.5 c 128,-1,31
 904 156 904 156 866 96.5 c 128,-1,32
 828 37 828 37 768.5 9 c 128,-1,33
 709 -19 709 -19 625 -19 c 0,0,1
633 63 m 0,34,35
 683 63 683 63 719 80 c 128,-1,36
 755 97 755 97 778 124.5 c 128,-1,37
 801 152 801 152 817 202 c 128,-1,38
 833 252 833 252 841.5 301.5 c 128,-1,39
 850 351 850 351 858 428 c 2,40,-1
 893 756 l 1,41,42
 903 856 903 856 903 931 c 0,43,44
 902 942 902 942 902 952 c 0,45,46
 900 1034 900 1034 862.5 1077.5 c 128,-1,47
 825 1121 825 1121 744 1121 c 0,48,49
 695 1121 695 1121 658.5 1104 c 128,-1,50
 622 1087 622 1087 599.5 1059 c 128,-1,51
 577 1031 577 1031 561 981.5 c 128,-1,52
 545 932 545 932 536.5 882.5 c 128,-1,53
 528 833 528 833 520 756 c 2,54,-1
 486 428 l 2,55,56
 476 323 476 323 476 246 c 0,57,58
 476 239 476 239 476 232 c 0,59,60
 477 151 477 151 514.5 107 c 128,-1,61
 552 63 552 63 633 63 c 0,34,35
EndSplineSet
Validated: 524321
EndChar

StartChar: afii10097
Encoding: 1103 1103 342
Width: 789
GlyphClass: 2
Flags: W
LayerCount: 2
UndoRedoHistory
Layer: 1
Undoes
EndUndoes
Redoes
EndRedoes
EndUndoRedoHistory
Fore
SplineSet
-3 0 m 1,0,-1
 291 519 l 1,1,2
 202 557 202 557 172 646 c 0,3,4
 150 711 150 711 149 787 c 0,5,6
 149 814 149 814 152 842 c 0,7,8
 158 898 158 898 169.5 942 c 128,-1,9
 181 986 181 986 209.5 1033.5 c 128,-1,10
 238 1081 238 1081 280 1112 c 128,-1,11
 322 1143 322 1143 393 1163.5 c 128,-1,12
 464 1184 464 1184 557 1184 c 2,13,-1
 754 1184 l 1,14,-1
 630 0 l 1,15,-1
 522 0 l 1,16,-1
 573 486 l 1,17,18
 433 486 433 486 388 494 c 1,19,-1
 114 0 l 1,20,-1
 -3 0 l 1,0,-1
509 560 m 2,21,-1
 580 560 l 1,22,-1
 638 1111 l 1,23,-1
 546 1111 l 2,24,25
 478 1111 478 1111 427 1096 c 128,-1,26
 376 1081 376 1081 346 1057.5 c 128,-1,27
 316 1034 316 1034 296 997 c 128,-1,28
 276 960 276 960 267.5 924.5 c 128,-1,29
 259 889 259 889 254 841 c 0,30,31
 251 811 251 811 251 785 c 0,32,33
 251 682 251 682 298 628 c 0,34,35
 357 560 357 560 509 560 c 2,21,-1
EndSplineSet
Validated: 1
EndChar

StartChar: afii10098
Encoding: 1169 1169 343
Width: 607
GlyphClass: 2
Flags: W
LayerCount: 2
UndoRedoHistory
Layer: 1
Undoes
EndUndoes
Redoes
EndRedoes
EndUndoRedoHistory
Fore
SplineSet
89 0 m 1,0,-1
 213 1184 l 1,1,-1
 569 1184 l 1,2,-1
 585 1333 l 1,3,-1
 650 1333 l 1,4,-1
 626 1102 l 1,5,-1
 309 1102 l 1,6,-1
 193 0 l 1,7,-1
 89 0 l 1,0,-1
EndSplineSet
Validated: 1
EndChar

StartChar: afii10099
Encoding: 1106 1106 344
Width: 832
GlyphClass: 2
Flags: W
LayerCount: 2
UndoRedoHistory
Layer: 1
Undoes
EndUndoes
Redoes
EndRedoes
EndUndoRedoHistory
Fore
SplineSet
311 -247 m 1,0,-1
 320 -167 l 1,1,-1
 357 -167 l 2,2,3
 392 -167 392 -167 419 -163 c 128,-1,4
 446 -159 446 -159 468 -147.5 c 128,-1,5
 490 -136 490 -136 505.5 -123 c 128,-1,6
 521 -110 521 -110 533.5 -86 c 128,-1,7
 546 -62 546 -62 554 -38 c 128,-1,8
 562 -14 562 -14 569 25.5 c 128,-1,9
 576 65 576 65 580.5 101 c 128,-1,10
 585 137 585 137 591 193 c 2,11,-1
 652 768 l 2,12,13
 654 785 654 785 654 800 c 0,14,15
 654 921 654 921 534 921 c 0,16,17
 469 921 469 921 404 897 c 128,-1,18
 339 873 339 873 290 831 c 1,19,-1
 203 0 l 1,20,-1
 95 0 l 1,21,-1
 229 1281 l 1,22,-1
 84 1281 l 1,23,-1
 91 1351 l 1,24,-1
 236 1351 l 1,25,-1
 269 1658 l 1,26,-1
 377 1658 l 1,27,-1
 345 1351 l 1,28,-1
 600 1351 l 1,29,-1
 593 1281 l 1,30,-1
 338 1281 l 1,31,-1
 298 903 l 1,32,33
 415 993 415 993 569 993 c 0,34,35
 662 992 662 992 718 940 c 0,36,37
 764 897 764 897 764 815 c 0,38,39
 764 797 764 797 762 778 c 2,40,-1
 702 206 l 2,41,42
 694 133 694 133 687.5 87 c 128,-1,43
 681 41 681 41 669.5 -12 c 128,-1,44
 658 -65 658 -65 642.5 -96.5 c 128,-1,45
 627 -128 627 -128 602 -160.5 c 128,-1,46
 577 -193 577 -193 544 -209.5 c 128,-1,47
 511 -226 511 -226 465 -236.5 c 128,-1,48
 419 -247 419 -247 360 -247 c 2,49,-1
 311 -247 l 1,0,-1
EndSplineSet
Validated: 1
EndChar

StartChar: afii10101
Encoding: 1108 1108 346
Width: 770
GlyphClass: 2
Flags: W
LayerCount: 2
UndoRedoHistory
Layer: 1
Undoes
EndUndoes
Redoes
EndRedoes
EndUndoRedoHistory
Fore
SplineSet
349 -19 m 0,0,1
 293 -19 293 -19 250 -6.5 c 128,-1,2
 207 6 207 6 178 27.5 c 128,-1,3
 149 49 149 49 130 83 c 128,-1,4
 111 117 111 117 101.5 153.5 c 128,-1,5
 92 190 92 190 90 240 c 0,6,7
 89 265 89 265 88.5 289.5 c 128,-1,8
 88 314 88 314 90 338 c 0,9,10
 92 384 92 384 98 445 c 2,11,-1
 128 723 l 2,12,13
 156 989 156 989 231.5 1096 c 128,-1,14
 307 1203 307 1203 477 1203 c 0,15,16
 567 1203 567 1203 623.5 1175 c 128,-1,17
 680 1147 680 1147 703 1097 c 0,18,19
 726 1046 726 1046 732 978 c 0,20,21
 734 954 734 954 735 929 c 0,22,23
 735 882 735 882 727 829 c 1,24,-1
 724 799 l 1,25,-1
 622 799 l 1,26,-1
 625 828 l 2,27,28
 631 884 631 884 631 927 c 0,29,30
 632 976 632 976 624 1010 c 0,31,32
 610 1074 610 1074 574 1097.5 c 128,-1,33
 538 1121 538 1121 469 1121 c 0,34,35
 421 1121 421 1121 386.5 1107 c 128,-1,36
 352 1093 352 1093 327.5 1066.5 c 128,-1,37
 303 1040 303 1040 286 992 c 128,-1,38
 269 944 269 944 258 884.5 c 128,-1,39
 247 825 247 825 238 736 c 2,40,-1
 228 640 l 1,41,-1
 540 640 l 1,42,-1
 531 562 l 1,43,-1
 219 562 l 1,44,-1
 206 429 l 1,45,46
 198 347 198 347 198 285 c 0,47,48
 198 193 198 193 216 145 c 0,49,50
 247 63 247 63 359 63 c 0,51,52
 419 63 419 63 457.5 80 c 128,-1,53
 496 97 496 97 520 139.5 c 128,-1,54
 544 182 544 182 556.5 238 c 128,-1,55
 569 294 569 294 579 389 c 1,56,-1
 581 417 l 1,57,-1
 684 417 l 1,58,-1
 681 392 l 1,59,60
 673 312 673 312 662 257 c 128,-1,61
 651 202 651 202 628 146 c 128,-1,62
 605 90 605 90 571 56.5 c 128,-1,63
 537 23 537 23 481 2 c 128,-1,64
 425 -19 425 -19 349 -19 c 0,0,1
EndSplineSet
Validated: 33
EndChar

StartChar: afii10103
Encoding: 1110 1110 348
Width: 474
GlyphClass: 2
Flags: W
LayerCount: 2
UndoRedoHistory
Layer: 1
Undoes
EndUndoes
Redoes
EndRedoes
EndUndoRedoHistory
Fore
SplineSet
143 0 m 1,0,-1
 267 1184 l 1,1,-1
 375 1184 l 1,2,-1
 251 0 l 1,3,-1
 143 0 l 1,0,-1
273 1332 m 1,4,-1
 292 1513 l 1,5,-1
 424 1513 l 1,6,-1
 406 1332 l 1,7,-1
 273 1332 l 1,4,-1
EndSplineSet
Validated: 1
EndChar

StartChar: afii10105
Encoding: 1112 1112 350
Width: 411
GlyphClass: 2
Flags: W
LayerCount: 2
UndoRedoHistory
Layer: 1
Undoes
EndUndoes
Redoes
EndRedoes
EndUndoRedoHistory
Fore
SplineSet
-107 -313 m 1,0,-1
 -98 -226 l 1,1,2
 -90 -228 -90 -228 -51 -228 c 0,3,4
 0 -228 0 -228 33.5 -214 c 128,-1,5
 67 -200 67 -200 83.5 -171 c 128,-1,6
 100 -142 100 -142 106.5 -117 c 128,-1,7
 113 -92 113 -92 117 -51 c 2,8,-1
 247 1184 l 1,9,-1
 356 1184 l 1,10,-1
 225 -58 l 2,11,12
 211 -195 211 -195 142 -256 c 128,-1,13
 73 -317 73 -317 -47 -317 c 0,14,15
 -96 -317 -96 -317 -107 -313 c 1,0,-1
264 1339 m 1,16,-1
 283 1528 l 1,17,-1
 393 1528 l 1,18,-1
 373 1339 l 1,19,-1
 264 1339 l 1,16,-1
EndSplineSet
Validated: 1
EndChar

